<svg width="30" height="25" viewBox="0 0 30 25" fill="none" xmlns="http://www.w3.org/2000/svg">
<g clip-path="url(#clip0_479_3148)">
<path d="M29.895 7.90998C29.85 5.34498 27.81 3.20998 25.14 2.94998C24.225 2.85998 23.245 2.84498 22.235 2.89998C21.61 2.93498 21.345 2.76998 21.11 2.23498C20.46 0.739983 19.255 -0.0150167 17.485 0.0199833L16.74 0.0299833C15.485 0.0499833 14.185 0.0699833 12.92 0.00998327C10.78 -0.100017 9.37503 0.744983 8.63003 2.58498C8.53003 2.82998 8.40503 2.89998 8.08003 2.88998C7.35503 2.86998 6.58003 2.86498 5.56003 2.88498C2.30503 2.94498 0.0250293 5.19998 0.0100293 8.37498C-0.0049707 12.105 -0.0049707 15.855 0.0100293 19.515C0.0250293 22.735 2.33503 24.99 5.63503 24.995C7.89503 25 10.15 25 12.41 24.995H14.95H17.93C18.86 24.995 19.795 25 20.725 25C22 25 23.275 25 24.55 24.99C27.49 24.975 29.84 22.765 29.89 19.97C29.965 16.105 29.965 12.16 29.895 7.90998ZM19.26 3.05998C19.4 3.32498 19.51 3.54998 19.6 3.73998C20.155 4.86998 20.27 4.93498 21.615 4.92498C21.835 4.92498 22.1 4.91998 22.41 4.92498C22.68 4.92998 22.955 4.92498 23.23 4.92498C23.715 4.92498 24.205 4.91998 24.695 4.93998C26.455 5.01498 27.845 6.40498 27.855 8.09998C27.885 12.15 27.885 16.08 27.855 19.79C27.84 21.6 26.335 22.97 24.345 22.98C22.155 22.99 19.97 22.99 17.78 22.985H14.965H12.675C10.385 22.985 8.09003 22.985 5.80003 22.985C3.43003 22.98 2.07003 21.665 2.07003 19.37C2.06503 15.75 2.06503 12.135 2.07003 8.51498C2.07503 6.24498 3.41003 4.93998 5.73503 4.92498H6.03003C6.95503 4.91998 7.88003 4.91498 8.80503 4.92998C9.69003 4.92998 10.025 4.46998 10.15 4.07498C10.665 2.44998 11.755 1.81498 13.69 2.00998C14.635 2.10998 15.605 2.07998 16.54 2.05498C16.865 2.04498 17.195 2.03498 17.52 2.03498C18.345 2.02998 18.895 2.34998 19.26 3.05998Z" fill="#1776E8"/>
<path d="M14.955 5.76514C10.755 5.77514 7.34498 9.12514 7.34998 13.2351C7.34998 15.2401 8.14498 17.1101 9.57998 18.5101C11.015 19.9051 12.925 20.6751 14.97 20.6751C14.975 20.6751 14.975 20.6751 14.98 20.6751C19.24 20.6701 22.58 17.3901 22.585 13.2101C22.59 11.2501 21.82 9.40014 20.42 8.00014C18.975 6.55514 17.045 5.76514 14.975 5.76514C14.965 5.76514 14.96 5.76514 14.955 5.76514ZM20.54 13.2751C20.525 16.2501 18.03 18.6651 14.975 18.6651H14.97C13.475 18.6651 12.07 18.0951 11.015 17.0651C9.96498 16.0351 9.38498 14.6701 9.38498 13.2151C9.38498 11.7901 9.95998 10.4401 10.99 9.41514C12.055 8.36014 13.46 7.78014 14.96 7.78014C14.97 7.78014 14.98 7.78014 14.99 7.78014C18.07 7.79514 20.555 10.2601 20.54 13.2751Z" fill="#1776E8"/>
<path d="M11.485 13.1598C11.485 15.1448 13.09 16.7498 15.075 16.7498C17.06 16.7498 18.665 15.1448 18.665 13.1598C18.665 11.1748 17.06 9.56982 15.075 9.56982C13.09 9.56982 11.485 11.1798 11.485 13.1598Z" fill="#1776E8"/>
</g>
<defs>
<clipPath id="clip0_479_3148">
<rect width="29.95" height="25" fill="white"/>
</clipPath>
</defs>
</svg>
