<svg width="141" height="134" viewBox="0 0 141 134" fill="none" xmlns="http://www.w3.org/2000/svg">
<circle cx="15" cy="8" r="8" fill="#1776E8"/>
<circle cx="135" cy="30" r="6" fill="#1776E8"/>
<circle cx="4" cy="75" r="4" fill="#1776E8"/>
<circle cx="87" cy="8" r="4" fill="#1776E8"/>
<circle cx="47" cy="132" r="2" fill="#1776E8"/>
<circle cx="21" cy="40" r="2" fill="#1776E8"/>
<circle cx="125" cy="110" r="1" fill="#1776E8"/>
<circle cx="133" cy="58" r="2" fill="#1776E8"/>
<circle cx="73" cy="78" r="50" fill="url(#paint0_linear_109_620)"/>
<g clip-path="url(#clip0_109_620)">
<path d="M82.9474 74.2104C85.2161 74.8485 85.8778 76.3137 85.8306 78.4407C85.736 83.0491 85.8069 87.6574 85.8069 92.2422C85.8069 94.6291 84.4835 95.9525 82.0966 95.9525C75.9994 95.9761 69.9021 95.9761 63.8049 95.9525C61.3707 95.9525 60.0237 94.5818 60.0237 92.1476C60.0237 87.4211 60.0473 82.6946 60.0237 77.9917C60.0237 76.3137 60.6618 75.1321 62.2215 74.4231C62.5051 74.2813 62.7887 73.8087 62.8123 73.4778C62.8832 72.1071 62.836 70.7128 62.836 69.3421C62.8596 64.6156 66.4754 60.9998 71.2019 60.9998C73.0453 60.9998 74.9359 60.9052 76.7084 61.2834C80.2769 62.016 82.8292 65.3009 82.9474 68.9403C82.9946 70.6655 82.9474 72.3907 82.9474 74.2104ZM80.2533 74.1868C80.2533 72.3434 80.3714 70.5946 80.2296 68.8931C79.9697 66.0808 77.9845 64.0484 75.2195 63.7884C73.5416 63.6466 71.8164 63.6466 70.1621 63.8829C67.7516 64.1902 66.1682 65.7263 65.7428 68.0659C65.3883 70.0511 65.5065 72.1071 65.4119 74.2104C70.4693 74.1868 75.2904 74.1868 80.2533 74.1868ZM76.5666 82.4582C76.5429 81.0166 75.574 79.6932 74.1797 79.2915C72.6435 78.8424 70.9892 79.4569 70.1857 80.8039C69.4059 82.0801 69.4059 83.8526 70.6348 84.6561C72.0527 85.6014 71.8873 86.8303 71.8873 88.1301C71.8873 88.5318 71.8637 88.91 71.9109 89.3117C72.0055 90.0916 72.4781 90.517 73.258 90.4933C74.0379 90.4697 74.5105 90.0443 74.5341 89.2408C74.5578 88.3428 74.4632 87.4211 74.5814 86.5231C74.6287 86.0504 74.8886 85.5068 75.2431 85.1996C76.0466 84.467 76.5902 83.6162 76.5666 82.4582Z" fill="white"/>
</g>
<defs>
<linearGradient id="paint0_linear_109_620" x1="73" y1="28" x2="73" y2="128" gradientUnits="userSpaceOnUse">
<stop stop-color="#1776E8"/>
<stop offset="1" stop-color="#62A9FF"/>
</linearGradient>
<clipPath id="clip0_109_620">
<rect width="25.8542" height="35" fill="white" transform="translate(60 61)"/>
</clipPath>
</defs>
</svg>
