<svg width="50" height="50" viewBox="0 0 50 50" fill="none" xmlns="http://www.w3.org/2000/svg">
<rect width="50" height="50" rx="18" fill="#1776E8"/>
<g clip-path="url(#clip0_280_1178)">
<path d="M27.5741 21.8815L28.1833 21.2736C28.539 20.9186 28.5397 20.3412 28.1847 19.9855C27.8297 19.6299 27.2523 19.6292 26.8966 19.9842L26.2847 20.5948C25.7877 20.2641 25.2292 20.0329 24.645 19.9152V19.0558C24.645 18.5534 24.2366 18.145 23.7342 18.145C23.2318 18.145 22.8234 18.5534 22.8234 19.0558V19.9152C22.2385 20.0329 21.68 20.2641 21.1824 20.5954L20.5697 19.9842C20.2141 19.6299 19.636 19.6306 19.2817 19.9855C19.1099 20.158 19.0152 20.3865 19.0159 20.6299C19.0159 20.8733 19.1113 21.1019 19.2837 21.2736L19.8943 21.8829C19.5643 22.3785 19.3337 22.9336 19.2161 23.5158H18.3506C17.8482 23.5158 17.4398 23.9242 17.4398 24.4266C17.4398 24.929 17.8482 25.3374 18.3506 25.3374H19.2161C19.3337 25.9195 19.565 26.4754 19.8949 26.971L19.2837 27.5809C18.928 27.9359 18.9273 28.5133 19.2823 28.869C19.4548 29.0414 19.6833 29.1367 19.9274 29.1367C20.1701 29.1367 20.3987 29.0421 20.5704 28.871L21.1837 28.2591C21.6814 28.5897 22.2392 28.821 22.8234 28.9386V29.7994C22.8234 30.3018 23.2318 30.7102 23.7342 30.7102C24.2366 30.7102 24.645 30.3018 24.645 29.7994V28.9386C25.2292 28.821 25.787 28.5897 26.284 28.2598L26.8966 28.871C27.0684 29.0427 27.2969 29.1367 27.5396 29.1367C27.7831 29.1367 28.0123 29.0414 28.1847 28.869C28.539 28.5133 28.5383 27.9359 28.1833 27.5809L27.5734 26.9723C27.9041 26.4767 28.1353 25.9202 28.253 25.338H29.1164C29.6188 25.338 30.0272 24.9296 30.0272 24.4273C30.0272 23.9249 29.6188 23.5165 29.1164 23.5165H28.253C28.136 22.9329 27.9048 22.3771 27.5741 21.8815ZM26.524 24.4259C26.524 25.9594 25.2731 27.207 23.7349 27.207C22.1966 27.207 20.9457 25.9594 20.9457 24.4259C20.9457 22.8924 22.1966 21.6448 23.7349 21.6448C25.2731 21.6448 26.524 22.8924 26.524 24.4259Z" fill="#EEF2FA"/>
<path d="M22.9492 22.7319C22.4468 22.7319 22.0384 23.141 22.0384 23.6434C22.0384 24.1458 22.4468 24.5542 22.9492 24.5542C23.4515 24.5542 23.8599 24.1458 23.8599 23.642C23.8599 23.1397 23.4509 22.7319 22.9492 22.7319Z" fill="#EEF2FA"/>
<path d="M24.5193 24.3003C24.0169 24.3003 23.6085 24.7094 23.6085 25.2118C23.6085 25.7141 24.0169 26.1226 24.5193 26.1226C25.0217 26.1226 25.4301 25.7141 25.4301 25.2104C25.4301 24.7087 25.021 24.3003 24.5193 24.3003Z" fill="#EEF2FA"/>
<path d="M37.1533 32.7448H35.8172V31.4121C35.8172 31.1619 35.7124 30.9272 35.5393 30.7582C36.1479 29.4275 36.4684 28.0691 36.4684 26.8128V15.2923C36.4684 14.7899 36.06 14.3815 35.5576 14.3815C33.6386 14.3815 32.0767 12.8243 32.0767 10.9108C32.0767 10.4084 31.6683 10 31.1659 10H16.3025C15.8001 10 15.3917 10.4084 15.3917 10.9108C15.3917 12.8243 13.8304 14.3815 11.9108 14.3815C11.4084 14.3815 11 14.7899 11 15.2923V18.4811C11 18.9835 11.4084 19.3919 11.9108 19.3919C12.4132 19.3919 12.8216 18.9835 12.8216 18.4811V16.1247C13.8879 15.9387 14.8859 15.4228 15.6581 14.652C16.4296 13.8819 16.9475 12.8859 17.1342 11.8216H22.8241V15.604C18.3256 16.0632 14.8467 19.8787 14.8467 24.4259C14.8467 28.9745 18.3256 32.7908 22.8241 33.2499V37.8383C20.1701 36.8815 17.7271 35.3054 15.9056 33.3675C13.946 31.2829 12.8216 28.894 12.8216 26.8128V23.624C12.8216 23.1216 12.4132 22.7132 11.9108 22.7132C11.4084 22.7132 11 23.1216 11 23.624V26.8128C11 29.3897 12.2705 32.1606 14.5783 34.615C16.8948 37.079 20.0511 38.977 23.4657 39.9594C23.6388 40.0128 23.8295 40.0128 24.004 39.9594C25.8134 39.4388 27.5315 38.6747 29.1144 37.6882C29.2233 37.7328 29.3409 37.7565 29.4593 37.7565H30.7974V39.0892C30.7974 39.5916 31.2058 40 31.7082 40H34.9071C35.4095 40 35.8179 39.5916 35.8179 39.0892V37.7565H37.154C37.6564 37.7565 38.0648 37.3481 38.0648 36.8457V33.6556C38.0641 33.1532 37.6557 32.7448 37.1533 32.7448ZM30.8001 24.4259C30.8001 28.3125 27.6309 31.4749 23.7349 31.4749C21.8504 31.4749 20.0761 30.7406 18.74 29.4079C17.4039 28.0752 16.6683 26.3057 16.6683 24.4259C16.6683 20.54 19.8381 17.3783 23.7349 17.3783C27.6302 17.379 30.8001 20.54 30.8001 24.4259ZM31.7075 35.9349H30.3694V34.5664H31.7075C32.2099 34.5664 32.6183 34.158 32.6183 33.6556V32.3228H33.9956V33.6556C33.9956 34.158 34.404 34.5664 34.9064 34.5664H36.2425V35.9349H34.9064C34.404 35.9349 33.9956 36.3433 33.9956 36.8457V38.1784H32.6183V36.8457C32.6183 36.3433 32.2099 35.9349 31.7075 35.9349ZM24.6456 33.2499C29.1428 32.7908 32.6217 28.9745 32.6217 24.4259C32.6217 19.8787 29.1435 16.0632 24.6456 15.604V11.8216H30.3335C30.5202 12.8859 31.0381 13.8819 31.8103 14.652C32.5824 15.4222 33.5798 15.9387 34.6461 16.1247V26.8121C34.6461 27.9697 34.2979 29.2409 33.6379 30.5006H31.7075C31.2051 30.5006 30.7967 30.909 30.7967 31.4114V32.7441H29.4586C28.9562 32.7441 28.5478 33.1525 28.5478 33.6549V35.8862C27.3327 36.6875 26.023 37.3427 24.6456 37.8376V33.2499Z" fill="#EEF2FA"/>
<path d="M11.9108 21.9633C12.4132 21.9633 12.8216 21.5549 12.8216 21.0491C12.8216 20.5474 12.4132 20.1396 11.9108 20.1396C11.4084 20.1396 11 20.5494 11 21.0525C11 21.5549 11.4084 21.9633 11.9108 21.9633Z" fill="#EEF2FA"/>
</g>
<defs>
<clipPath id="clip0_280_1178">
<rect width="27.0641" height="30" fill="white" transform="translate(11 10)"/>
</clipPath>
</defs>
</svg>
