<svg width="50" height="50" viewBox="0 0 50 50" fill="none" xmlns="http://www.w3.org/2000/svg">
<rect width="50" height="50" rx="18" fill="#1776E8"/>
<g clip-path="url(#clip0_280_1162)">
<path d="M15.2874 20.5368C15.7235 20.7023 16.1961 20.615 16.5296 20.3157H16.8362C16.9552 20.9075 17.1904 21.4736 17.5263 21.9781L17.3076 22.1967C17.0127 22.215 16.7311 22.3408 16.5198 22.5521C16.0435 23.0285 16.0435 23.8034 16.5198 24.2792L16.5278 24.2871C17.0047 24.7555 17.7736 24.7531 18.2475 24.2792C18.4588 24.0679 18.584 23.7876 18.6023 23.492L18.8215 23.2727C19.3254 23.6086 19.8921 23.8438 20.4839 23.9628V24.2688C20.1846 24.6022 20.0973 25.0749 20.2628 25.511C20.4454 25.991 20.8882 26.3 21.3908 26.3C21.3963 26.3 21.4011 26.3 21.4066 26.3C21.9117 26.3 22.3551 25.991 22.537 25.5116C22.7025 25.0755 22.6152 24.6029 22.316 24.2694V23.9628C22.9077 23.8438 23.4739 23.6086 23.9783 23.2727L24.1969 23.4914C24.2152 23.7863 24.341 24.0679 24.5524 24.2786C24.7832 24.5094 25.0898 24.6364 25.4159 24.6364C25.742 24.6364 26.0492 24.5094 26.28 24.2786C26.5109 24.0477 26.6379 23.7412 26.6379 23.415C26.6379 23.0889 26.5109 22.7824 26.28 22.5515C26.0687 22.3402 25.7884 22.215 25.4928 22.1961L25.2736 21.9768C25.6095 21.473 25.8446 20.9063 25.9637 20.3145H26.2696C26.6031 20.6138 27.0758 20.7011 27.5118 20.5356C27.9943 20.3524 28.3039 19.9053 28.3008 19.3997C28.3039 18.891 27.9943 18.4446 27.5124 18.2613C27.0764 18.0958 26.6037 18.1832 26.2702 18.4824H25.9637C25.8446 17.8906 25.6095 17.3245 25.2736 16.8201L25.4922 16.6015C25.789 16.5838 26.0651 16.4604 26.28 16.246C26.7564 15.7697 26.7564 14.9947 26.2794 14.5184C26.0486 14.2875 25.742 14.1605 25.4159 14.1605C25.0898 14.1605 24.7832 14.2875 24.5524 14.5184C24.341 14.7297 24.2159 15.01 24.1969 15.3056L23.9777 15.5248C23.4739 15.1889 22.9071 14.9532 22.3154 14.8347V14.5287C22.6146 14.1953 22.7019 13.7226 22.5364 13.2866C22.3544 12.8066 21.9111 12.4976 21.4085 12.4976C21.403 12.4976 21.3981 12.4976 21.3926 12.4976C20.8875 12.4976 20.4442 12.8066 20.2622 13.286C20.0967 13.722 20.184 14.1947 20.4833 14.5281V14.8347C19.8915 14.9538 19.3254 15.1889 18.8209 15.5248L18.6023 15.3062C18.584 15.0112 18.4582 14.7297 18.2469 14.519C18.016 14.2881 17.7095 14.1611 17.3833 14.1611C17.0609 14.1611 16.7574 14.2851 16.5271 14.511L16.5192 14.519C16.0435 14.9953 16.0435 15.7697 16.5198 16.2466C16.7342 16.4604 17.0096 16.5838 17.3064 16.6015L17.5256 16.8207C17.1898 17.3245 16.9546 17.8913 16.8356 18.483H16.5296C16.1961 18.1838 15.7235 18.0965 15.2874 18.262C14.805 18.4452 14.4954 18.8922 14.4984 19.3972C14.4954 19.9066 14.805 20.3536 15.2874 20.5368ZM18.5773 19.3942C18.5803 17.8406 19.8457 16.577 21.3999 16.577C22.9542 16.577 24.2195 17.84 24.2226 19.3942C24.1468 21.3234 22.7068 22.2022 21.3999 22.2022C20.093 22.2016 18.653 21.3234 18.5773 19.3942Z" fill="#EEF2FA"/>
<path d="M22.5413 19.2564L22.5523 19.257L22.5633 19.2564C23.1551 19.2344 23.4641 18.7788 23.4641 18.3404C23.4641 17.9019 23.1545 17.4463 22.5633 17.4243H22.5572H22.5401C21.9489 17.4463 21.6393 17.9019 21.6393 18.3404C21.6405 18.7795 21.9502 19.235 22.5413 19.2564Z" fill="#EEF2FA"/>
<path d="M20.9058 21.609L20.9168 21.6096L20.9278 21.609C21.5196 21.587 21.8286 21.1314 21.8286 20.6929C21.8286 20.2544 21.519 19.7988 20.9278 19.7769H20.9217H20.9046C20.3134 19.7988 20.0038 20.2544 20.0038 20.6929C20.005 21.132 20.3141 21.587 20.9058 21.609Z" fill="#EEF2FA"/>
<path d="M29.8538 17.7402H35.1511H35.1565C35.7483 17.7182 36.0573 17.2626 36.0573 16.8241C36.0573 16.3856 35.7477 15.9301 35.1565 15.9087H29.8648H29.8532C29.2615 15.9307 28.9525 16.3863 28.9525 16.8247C28.9531 17.2632 29.2627 17.7188 29.8538 17.7402Z" fill="#EEF2FA"/>
<path d="M29.8538 20.3159H35.1511H35.1565C35.7483 20.2939 36.0573 19.8383 36.0573 19.3998C36.0573 18.9613 35.7477 18.5057 35.1565 18.4844H29.8648H29.8532C29.2615 18.5064 28.9525 18.9619 28.9525 19.4004C28.9531 19.8383 29.2627 20.2939 29.8538 20.3159Z" fill="#EEF2FA"/>
<path d="M29.8538 22.8912H35.1511H35.1565C35.7483 22.8692 36.0573 22.4136 36.0573 21.9751C36.0573 21.5366 35.7477 21.0811 35.1565 21.0591H29.8648H29.8532C29.2615 21.0811 28.9525 21.5366 28.9525 21.9751C28.9531 22.4142 29.2627 22.8692 29.8538 22.8912Z" fill="#EEF2FA"/>
<path d="M29.8538 25.4664H35.1511H35.1565C35.7483 25.4444 36.0573 24.9888 36.0573 24.5503C36.0573 24.1119 35.7477 23.6563 35.1565 23.6343H29.8648H29.8532C29.2615 23.6563 28.9525 24.1119 28.9525 24.5503C28.9531 24.9894 29.2627 25.445 29.8538 25.4664Z" fill="#EEF2FA"/>
<path d="M29.8538 15.1646H35.1511H35.1565C35.7483 15.1426 36.0573 14.6871 36.0573 14.2486C36.0573 13.8101 35.7477 13.3545 35.1565 13.3325H29.8648H29.8532C29.2615 13.3545 28.9525 13.8101 28.9525 14.2486C28.9531 14.6877 29.2627 15.1426 29.8538 15.1646Z" fill="#EEF2FA"/>
<path d="M35.1565 26.7827H35.151H15.6111H15.5995C15.0077 26.8047 14.6987 27.2603 14.6987 27.6988C14.6987 28.1372 15.0083 28.5928 15.5995 28.6148H35.1504H35.1559C35.7477 28.5928 36.0567 28.1372 36.0567 27.6988C36.0573 27.2597 35.7483 26.8047 35.1565 26.7827Z" fill="#EEF2FA"/>
<path d="M29.8764 31.1899C30.4682 31.1679 30.7772 30.7123 30.7772 30.2738C30.7772 29.8354 30.4675 29.3798 29.8764 29.3584H15.6111H15.5995C15.0077 29.3804 14.6987 29.836 14.6987 30.2744C14.6987 30.7129 15.0083 31.1685 15.5995 31.1905H29.8703L29.8764 31.1899Z" fill="#EEF2FA"/>
<path d="M29.8764 31.9341H21.4811H21.4695C20.8777 31.9561 20.5687 32.4116 20.5687 32.8501C20.5687 33.2886 20.8784 33.7442 21.4695 33.7656H29.8709H29.8764C30.4682 33.7436 30.7772 33.288 30.7772 32.8495C30.7772 32.411 30.4676 31.9555 29.8764 31.9341Z" fill="#EEF2FA"/>
<path d="M38.7565 38.1703V10.916C38.7565 10.411 38.3455 10 37.8405 10H12.916C12.411 10 12 10.411 12 10.916V32.8493C12 33.0942 12.0953 33.3238 12.2681 33.4973L18.4991 39.7282C18.6719 39.9011 18.9021 39.9963 19.147 39.9963H29.4037V39.9994H38.7608V38.1697H38.7565V38.1703ZM18.231 33.7654V36.8689L15.1274 33.7654H18.231ZM19.147 31.9333H13.8321V11.8321H36.9244V30.8969V30.9085C36.925 30.9195 36.9257 30.9299 36.9269 30.9433V38.1703H32.9873C32.961 38.1673 32.9341 38.1655 32.9079 38.1648H20.0631V32.8499C20.0631 32.3443 19.6521 31.9333 19.147 31.9333Z" fill="#EEF2FA"/>
</g>
<defs>
<clipPath id="clip0_280_1162">
<rect width="26.7602" height="30" fill="white" transform="translate(12 10)"/>
</clipPath>
</defs>
</svg>
