<svg width="50" height="50" viewBox="0 0 50 50" fill="none" xmlns="http://www.w3.org/2000/svg">
<rect width="50" height="50" rx="18" fill="#1776E8"/>
<g clip-path="url(#clip0_280_1198)">
<path d="M13.9402 27.617H25.7402C26.1362 27.617 26.4586 27.2945 26.4586 26.8986C26.4586 26.7066 26.3839 26.5262 26.2482 26.3905C26.1126 26.2549 25.9321 26.1802 25.7402 26.1802H13.9402C13.5442 26.1802 13.2218 26.5026 13.2218 26.8986C13.2218 27.2945 13.5437 27.617 13.9402 27.617Z" fill="#FFF3F3"/>
<path d="M13.9402 30.3372H25.7402C26.1362 30.3372 26.4586 30.0148 26.4586 29.6188C26.4586 29.4268 26.3839 29.2464 26.2482 29.1107C26.1126 28.9751 25.9321 28.9004 25.7402 28.9004H13.9402C13.5442 28.9004 13.2218 29.2228 13.2218 29.6188C13.2218 30.0148 13.5437 30.3372 13.9402 30.3372Z" fill="#FFF3F3"/>
<path d="M20.5586 32.339C20.5586 31.943 20.2362 31.6206 19.8402 31.6206H13.9402C13.5442 31.6206 13.2218 31.943 13.2218 32.339C13.2218 32.735 13.5442 33.0574 13.9402 33.0574H19.8402C20.2362 33.0574 20.5586 32.735 20.5586 32.339Z" fill="#FFF3F3"/>
<path d="M37.0799 20.7402H25.2799C24.8839 20.7402 24.5615 21.0626 24.5615 21.4586C24.5615 21.8546 24.8839 22.177 25.2799 22.177H37.0799C37.4759 22.177 37.7983 21.8546 37.7983 21.4586C37.7983 21.0626 37.4764 20.7402 37.0799 20.7402Z" fill="#FFF3F3"/>
<path d="M37.0798 23.4604H31.1798C30.7839 23.4604 30.4615 23.7829 30.4615 24.1789C30.4615 24.5748 30.7839 24.8973 31.1798 24.8973H37.0798C37.4758 24.8973 37.7982 24.5748 37.7982 24.1789C37.7982 23.7829 37.4764 23.4604 37.0798 23.4604Z" fill="#FFF3F3"/>
<path d="M12.9563 13.866H21.577C21.973 13.866 22.2954 13.5436 22.2954 13.1476C22.2954 12.7516 21.973 12.4292 21.577 12.4292H12.9563C12.5603 12.4292 12.2379 12.7516 12.2379 13.1476C12.2379 13.5436 12.5598 13.866 12.9563 13.866Z" fill="#FFF3F3"/>
<path d="M12.9563 16.0213H17.2667C17.6626 16.0213 17.985 15.6988 17.985 15.3029C17.985 14.9069 17.6626 14.5845 17.2667 14.5845H12.9563C12.5603 14.5845 12.2379 14.9069 12.2379 15.3029C12.2379 15.6988 12.5598 16.0213 12.9563 16.0213Z" fill="#FFF3F3"/>
<path d="M26.6109 22.9663H13.0695C11.377 22.9663 10 24.3433 10 26.0358V33.0301C10 34.6399 11.246 35.9646 12.8247 36.0899L12.327 38.8542C12.2523 39.2692 12.4511 39.6824 12.8224 39.883C12.9684 39.9617 13.127 40.0002 13.2845 40.0002C13.5276 40.0002 13.7684 39.9088 13.954 39.7324L17.7684 36.1117C17.7764 36.1037 17.7868 36.0996 17.7983 36.0996H26.6109C28.3034 36.0996 29.6805 34.7226 29.6805 33.0301V26.0358C29.6805 25.2169 29.3609 24.4468 28.7805 23.8663C28.2 23.2858 27.4293 22.9663 26.6109 22.9663ZM14.3201 35.8927C14.3753 35.5876 14.2925 35.2755 14.0937 35.0376C13.8948 34.7996 13.6023 34.6629 13.292 34.6629H13.0695C12.1695 34.6629 11.4368 33.9307 11.4368 33.0301V26.0358C11.4368 25.1358 12.169 24.4031 13.0695 24.4031H26.6109C27.5109 24.4031 28.2437 25.1353 28.2437 26.0358V33.0301C28.2437 33.9301 27.5115 34.6629 26.6109 34.6629H17.7977C17.4167 34.6629 17.0546 34.8071 16.7787 35.0698L13.992 37.7152L14.3201 35.8927Z" fill="#FFF3F3"/>
<path d="M11.9781 18.242H15.0379L16.3333 20.4787C16.5281 20.8155 16.877 21.0167 17.2661 21.0167C17.6552 21.0167 18.004 20.8155 18.1988 20.4787L19.4942 18.242H22.554C23.6327 18.242 24.5098 17.3644 24.5098 16.2856V11.9557C24.5109 10.8776 23.6333 10 22.5546 10H11.9781C10.8994 10 10.0224 10.8776 10.0224 11.9557V12.1379C10.0224 12.5339 10.3448 12.8563 10.7408 12.8563C11.1368 12.8563 11.4592 12.5339 11.4592 12.1379V11.9557C11.4592 11.6695 11.6919 11.4362 11.9781 11.4362H22.5546C22.8408 11.4362 23.0735 11.669 23.0735 11.9552V16.2851C23.0735 16.5713 22.8408 16.804 22.5546 16.804H19.3396C18.9241 16.804 18.5373 17.027 18.3287 17.3868L17.2661 19.2213L16.2034 17.3868C15.9954 17.0276 15.608 16.804 15.1925 16.804H11.9781C11.6919 16.804 11.4592 16.5713 11.4592 16.2851V14.1529C11.4592 13.7569 11.1368 13.4345 10.7408 13.4345C10.3448 13.4345 10.0224 13.7569 10.0224 14.1529V16.2856C10.0224 17.3644 10.8994 18.242 11.9781 18.242Z" fill="#FFF3F3"/>
<path d="M39.1754 18.9123C38.6449 18.3818 37.9403 18.0898 37.192 18.0898H25.1679C23.6207 18.0898 22.3621 19.3485 22.3621 20.8956V21.6709C22.3621 22.0669 22.6845 22.3893 23.0805 22.3893C23.4765 22.3893 23.7989 22.0669 23.7989 21.6709V20.8956C23.7989 20.1404 24.4133 19.5266 25.1679 19.5266H37.192C37.9472 19.5266 38.561 20.141 38.561 20.8956V27.0249C38.561 27.7801 37.9466 28.3939 37.192 28.3939H36.9943C36.6949 28.3939 36.4127 28.5255 36.2208 28.7554C36.0288 28.9852 35.9489 29.2858 36.0018 29.5806L36.2495 30.9571L33.953 28.7772C33.6926 28.5301 33.3512 28.3939 32.9926 28.3939H30.9759C30.58 28.3939 30.2575 28.7163 30.2575 29.1123C30.2575 29.5082 30.58 29.8306 30.9759 29.8306H32.9759L36.3507 33.0341C36.5311 33.2054 36.7645 33.2939 37.0007 33.2939C37.1535 33.2939 37.3081 33.2565 37.4495 33.1801C37.8099 32.9858 38.003 32.5847 37.9306 32.1818L37.5041 29.8134C38.9053 29.6577 39.9978 28.4663 39.9978 27.0249V20.8956C39.9984 20.1473 39.7064 19.4427 39.1754 18.9123Z" fill="#FFF3F3"/>
</g>
<defs>
<clipPath id="clip0_280_1198">
<rect width="29.9983" height="30" fill="white" transform="translate(10 10)"/>
</clipPath>
</defs>
</svg>
