<svg width="20" height="20" viewBox="0 0 20 20" fill="none" xmlns="http://www.w3.org/2000/svg">
<path d="M19.0135 18.2166L14.2531 13.2666C15.4783 11.8097 16.1489 9.98069 16.1489 8.07442C16.1489 3.62296 12.5259 0 8.07443 0C3.62296 0 0 3.62296 0 8.07442C0 12.5259 3.62296 16.1488 8.07443 16.1488C9.74548 16.1488 11.3393 15.6433 12.7014 14.6884L17.4969 19.677C17.697 19.8841 17.9674 20 18.2552 20C18.5291 20 18.7888 19.8947 18.9854 19.7051C19.4032 19.3014 19.4172 18.6344 19.0135 18.2166ZM8.07443 2.10637C11.3639 2.10637 14.0425 4.78497 14.0425 8.07442C14.0425 11.3639 11.3639 14.0425 8.07443 14.0425C4.78497 14.0425 2.10637 11.3639 2.10637 8.07442C2.10637 4.78497 4.78497 2.10637 8.07443 2.10637Z" fill="#C4C4C4"/>
</svg>
