<svg width="25" height="25" viewBox="0 0 25 25" fill="none" xmlns="http://www.w3.org/2000/svg">
<path d="M24.99 5.78521C24.98 2.38021 22.605 0.00521484 19.195 0.00521484C14.735 0.000214844 10.27 0.000214844 5.81 0.00521484C2.395 0.00521484 0.015 2.37522 0.01 5.78022C0.005 10.2402 0 14.7052 0 19.1652C0 22.6052 2.38 24.9902 5.805 25.0002C8.035 25.0002 10.265 25.0002 12.5 25.0002C12.5 24.9952 12.5 24.9952 12.5 24.9902C14.675 24.9902 16.855 24.9652 19.03 24.9952C22.535 25.0502 25 22.6752 25 19.1702C25 14.7102 24.995 10.2452 24.99 5.78521ZM23.24 15.2652C23.24 15.3352 23.22 15.4052 23.2 15.5252C20.895 14.9252 18.615 14.9552 16.29 15.7252C17.98 17.9552 18.95 20.4202 19.14 23.2102C18.73 23.2102 18.375 23.2102 18 23.2102C17.58 19.2302 15.83 16.0352 12.52 13.7952C9.235 11.5702 5.635 11.1102 1.845 12.1702C1.805 12.1102 1.77 12.0802 1.77 12.0502C1.77 9.76521 1.68 7.48022 1.805 5.20021C1.915 3.16521 3.545 1.76021 5.595 1.75521C10.2 1.74021 14.805 1.73521 19.41 1.75521C21.555 1.76521 23.2 3.34021 23.23 5.47521C23.275 8.74022 23.245 12.0002 23.24 15.2652Z" fill="#1776E8"/>
<path d="M17.165 3.49043C15.415 3.47043 13.925 4.96043 13.945 6.71043C13.96 8.46043 15.4 9.88543 17.15 9.88543C18.9 9.88543 20.335 8.45043 20.335 6.70043C20.34 4.94543 18.915 3.50543 17.165 3.49043Z" fill="#1776E8"/>
</svg>
