<svg width="50" height="50" viewBox="0 0 50 50" fill="none" xmlns="http://www.w3.org/2000/svg">
<rect width="50" height="50" rx="18" fill="#1776E8"/>
<g clip-path="url(#clip0_562_2792)">
<path d="M22.837 34.9968C19.5858 35.0032 16.341 35.0032 13.0898 35.0032C11.5986 35.0032 11.0034 34.4144 11.0034 32.936C11.0034 26.312 11.0034 19.688 11.0034 13.0704C11.0034 11.6176 11.5986 11.0096 13.0322 11.0096C17.9026 11.0096 22.7794 11.0096 27.6498 11.0096C29.0514 11.0096 29.653 11.6112 29.653 13.0256C29.653 15.944 29.653 18.856 29.653 21.7744C29.653 22.6 30.037 23.0608 30.6898 23.048C31.3106 23.0352 31.6562 22.5936 31.6562 21.7808C31.6562 18.8048 31.6626 15.8224 31.6562 12.8464C31.6498 10.5424 30.1074 9.0064 27.8098 9.0064C22.837 9 17.8578 9 12.885 9C10.5554 9.0064 9.00659 10.5552 9.00019 12.8784C9.00019 16.2512 9.00019 19.624 9.00019 23.0032C9.00019 26.4208 8.99379 29.832 9.00019 33.2496C9.00659 35.4064 10.5874 36.9872 12.7506 37.0064C14.0434 37.0128 15.3298 37.0064 16.6226 37.0064C18.7026 37.0064 20.789 37.0128 22.869 37.0064C23.6882 37.0064 24.1938 36.4368 23.989 35.7456C23.829 35.1696 23.4002 34.9968 22.837 34.9968Z" fill="white"/>
<path d="M40.4624 39.0419C40.1232 38.7027 39.784 38.3635 39.4448 38.0243C38.6512 37.2307 37.8576 36.4435 37.0768 35.6691C39.0352 31.7011 38.5168 28.4499 35.624 26.2995C33.032 24.3795 29.4096 24.6035 27.08 26.8307C24.7184 29.09 24.3152 32.6291 26.1072 35.3299C27.0032 36.6867 28.2384 37.6019 29.7936 38.0499C31.88 38.6579 33.8192 38.2548 35.6176 37.0516C35.7968 37.2244 35.9504 37.3651 36.0976 37.5123C37.0832 38.4979 38.0688 39.4835 39.0608 40.4691C39.6624 41.0707 40.232 41.1476 40.6928 40.706C41.1664 40.258 41.0896 39.6755 40.4624 39.0419ZM31.6432 36.3412C29.0896 36.322 27.0096 34.2227 27.0032 31.6755C26.9968 29.1219 29.0832 27.0163 31.6304 27.0035C34.216 26.9907 36.3344 29.0899 36.3408 31.6627C36.3472 34.2227 34.2032 36.3604 31.6432 36.3412Z" fill="white"/>
<path d="M26.3632 21.6531C26.6256 21.6531 26.9136 21.6274 27.144 21.5186C27.592 21.301 27.7392 20.8787 27.6176 20.4115C27.464 19.8419 27.0224 19.6562 26.472 19.6562C22.3952 19.6562 18.3184 19.6562 14.2352 19.6562C13.4608 19.6562 12.9936 20.0595 13 20.6739C13.0064 21.2947 13.4544 21.6531 14.2544 21.6595C16.2704 21.6659 18.2928 21.6595 20.3088 21.6595C22.3312 21.6595 24.3472 21.6659 26.3632 21.6531Z" fill="white"/>
<path d="M17.6912 25C16.5456 25 15.4 25 14.2544 25C13.4608 25 13.0128 25.3648 13.0064 25.992C13 26.6192 13.4608 26.9968 14.2416 27.0032C16.5328 27.0096 18.824 27.0096 21.1152 27.0032C21.8768 27.0032 22.3568 26.5936 22.344 25.9792C22.3248 25.3904 21.864 25.0064 21.1344 25.0064C19.9824 25 18.8368 25 17.6912 25Z" fill="white"/>
<path d="M14.1008 16.3404C16.0336 16.3596 17.9664 16.3596 19.8928 16.3404C20.5648 16.334 21.0064 15.8988 21 15.3228C20.9936 14.7404 20.5584 14.3564 19.8736 14.3436C18.92 14.3308 17.96 14.3436 17.0064 14.3436C16.0528 14.3436 15.0928 14.3372 14.1392 14.3436C13.4416 14.35 13.0128 14.7276 13 15.31C12.9936 15.8924 13.4352 16.334 14.1008 16.3404Z" fill="white"/>
</g>
<defs>
<clipPath id="clip0_562_2792">
<rect width="32" height="32" fill="white" transform="translate(9 9)"/>
</clipPath>
</defs>
</svg>
