<svg width="50" height="50" viewBox="0 0 50 50" fill="none" xmlns="http://www.w3.org/2000/svg">
<rect width="50" height="50" rx="18" fill="#1776E8"/>
<g clip-path="url(#clip0_562_2912)">
<path d="M25.0029 10C16.7333 10 10.0239 16.69 9.99994 24.952C9.97594 33.244 16.6793 39.982 24.9669 40C33.2606 40.018 39.9879 33.304 39.9999 25.018C40.0059 16.726 33.2906 10 25.0029 10ZM24.9669 38.242C17.6875 38.224 11.7523 32.272 11.7583 24.982C11.7643 17.698 17.7115 11.758 25.0029 11.758C32.3124 11.758 38.2596 17.728 38.2416 25.042C38.2176 32.326 32.2584 38.254 24.9669 38.242Z" fill="white"/>
<path d="M31.6703 26.1037C30.5541 25.0357 29.1378 25.0357 28.0156 26.1037C27.7396 26.3677 27.5175 26.6857 27.2895 26.9557C25.8312 25.4977 24.4929 24.1657 23.0286 22.7017C23.3647 22.4077 23.7248 22.1617 24.0128 21.8437C24.907 20.8537 24.931 19.4797 24.0428 18.4957C23.4427 17.8297 22.8066 17.1937 22.1404 16.5937C21.1982 15.7537 19.902 15.7477 18.9298 16.5517C18.5097 16.8997 18.1556 17.3257 17.7476 17.6797C16.0852 19.1197 15.8092 20.9317 16.3013 22.9477C16.9374 25.5517 18.3897 27.6757 20.2381 29.5477C22.1704 31.5037 24.3789 33.0517 27.1034 33.7057C28.7178 34.0897 30.2961 34.0537 31.6343 32.8837C32.2225 32.3737 32.7686 31.8097 33.2967 31.2337C34.2989 30.1417 34.2689 28.7377 33.2427 27.6637C32.7326 27.1417 32.2045 26.6137 31.6703 26.1037ZM31.9644 30.0997C31.5203 30.5677 31.0582 31.0177 30.6021 31.4677C30.068 31.9957 29.4019 32.1697 28.6697 32.1577C27.1694 32.0857 25.8192 31.5397 24.5649 30.7537C21.6843 28.9597 19.4759 26.5837 18.2517 23.3797C18.0776 22.9297 17.9696 22.4437 17.8976 21.9637C17.7296 20.8657 17.9216 19.8697 18.8278 19.0957C19.2119 18.7657 19.5479 18.3817 19.908 18.0277C20.2981 17.6497 20.7001 17.6317 21.0962 18.0097C21.6303 18.5257 22.1584 19.0477 22.6685 19.5877C23.0226 19.9537 23.0226 20.3557 22.6625 20.7277C22.2185 21.1897 21.7444 21.6337 21.3003 22.1017C20.8262 22.5937 20.8142 23.0497 21.3003 23.5357C23.0166 25.2697 24.745 26.9917 26.4793 28.7137C26.9594 29.1877 27.4155 29.1697 27.9136 28.6957C28.3337 28.2877 28.7418 27.8677 29.1618 27.4537C29.6659 26.9617 30.026 26.9497 30.5181 27.4237C31.0102 27.8977 31.4963 28.3777 31.9644 28.8757C32.3725 29.3077 32.3785 29.6617 31.9644 30.0997Z" fill="white"/>
</g>
<defs>
<clipPath id="clip0_562_2912">
<rect width="30" height="30" fill="white" transform="translate(10 10)"/>
</clipPath>
</defs>
</svg>
