<svg width="50" height="50" viewBox="0 0 50 50" fill="none" xmlns="http://www.w3.org/2000/svg">
<rect width="50" height="50" rx="18" fill="#1776E8"/>
<g clip-path="url(#clip0_562_2788)">
<path d="M36.6178 25.7382C35.8193 22.6055 34.3178 20.401 32.0177 18.9883C31.9631 18.9541 31.8676 18.7357 31.8608 18.5515C31.8539 17.2957 31.8539 16.0467 31.8539 14.7909C31.8539 13.576 31.8539 12.368 31.8471 11.1532C31.8335 9.37865 30.5504 8.03413 28.8714 8.02048C25.1791 7.99317 21.3844 7.99317 17.2757 8.02048C15.6582 8.03413 14.3478 9.3377 14.2932 10.9962C14.2795 11.3852 14.2795 11.7674 14.2795 12.1496V17.6506C13.0988 18.0601 12.3958 18.6061 12.1297 19.3363C11.8703 20.0461 12.0409 20.8993 12.6484 21.9298C11.7748 23.015 11.7748 24.1889 12.6484 25.3423C11.7884 26.5504 11.7816 27.3898 12.6415 28.7275C12.0205 29.5261 11.843 30.4884 12.1638 31.3347C12.4846 32.1878 13.2694 32.7952 14.2795 32.9932C14.6617 34.9247 15.781 35.8256 17.7944 35.8324L18.3814 35.8392C18.8728 35.846 19.3778 35.846 19.876 35.8256C20.149 35.8119 20.2309 35.8733 20.3197 36.1532C20.8315 37.7502 21.3707 39.3609 21.9031 40.917L21.9577 41.0808C22.333 42.1933 22.9609 42.6437 24.128 42.6437C25.9094 42.6437 27.6839 42.6437 29.4652 42.6437C30.9326 42.6437 32.3931 42.6437 33.8537 42.6437C34.6931 42.6437 35.3688 42.3571 35.751 41.8384C36.1127 41.347 36.181 40.7054 35.9558 39.9752C35.3483 38.0232 35.3825 36.5081 36.0718 35.0543C36.1264 34.9451 36.1469 34.8291 36.1673 34.7267L36.1878 34.6175C36.9659 31.3279 37.3412 28.5637 36.6178 25.7382ZM33.997 36.0508C33.7376 37.0336 33.7172 37.8731 33.9287 38.6716C34.0516 39.122 34.1608 39.5725 34.27 40.0298L34.3314 40.2755C34.427 40.6645 34.3997 40.8078 34.3587 40.8556C34.3178 40.9102 34.1813 40.9716 33.7718 40.9716C32.9186 40.9784 32.0723 40.9784 31.2192 40.9784L28.5302 40.9716C27.1037 40.9648 25.6705 40.9648 24.2441 40.9853C23.7663 40.9921 23.582 40.8556 23.4387 40.3983C23.077 39.2312 22.688 38.0778 22.2989 36.9039L21.944 35.846H27.0355L27.3358 36.7879C27.445 37.1291 27.6361 37.368 27.8681 37.4636C28.0046 37.5182 28.2162 37.5455 28.4756 37.4021C28.769 37.2315 28.9874 36.6514 28.8782 36.3101C28.107 33.8327 28.5029 31.635 30.0931 29.6011C31.2533 28.1133 31.5809 26.332 31.0486 24.4551C30.6664 23.1174 29.7177 22.353 28.3118 22.2506C26.6601 22.1346 25.2542 21.7592 24.012 21.104C23.4251 20.7969 23.193 20.3328 23.3978 19.8687C23.5411 19.5479 23.8004 19.2681 24.7491 19.4524C25.7524 19.6435 27.0014 19.8823 28.2162 19.855C30.3934 19.8141 32.0519 20.6604 33.3827 22.5441C35.1026 24.9874 35.6691 27.8062 35.1368 31.1709C34.8911 32.7065 34.4816 34.2422 34.0857 35.73L33.997 36.0508ZM25.9571 11.9244C27.0491 11.8971 27.7999 11.1259 27.8613 9.95195L27.875 9.7199C27.9637 9.7199 28.0592 9.71308 28.148 9.71308C28.496 9.69943 28.8305 9.68578 29.1376 9.74038C29.7314 9.84958 30.1204 10.2454 30.1272 10.7505C30.1682 12.6547 30.1613 14.5861 30.1545 16.4494C30.1545 17.0568 30.1477 17.6574 30.1477 18.258C29.9634 18.258 29.7791 18.2648 29.5949 18.2648C29.0011 18.2785 28.4414 18.2853 27.8818 18.2375C26.7079 18.1351 25.8343 18.0055 25.0426 17.8075C23.6435 17.4526 22.3672 18.0259 21.8689 19.2203C21.3571 20.442 21.8485 21.8002 23.0429 22.4485C24.5921 23.288 26.2233 23.7589 27.9023 23.8477C29.0079 23.9091 29.4993 24.3732 29.5949 25.4584C29.6972 26.6186 29.4106 27.697 28.7076 28.748C28.2503 29.4305 27.8545 30.1472 27.4245 30.9047C27.2539 31.205 27.0833 31.519 26.899 31.8329H17.7808C17.7876 31.8124 17.7944 31.7988 17.8012 31.7783C17.9446 31.4507 18.1015 31.1163 18.1425 30.7477C18.1903 30.3655 18.122 29.9765 18.0606 29.6626C18.0469 29.5807 18.0333 29.5124 18.0196 29.4373C18.1357 29.2667 18.2653 29.1029 18.3882 28.9391C18.709 28.5091 19.0434 28.0655 19.2413 27.5673C19.5143 26.8575 19.33 26.1067 18.6953 25.3287C19.7054 23.5405 19.487 22.3598 17.9446 21.3429C18.3882 19.9506 18.1766 18.9951 17.2621 18.2375C17.0573 18.0669 16.8048 17.8621 16.5181 17.8417C15.9312 17.8144 15.9039 17.5823 15.9175 16.9135L15.9312 16.1286C15.9517 14.6885 15.979 13.1938 15.9107 11.7265C15.8766 10.9348 16.054 10.3546 16.4294 10.027C16.8116 9.6926 17.4259 9.59023 18.2449 9.70625C18.2517 9.8018 18.2653 9.90418 18.2722 9.99973C18.3404 11.1395 19.0843 11.8903 20.1559 11.9176C22.0737 11.9653 24.0257 11.9653 25.9571 11.9244ZM14.5116 22.7557C14.6617 22.7488 14.8119 22.742 14.9552 22.742C15.0781 22.742 15.2009 22.742 15.3169 22.742H15.6855L16.0199 22.7352C16.2793 22.7284 16.5454 22.7284 16.8048 22.742C17.303 22.7693 17.6306 23.0696 17.6647 23.5337C17.6852 23.7862 17.6101 24.0251 17.46 24.1957C17.3235 24.3527 17.1324 24.4483 16.914 24.4619C16.1155 24.5165 15.276 24.5165 14.4229 24.4687C14.143 24.4483 13.9588 24.3118 13.8632 24.1957C13.7131 24.0251 13.638 23.7862 13.6516 23.5542C13.6926 23.1106 14.0338 22.783 14.5116 22.7557ZM15.6718 21.0699C15.5285 21.0767 15.3784 21.0767 15.235 21.0699H15.0235H14.8392C14.73 21.0699 14.6208 21.0767 14.5116 21.0631C14.0202 21.0221 13.6585 20.6604 13.6585 20.1963C13.6585 19.7458 13.9997 19.3705 14.4502 19.3295C14.8597 19.2954 15.2896 19.2954 15.7333 19.3295C16.211 19.3705 16.5659 19.7527 16.5523 20.2236C16.5386 20.7013 16.1837 21.0426 15.6718 21.0699ZM13.8427 26.4685C13.9724 26.2978 14.1635 26.1955 14.3683 26.175C15.2487 26.1136 16.1291 26.1136 16.9822 26.175C17.4736 26.2091 17.7057 26.6732 17.6716 27.0827C17.6374 27.5468 17.3098 27.8471 16.8116 27.8744C16.5454 27.8881 16.2724 27.8812 15.9994 27.8812H15.6241H15.2623C15.0098 27.8812 14.7573 27.8881 14.5116 27.8744C14.027 27.8471 13.6858 27.5332 13.6585 27.0759C13.6448 26.8643 13.7131 26.6391 13.8427 26.4685ZM14.5594 29.567C14.6276 29.567 14.7027 29.5602 14.7709 29.5602C14.8324 29.5602 14.8938 29.5602 14.9552 29.5602H15.1463C15.7606 29.5397 16.1496 29.6694 16.3612 29.881C16.4908 30.0175 16.5523 30.2017 16.5454 30.4474C16.5386 30.6863 16.525 31.3142 15.16 31.3142H14.9689C14.8187 31.3142 14.6686 31.3211 14.5184 31.3074C14.0134 31.2665 13.6585 30.9047 13.6516 30.4406C13.6516 29.956 14.027 29.6011 14.5594 29.567ZM16.484 33.3549C17.03 33.4368 17.5965 33.5255 18.163 33.5324C20.1286 33.5597 22.1283 33.5528 24.0598 33.5528H26.7966V34.1398C26.7557 34.1466 26.7147 34.1534 26.6806 34.1534H25.0358C22.5173 34.1534 19.9989 34.1603 17.4873 34.1534C16.9413 34.1534 16.2929 33.9965 16.0745 33.3071C16.211 33.314 16.3475 33.3344 16.484 33.3549ZM26.1687 10.1362C26.1209 10.2045 26.0322 10.2523 25.9094 10.2659C25.8206 10.2796 25.7387 10.2796 25.65 10.2796H25.5476H24.5512C23.2203 10.2796 21.8962 10.2796 20.5654 10.2796C20.3538 10.2796 20.0944 10.2659 20.0125 10.184C19.9443 10.1089 19.9306 9.89735 19.9306 9.6653H22.6948C23.7595 9.6653 24.8174 9.65848 25.8821 9.67895C25.9844 9.67895 26.1687 9.78133 26.1892 9.8018C26.2301 9.94513 26.2165 10.0612 26.1687 10.1362Z" fill="white"/>
</g>
<defs>
<clipPath id="clip0_562_2788">
<rect width="25" height="34.6369" fill="white" transform="translate(12 8)"/>
</clipPath>
</defs>
</svg>
