<svg width="50" height="50" viewBox="0 0 50 50" fill="none" xmlns="http://www.w3.org/2000/svg">
<rect width="50" height="50" rx="18" fill="url(#paint0_linear_91_66)"/>
<g clip-path="url(#clip0_91_66)" filter="url(#filter0_d_91_66)">
<path d="M37.738 25.2521C36.892 24.4297 35.764 24.0756 34.81 23.4273C34.72 23.4213 34.642 23.4093 34.564 23.3913C33.52 24.5018 32.602 25.7203 31.834 27.0648C31.672 27.3529 31.51 27.617 31.132 27.623C30.754 27.623 30.586 27.3589 30.424 27.0708C29.278 25.042 27.79 23.3073 26.026 21.7827C24.22 20.2221 23.218 18.3433 23.122 16.1824C22.978 16.1044 22.828 16.0444 22.648 16.0444C22.612 15.9183 22.546 15.8343 22.396 15.8943C22.144 15.8883 22.024 16.0504 21.928 16.2485C21.268 16.2365 20.776 15.9183 20.398 15.4021C19.912 14.2737 19.264 14.0276 18.304 14.4117C17.602 14.6938 17.584 15.3361 17.278 15.8283C16.252 15.9243 15.538 15.2881 14.788 14.7539C14.044 14.2977 14.068 15.072 13.804 15.3721C13.522 15.4982 13.144 15.2401 12.916 15.5882C12.82 16.2005 12.202 16.4165 11.926 16.8967C11.866 16.9387 11.8 16.9748 11.74 17.0168C11.422 17.1728 11.014 17.1368 10.798 17.491C10.372 17.515 9.79001 17.7851 10.072 18.1032C10.48 18.5654 10.336 19.2437 10.852 19.5918C10.924 19.5918 11.002 19.5858 11.074 19.5858C11.224 19.6158 11.368 19.6398 11.518 19.6698C12.022 19.6758 12.454 19.5438 12.646 19.0156C13.138 18.9375 13.63 18.8655 14.122 18.7875C14.14 18.6254 14.164 18.4694 14.182 18.3073C14.368 18.1452 14.554 17.9892 14.74 17.8271C14.872 17.8391 14.998 17.8511 15.13 17.8571C15.082 18.5054 15.964 18.5894 15.964 19.2137C14.482 19.4898 14.23 19.8079 14.38 21.1944C14.332 21.2365 14.326 21.2845 14.368 21.3385C14.296 21.3565 14.23 21.3805 14.17 21.4105C14.212 21.8427 13.936 22.527 14.848 22.2869C15.16 22.473 15.478 22.659 15.79 22.8391C16.06 22.9592 16.33 23.0312 16.624 22.9171C16.834 22.9652 17.038 23.0132 17.248 23.0612C17.32 23.1092 17.392 23.1572 17.464 23.2113C17.524 23.4634 17.932 23.4153 17.926 23.7275C18.058 23.7695 18.196 23.8115 18.328 23.8475C19.39 23.7335 20.068 24.4478 20.824 24.994C20.818 25.042 20.818 25.096 20.824 25.144C20.608 25.2281 20.53 25.3541 20.686 25.5642C20.668 25.6242 20.638 25.6842 20.632 25.7443C20.632 25.7503 20.632 25.7503 20.632 25.7563C20.572 25.6782 20.488 25.6962 20.392 25.7983C20.194 25.9003 20.002 25.9964 19.804 26.0984C19.678 26.4465 19.216 26.8787 20.074 26.9568C20.332 26.9808 20.572 27.1848 20.818 27.3049C21.328 27.689 21.784 28.0492 22.546 27.9532C23.08 27.8871 23.686 28.1212 24.136 28.6374C24.778 29.3757 23.578 29.3397 23.716 29.8259C22.972 30.6182 23.338 31.3565 23.818 32.0888C23.818 32.7191 24.316 32.8271 24.76 32.9892C24.862 33.2473 24.958 33.5054 25.276 33.1872C25.414 33.3073 25.552 33.4213 25.684 33.5414C25.816 34.1656 26.086 34.7539 25.822 35.4381C25.702 35.7503 25.804 36.1764 26.17 36.3745C26.476 36.5426 26.518 36.1764 26.59 36.0564C27.232 34.9279 27.448 35.7083 27.712 36.2905C28.078 37.3829 28.93 37.2089 29.662 36.8907C29.986 36.7527 30.226 36.8187 30.31 36.9387C30.85 37.695 31.432 38.2953 32.296 38.7755C32.902 39.1116 33.262 39.9279 34.162 39.8079C34.312 39.8739 34.462 39.9399 34.612 40C34.66 39.964 34.702 39.976 34.732 40.018C36.154 39.7659 34.882 38.9976 35.02 38.4994C34.63 37.9051 35.272 37.611 35.41 37.1728C35.224 36.9688 35.26 36.7407 35.338 36.5066C35.158 35.9063 35.41 35.3241 35.434 34.7359C35.206 34.3937 35.296 34.1536 35.674 34.0096C35.884 33.1572 35.812 32.2209 36.91 31.7647C37.252 31.6266 37.36 30.8043 37.468 30.2761C37.54 29.9459 37.606 29.6398 37.798 29.3577C37.84 29.0276 37.888 28.7035 37.93 28.3733C38.038 28.0672 38.206 27.8271 38.572 27.8211C38.65 27.617 38.836 27.635 38.998 27.605C38.986 27.1248 39.082 26.7227 39.658 26.6566C39.766 26.3025 39.874 25.9484 39.982 25.5942C39.232 25.5522 38.44 25.7083 37.738 25.2521Z" fill="url(#paint1_linear_91_66)"/>
<path d="M30.802 10.006C33.916 9.83192 36.82 12.2809 37.168 15.3121C37.426 17.575 36.67 19.4298 34.948 20.9004C33.622 22.0348 32.524 23.3553 31.666 24.8739C31.54 25.09 31.414 25.3001 31.126 25.3001C30.838 25.3001 30.706 25.096 30.586 24.8799C29.704 23.3253 28.564 21.9928 27.208 20.8223C25.36 19.2257 24.61 17.1969 25.138 14.8079C25.66 12.425 27.184 10.9004 29.53 10.2101C29.752 10.144 29.986 10.102 30.214 10.066C30.43 10.03 30.652 10.024 30.802 10.006ZM31.12 18.6915C32.506 18.6975 33.658 17.563 33.664 16.1765C33.676 14.7659 32.542 13.6134 31.144 13.6074C29.734 13.6014 28.588 14.7359 28.582 16.1344C28.576 17.539 29.716 18.6855 31.12 18.6915Z" fill="url(#paint2_linear_91_66)"/>
</g>
<defs>
<filter id="filter0_d_91_66" x="5" y="8" width="40" height="40" filterUnits="userSpaceOnUse" color-interpolation-filters="sRGB">
<feFlood flood-opacity="0" result="BackgroundImageFix"/>
<feColorMatrix in="SourceAlpha" type="matrix" values="0 0 0 0 0 0 0 0 0 0 0 0 0 0 0 0 0 0 127 0" result="hardAlpha"/>
<feOffset dy="3"/>
<feGaussianBlur stdDeviation="2.5"/>
<feComposite in2="hardAlpha" operator="out"/>
<feColorMatrix type="matrix" values="0 0 0 0 0 0 0 0 0 0 0 0 0 0 0 0 0 0 0.1 0"/>
<feBlend mode="normal" in2="BackgroundImageFix" result="effect1_dropShadow_91_66"/>
<feBlend mode="normal" in="SourceGraphic" in2="effect1_dropShadow_91_66" result="shape"/>
</filter>
<linearGradient id="paint0_linear_91_66" x1="4" y1="46.5" x2="46.5" y2="4" gradientUnits="userSpaceOnUse">
<stop stop-color="#42BC08"/>
<stop offset="1" stop-color="#9FFF9D"/>
</linearGradient>
<linearGradient id="paint1_linear_91_66" x1="26.5" y1="18.9672" x2="26.5" y2="34.851" gradientUnits="userSpaceOnUse">
<stop stop-color="white"/>
<stop offset="1" stop-color="#C3FFB0"/>
</linearGradient>
<linearGradient id="paint2_linear_91_66" x1="31.7117" y1="12.8022" x2="31.7117" y2="22.2325" gradientUnits="userSpaceOnUse">
<stop stop-color="white"/>
<stop offset="1" stop-color="#C3FFB0"/>
</linearGradient>
<clipPath id="clip0_91_66">
<rect width="30" height="30" fill="white" transform="translate(10 10)"/>
</clipPath>
</defs>
</svg>
