<svg width="50" height="50" viewBox="0 0 50 50" fill="none" xmlns="http://www.w3.org/2000/svg">
<rect width="50" height="50" rx="18" fill="url(#paint0_linear_237_931)"/>
<g clip-path="url(#clip0_237_931)" filter="url(#filter0_d_237_931)">
<path d="M25.9 38.2001C25.9 37.9601 25.9 37.7201 25.9 37.4801C25.9 32.2601 25.9 27.1001 25.9 21.8801C25.9 20.8001 26.14 20.5601 27.22 20.5601C28.12 20.5601 28.96 20.5601 29.86 20.5601C30.94 20.5601 31.24 20.8001 31.24 21.8801C31.24 27.1001 31.24 32.2601 31.24 37.4801C31.24 37.7201 31.24 37.9601 31.24 38.2001C31.84 38.2001 32.38 38.2001 32.98 38.2001C32.98 37.9601 32.98 37.7201 32.98 37.5401C32.98 31.1801 32.98 24.7601 32.98 18.4001C32.98 17.3201 33.22 17.0801 34.3 17.0801C35.2 17.0801 36.04 17.0801 36.94 17.0801C38.02 17.0801 38.32 17.3201 38.32 18.4001C38.32 24.7601 38.32 31.1201 38.32 37.4801C38.32 37.7201 38.32 37.9601 38.32 38.2601C38.68 38.2601 38.92 38.2601 39.22 38.2601C39.7 38.3201 40.06 38.6801 40.06 39.1001C40.06 39.5801 39.7 39.9401 39.22 40.0001C39.04 40.0001 38.92 40.0001 38.74 40.0001C29.62 40.0001 20.5 40.0001 11.38 40.0001C11.2 40.0001 11.08 40.0001 10.9 40.0001C10.36 39.9401 10 39.5801 10 39.1001C10 38.6201 10.36 38.2601 10.84 38.2001C11.14 38.2001 11.38 38.2001 11.74 38.2001C11.74 37.9601 11.74 37.7801 11.74 37.5401C11.74 34.6601 11.74 31.7201 11.74 28.8401C11.74 27.8801 11.98 27.6401 12.94 27.6401C13.96 27.6401 14.92 27.6401 15.94 27.6401C16.72 27.6401 17.02 27.9401 17.02 28.7201C17.02 31.6001 17.02 34.5401 17.02 37.4201C17.02 37.6601 17.02 37.8401 17.02 38.1401C17.62 38.1401 18.16 38.1401 18.76 38.1401C18.76 37.9001 18.76 37.7201 18.76 37.4801C18.76 33.4601 18.76 29.4401 18.76 25.4201C18.76 24.3401 19 24.1001 20.08 24.1001C20.98 24.1001 21.82 24.1001 22.72 24.1001C23.8 24.1001 24.04 24.3401 24.04 25.4201C24.04 29.4401 24.04 33.4601 24.04 37.4801C24.04 37.7201 24.04 37.9601 24.04 38.2001C24.7 38.2001 25.24 38.2001 25.9 38.2001Z" fill="url(#paint1_linear_237_931)"/>
<path d="M34.96 11.74C34.6 11.74 34.18 11.74 33.82 11.74C33.28 11.74 32.98 11.38 32.98 10.9C32.98 10.42 33.34 10 33.88 10C35.08 10 36.22 10 37.42 10C37.96 10 38.32 10.36 38.32 10.9C38.32 12.1 38.32 13.24 38.32 14.44C38.32 14.98 37.9 15.34 37.42 15.28C36.94 15.28 36.64 14.92 36.58 14.38C36.58 14.14 36.58 13.96 36.58 13.72C36.58 13.54 36.58 13.3 36.58 13.06C36.46 13.12 36.4 13.12 36.4 13.12C31.9 16.78 26.68 19 21.16 20.5C17.92 21.4 14.8 21.94 11.62 22.3C11.38 22.3 11.2 22.36 10.96 22.36C10.42 22.36 10.06 22.06 10 21.64C9.94 21.16 10.24 20.74 10.78 20.68C11.56 20.56 12.34 20.5 13.18 20.38C19.6 19.48 25.72 17.8 31.36 14.5C32.62 13.72 33.82 12.82 35.08 12.04C35.08 11.92 35.02 11.8 34.96 11.74Z" fill="url(#paint2_linear_237_931)"/>
</g>
<defs>
<filter id="filter0_d_237_931" x="5" y="8" width="40" height="40" filterUnits="userSpaceOnUse" color-interpolation-filters="sRGB">
<feFlood flood-opacity="0" result="BackgroundImageFix"/>
<feColorMatrix in="SourceAlpha" type="matrix" values="0 0 0 0 0 0 0 0 0 0 0 0 0 0 0 0 0 0 127 0" result="hardAlpha"/>
<feOffset dy="3"/>
<feGaussianBlur stdDeviation="2.5"/>
<feComposite in2="hardAlpha" operator="out"/>
<feColorMatrix type="matrix" values="0 0 0 0 0 0 0 0 0 0 0 0 0 0 0 0 0 0 0.1 0"/>
<feBlend mode="normal" in2="BackgroundImageFix" result="effect1_dropShadow_237_931"/>
<feBlend mode="normal" in="SourceGraphic" in2="effect1_dropShadow_237_931" result="shape"/>
</filter>
<linearGradient id="paint0_linear_237_931" x1="4" y1="46.5" x2="46.5" y2="4" gradientUnits="userSpaceOnUse">
<stop stop-color="#BC0833"/>
<stop offset="1" stop-color="#FFB1BF"/>
</linearGradient>
<linearGradient id="paint1_linear_237_931" x1="25.03" y1="17.0801" x2="25.03" y2="40.0001" gradientUnits="userSpaceOnUse">
<stop stop-color="white"/>
<stop offset="1" stop-color="#FFD4DD"/>
</linearGradient>
<linearGradient id="paint2_linear_237_931" x1="24.1562" y1="10" x2="24.1562" y2="22.36" gradientUnits="userSpaceOnUse">
<stop stop-color="white"/>
<stop offset="1" stop-color="#FFD4DD"/>
</linearGradient>
<clipPath id="clip0_237_931">
<rect width="30" height="30" fill="white" transform="translate(10 10)"/>
</clipPath>
</defs>
</svg>
