<svg width="50" height="50" viewBox="0 0 50 50" fill="none" xmlns="http://www.w3.org/2000/svg">
<rect width="50" height="50" rx="18" fill="url(#paint0_linear_237_930)"/>
<g clip-path="url(#clip0_237_930)" filter="url(#filter0_d_237_930)">
<path d="M40 13.3002C40 12.8802 39.82 12.7002 39.4 12.7002C37 12.7002 34.54 12.7002 32.14 12.7002C31.72 12.7002 31.48 12.9402 31.48 13.3602C31.48 15.9402 31.48 18.5202 31.48 21.1602C31.48 21.5802 31.72 21.8202 32.14 21.8202C32.56 21.8202 32.98 21.8202 33.4 21.8202C33.94 21.8202 34.18 22.0602 34.18 22.6002C34.18 22.9002 34.18 23.2002 34.18 23.5002C34.24 23.5002 34.3 23.5602 34.36 23.5602C34.78 23.1402 35.2 22.6002 35.68 22.2402C35.98 22.0002 36.4 21.8202 36.76 21.7602C37.66 21.7002 38.5 21.7602 39.4 21.7602C39.82 21.7602 40.06 21.5802 40.06 21.1002C40 18.5202 40 15.8802 40 13.3002ZM38.44 19.4802C38.44 20.6202 37.78 21.2202 36.64 21.2802C35.98 21.2802 35.32 21.2802 34.72 21.2802C33.76 21.2802 33.1 20.6202 33.1 19.6602C33.1 18.7602 33.1 17.9202 33.1 17.0202C33.1 16.0002 33.1 16.0002 34.18 15.8802C34.18 15.5802 34.18 15.2202 34.18 14.9202C34.24 13.9602 34.9 13.2402 35.8 13.2402C36.7 13.2402 37.36 13.9602 37.42 14.9802C37.42 15.2802 37.42 15.5802 37.42 15.8802C38.5 16.0602 38.5 16.0602 38.5 17.0802C38.44 17.8602 38.44 18.6402 38.44 19.4802Z" fill="url(#paint1_linear_237_930)"/>
<path d="M28.5999 12.8203C28.1199 10.7203 25.9599 9.52027 23.9199 10.1203C21.8799 10.7803 20.7399 12.8803 21.5199 14.8603C21.9999 16.0603 22.7199 17.2003 23.3199 18.3403C23.7999 19.1803 24.3399 19.9603 24.9399 20.8003C26.3799 18.7003 27.8199 16.7203 28.5399 14.3803C28.7799 13.9603 28.7199 13.3603 28.5999 12.8203ZM24.3999 13.7203C24.6399 13.7803 24.8799 13.7803 25.1199 13.7803C26.2599 13.7803 26.9799 14.2603 27.0999 15.1603C27.2199 16.0603 26.6799 16.7203 25.5399 17.0203C25.4199 17.3803 25.6599 17.9803 24.9999 17.9803C24.3999 17.9803 24.5199 17.4403 24.4599 17.0203C23.7399 16.9003 23.0799 16.5403 22.9599 15.7603C22.8999 15.5203 22.9599 15.1003 23.1399 14.9203C23.4999 14.6203 23.7999 14.8603 23.9199 15.2803C24.0999 15.8803 25.5399 16.1803 25.8999 15.7003C26.0199 15.5803 26.0799 15.3403 26.0199 15.2203C25.9599 15.0403 25.7199 14.9203 25.5399 14.8603C25.2399 14.8003 24.9399 14.8603 24.5799 14.8603C23.6199 14.8603 22.9599 14.3203 22.8399 13.4803C22.7199 12.6403 23.1999 11.9803 24.1599 11.6803C24.2199 11.6803 24.3399 11.6203 24.3999 11.6203C24.5199 11.2603 24.3399 10.5403 24.9999 10.6603C25.2399 10.7203 25.4199 11.2003 25.6599 11.4403C25.6599 11.4403 25.5999 11.5003 25.5999 11.5603C26.3199 11.6803 26.8599 12.0403 27.0999 12.7603C27.2199 13.1203 27.2799 13.5403 26.7999 13.7203C26.3799 13.9003 26.1999 13.5403 26.0799 13.1803C26.0199 13.0003 25.7799 12.7603 25.6599 12.7603C25.2999 12.7003 24.8799 12.7003 24.4599 12.7603C24.2799 12.8203 24.0399 13.0603 24.0399 13.2403C23.9799 13.3603 24.2199 13.6003 24.3999 13.7203Z" fill="url(#paint2_linear_237_930)"/>
<path d="M19 34.0603C20.92 34.0603 22.66 34.0603 24.4 34.0603C24.4 32.4403 24.4 30.8803 24.4 29.3203C22.84 29.3203 21.34 29.3203 19.72 29.3203C19.54 30.8803 19.3 32.4403 19 34.0603Z" fill="url(#paint3_linear_237_930)"/>
<path d="M29.8601 29.3203C28.4801 29.3203 27.0401 29.3203 25.6001 29.3203C25.6001 30.9403 25.6001 32.5003 25.6001 34.1203C27.3401 34.1203 29.0801 34.1203 31.0001 34.1203C30.7601 32.5603 30.4601 31.1203 30.2201 29.6203C30.2201 29.4403 29.9801 29.3203 29.8601 29.3203Z" fill="url(#paint4_linear_237_930)"/>
<path d="M19.7799 39.6406C19.7799 39.7606 20.0799 39.9406 20.2599 39.9406C20.9199 40.0006 21.6399 39.9406 22.2999 39.9406C23.0199 39.9406 23.6799 39.9406 24.3999 39.9406C24.3999 38.2606 24.3999 36.7006 24.3999 35.1406C22.5999 35.1406 20.9199 35.1406 18.9399 35.1406C19.2399 36.7606 19.4799 38.2006 19.7799 39.6406Z" fill="url(#paint5_linear_237_930)"/>
<path d="M25.54 40.0007C26.44 40.0007 27.34 40.0007 28.24 40.0007C30.22 40.0007 30.22 40.0007 30.58 38.0807C30.76 37.1207 30.82 36.2207 30.88 35.2607C29.02 35.2607 27.28 35.2607 25.54 35.2607C25.54 36.8207 25.54 38.3807 25.54 40.0007Z" fill="url(#paint6_linear_237_930)"/>
<path d="M14.38 30.9403C14.02 31.9603 13.78 32.9803 13.84 34.1203C15.16 34.1203 16.42 34.1203 17.68 34.1203C17.8 34.1203 18.04 33.9403 18.04 33.8203C18.22 32.3203 18.4 30.8203 18.58 29.3203C17.98 29.3203 17.38 29.3203 16.72 29.3203C14.98 29.2603 14.98 29.2603 14.38 30.9403Z" fill="url(#paint7_linear_237_930)"/>
<path d="M34.6599 29.2607C33.5799 29.2607 32.4399 29.2607 31.4199 29.2607C31.5999 30.7607 31.7799 32.2607 31.9599 33.7007C31.9599 33.8207 32.1999 34.0607 32.3199 34.0607C33.5799 34.0607 34.8399 34.0607 36.2199 34.0607C36.1599 32.3807 35.7399 30.8807 35.0199 29.4407C34.9599 29.3807 34.7799 29.3207 34.6599 29.2607Z" fill="url(#paint8_linear_237_930)"/>
<path d="M13.78 35.2002C13.84 36.8802 14.26 38.3802 14.98 39.7602C15.04 39.8802 15.22 40.0002 15.34 40.0002C16.42 40.0002 17.5 40.0002 18.58 40.0002C18.34 38.3802 18.16 36.8202 17.92 35.2002C16.6 35.2002 15.22 35.2002 13.78 35.2002Z" fill="url(#paint9_linear_237_930)"/>
<path d="M31.3601 40.0007C32.4401 40.0007 33.5201 40.0007 34.6601 40.0007C34.7801 40.0007 34.9601 39.8807 35.0201 39.8207C35.7401 38.3807 36.2201 36.8807 36.2201 35.2607C34.7801 35.2607 33.4001 35.2607 32.0801 35.2607C31.8401 36.8207 31.6001 38.3807 31.3601 40.0007Z" fill="url(#paint10_linear_237_930)"/>
<path d="M20.3201 28.1805C21.7001 28.1805 23.0801 28.1805 24.4601 28.1805C24.4601 26.6205 24.4601 25.0605 24.4601 23.5605C22.9001 23.6205 20.5001 26.3205 20.3201 28.1805Z" fill="url(#paint11_linear_237_930)"/>
<path d="M25.6001 23.4404C25.6001 25.1204 25.6001 26.6204 25.6001 28.1804C27.0401 28.1804 28.3601 28.1804 29.8001 28.1804C28.9001 26.0804 27.9401 24.2204 25.6001 23.4404Z" fill="url(#paint12_linear_237_930)"/>
<path d="M19.1199 27.9402C19.7799 26.6802 20.4399 25.3602 21.0399 24.1602C19.7199 24.2802 16.6599 26.6202 15.8799 28.1802C16.8399 28.1802 17.7999 28.1802 18.7599 28.1802C18.8799 28.1802 19.0599 28.0602 19.1199 27.9402Z" fill="url(#paint13_linear_237_930)"/>
<path d="M34.24 28.2402C32.74 26.2602 31 24.8802 28.96 24.1602C29.62 25.4202 30.28 26.7402 30.94 28.0602C31 28.1802 31.18 28.2402 31.3 28.2402C32.2 28.2402 33.16 28.2402 34.24 28.2402Z" fill="url(#paint14_linear_237_930)"/>
<path d="M15.7 23.5607C15.76 23.5607 15.82 23.5007 15.88 23.5007C15.88 23.2607 15.88 22.9607 15.88 22.7207C15.88 21.8807 16 21.7607 16.84 21.7607C17.2 21.7607 17.5 21.7607 17.86 21.7607C18.4 21.7607 18.64 21.5207 18.64 20.9807C18.64 18.6407 18.64 16.3007 18.64 13.9607C18.64 13.4207 18.4 13.1807 17.86 13.1807C15.52 13.1807 13.18 13.1807 10.84 13.1807C10.24 13.1807 10 13.4207 10 13.9607C10 16.3007 10 18.7007 10 21.0407C10 21.5807 10.24 21.7607 10.78 21.7607C11.62 21.7607 12.52 21.7007 13.36 21.7607C13.72 21.7607 14.14 21.9407 14.38 22.1807C14.86 22.6007 15.28 23.1407 15.7 23.5607ZM13.9 20.9807C13.48 21.3407 12.82 21.3407 12.4 20.9207C11.92 20.4407 12.04 19.7807 12.52 19.3007C12.34 18.8807 12.1 18.5807 12.04 18.1607C11.92 17.0807 11.8 16.0007 11.68 14.8607C11.5 14.8607 11.38 14.8607 11.26 14.8607C10.84 14.8007 10.54 14.6807 10.54 14.2607C10.54 13.8407 10.9 13.7207 11.26 13.7207C11.32 13.7207 11.44 13.7207 11.5 13.7207C12.52 13.7207 12.52 13.7207 12.76 14.8007C14.2 14.8007 15.64 14.8007 17.02 14.8007C18.04 14.8007 18.16 14.9807 17.86 15.9407C17.56 16.7807 17.32 17.6807 17.02 18.4607C16.9 18.7007 16.66 18.9407 16.48 19.1807C17.08 19.7807 17.14 20.3807 16.66 20.8607C16.24 21.2807 15.58 21.2807 15.16 20.9207C14.68 20.4407 14.74 19.8407 15.46 19.0607C15.1 19.0607 14.86 19.0607 14.56 19.0607C14.32 19.0607 14.02 19.0607 13.72 19.0607C14.38 19.9007 14.44 20.5007 13.9 20.9807Z" fill="url(#paint15_linear_237_930)"/>
<path d="M34.1201 16.96C34.1201 17.86 34.1201 18.7 34.1201 19.54C34.1201 19.96 34.3601 20.14 34.7201 20.14C35.3801 20.14 36.0401 20.2 36.6401 20.14C36.8801 20.14 37.2401 19.84 37.2401 19.6C37.3001 18.76 37.2401 17.86 37.2401 16.96C36.2201 16.96 35.2001 16.96 34.1201 16.96Z" fill="url(#paint16_linear_237_930)"/>
<path d="M36.2801 15.8203C36.2801 15.4603 36.3401 15.1003 36.2801 14.8603C36.2201 14.6203 35.9201 14.5003 35.7401 14.3203C35.5601 14.5003 35.3201 14.6203 35.2601 14.8603C35.2001 15.1603 35.2601 15.5203 35.2601 15.8803C35.5601 15.8203 35.8601 15.8203 36.2801 15.8203Z" fill="url(#paint17_linear_237_930)"/>
<path d="M15.6999 18.0404C15.8799 18.0404 16.1199 17.8604 16.1799 17.7404C16.4199 17.1404 16.5999 16.6004 16.7799 15.9404C15.4599 15.9404 14.2599 15.9404 12.9399 15.9404C12.9999 16.6004 13.0599 17.1404 13.1799 17.7404C13.1799 17.8604 13.4799 18.0404 13.5999 18.0404C14.2599 18.0404 14.9799 18.0404 15.6999 18.0404Z" fill="url(#paint18_linear_237_930)"/>
</g>
<defs>
<filter id="filter0_d_237_930" x="5" y="8" width="40" height="40" filterUnits="userSpaceOnUse" color-interpolation-filters="sRGB">
<feFlood flood-opacity="0" result="BackgroundImageFix"/>
<feColorMatrix in="SourceAlpha" type="matrix" values="0 0 0 0 0 0 0 0 0 0 0 0 0 0 0 0 0 0 127 0" result="hardAlpha"/>
<feOffset dy="3"/>
<feGaussianBlur stdDeviation="2.5"/>
<feComposite in2="hardAlpha" operator="out"/>
<feColorMatrix type="matrix" values="0 0 0 0 0 0 0 0 0 0 0 0 0 0 0 0 0 0 0.1 0"/>
<feBlend mode="normal" in2="BackgroundImageFix" result="effect1_dropShadow_237_930"/>
<feBlend mode="normal" in="SourceGraphic" in2="effect1_dropShadow_237_930" result="shape"/>
</filter>
<linearGradient id="paint0_linear_237_930" x1="4" y1="46.5" x2="46.5" y2="4" gradientUnits="userSpaceOnUse">
<stop stop-color="#F58749"/>
<stop offset="1" stop-color="#FFDF9F"/>
</linearGradient>
<linearGradient id="paint1_linear_237_930" x1="36.6177" y1="12.8934" x2="34.5884" y2="22.6826" gradientUnits="userSpaceOnUse">
<stop stop-color="white"/>
<stop offset="1" stop-color="#FFE6BF"/>
</linearGradient>
<linearGradient id="paint2_linear_237_930" x1="25.7232" y1="10.1586" x2="23.4225" y2="19.7951" gradientUnits="userSpaceOnUse">
<stop stop-color="white"/>
<stop offset="1" stop-color="#FFE6BF"/>
</linearGradient>
<linearGradient id="paint3_linear_237_930" x1="22.2335" y1="29.4047" x2="21.6059" y2="33.7707" gradientUnits="userSpaceOnUse">
<stop stop-color="white"/>
<stop offset="1" stop-color="#FFE6BF"/>
</linearGradient>
<linearGradient id="paint4_linear_237_930" x1="28.8336" y1="29.4057" x2="28.1903" y2="33.8247" gradientUnits="userSpaceOnUse">
<stop stop-color="white"/>
<stop offset="1" stop-color="#FFE6BF"/>
</linearGradient>
<linearGradient id="paint5_linear_237_930" x1="22.2094" y1="35.2265" x2="21.5659" y2="39.6711" gradientUnits="userSpaceOnUse">
<stop stop-color="white"/>
<stop offset="1" stop-color="#FFE6BF"/>
</linearGradient>
<linearGradient id="paint6_linear_237_930" x1="28.7376" y1="35.3451" x2="28.1032" y2="39.7091" gradientUnits="userSpaceOnUse">
<stop stop-color="white"/>
<stop offset="1" stop-color="#FFE6BF"/>
</linearGradient>
<linearGradient id="paint7_linear_237_930" x1="16.6746" y1="29.3885" x2="15.9424" y2="33.796" gradientUnits="userSpaceOnUse">
<stop stop-color="white"/>
<stop offset="1" stop-color="#FFE6BF"/>
</linearGradient>
<linearGradient id="paint8_linear_237_930" x1="34.2942" y1="29.3462" x2="33.5744" y2="33.7409" gradientUnits="userSpaceOnUse">
<stop stop-color="white"/>
<stop offset="1" stop-color="#FFE6BF"/>
</linearGradient>
<linearGradient id="paint9_linear_237_930" x1="16.6543" y1="35.2856" x2="15.9345" y2="39.6804" gradientUnits="userSpaceOnUse">
<stop stop-color="white"/>
<stop offset="1" stop-color="#FFE6BF"/>
</linearGradient>
<linearGradient id="paint10_linear_237_930" x1="34.2703" y1="35.3451" x2="33.5762" y2="39.6904" gradientUnits="userSpaceOnUse">
<stop stop-color="white"/>
<stop offset="1" stop-color="#FFE6BF"/>
</linearGradient>
<linearGradient id="paint11_linear_237_930" x1="22.7991" y1="23.6428" x2="22.0309" y2="27.8458" gradientUnits="userSpaceOnUse">
<stop stop-color="white"/>
<stop offset="1" stop-color="#FFE6BF"/>
</linearGradient>
<linearGradient id="paint12_linear_237_930" x1="28.1151" y1="23.5248" x2="27.3186" y2="27.8338" gradientUnits="userSpaceOnUse">
<stop stop-color="white"/>
<stop offset="1" stop-color="#FFE6BF"/>
</linearGradient>
<linearGradient id="paint13_linear_237_930" x1="18.9697" y1="24.2317" x2="18.4952" y2="27.9505" gradientUnits="userSpaceOnUse">
<stop stop-color="white"/>
<stop offset="1" stop-color="#FFE6BF"/>
</linearGradient>
<linearGradient id="paint14_linear_237_930" x1="32.1216" y1="24.2328" x2="31.6439" y2="28.008" gradientUnits="userSpaceOnUse">
<stop stop-color="white"/>
<stop offset="1" stop-color="#FFE6BF"/>
</linearGradient>
<linearGradient id="paint15_linear_237_930" x1="15.1737" y1="13.3654" x2="13.3251" y2="22.7602" gradientUnits="userSpaceOnUse">
<stop stop-color="white"/>
<stop offset="1" stop-color="#FFE6BF"/>
</linearGradient>
<linearGradient id="paint16_linear_237_930" x1="36.0043" y1="17.017" x2="35.5148" y2="19.95" gradientUnits="userSpaceOnUse">
<stop stop-color="white"/>
<stop offset="1" stop-color="#FFE6BF"/>
</linearGradient>
<linearGradient id="paint17_linear_237_930" x1="35.8761" y1="14.3481" x2="35.5457" y2="15.736" gradientUnits="userSpaceOnUse">
<stop stop-color="white"/>
<stop offset="1" stop-color="#FFE6BF"/>
</linearGradient>
<linearGradient id="paint18_linear_237_930" x1="15.2393" y1="15.9778" x2="15.0639" y2="17.9364" gradientUnits="userSpaceOnUse">
<stop stop-color="white"/>
<stop offset="1" stop-color="#FFE6BF"/>
</linearGradient>
<clipPath id="clip0_237_930">
<rect width="30" height="30" fill="white" transform="translate(10 10)"/>
</clipPath>
</defs>
</svg>
