<svg width="70" height="70" viewBox="0 0 70 70" fill="none" xmlns="http://www.w3.org/2000/svg">
<path d="M35 70C15.6917 70 0 54.3083 0 35C0 15.6917 15.6917 0 35 0C54.3083 0 70 15.6917 70 35C70 54.3083 54.3083 70 35 70ZM35 1.45833C16.5083 1.45833 1.45833 16.5083 1.45833 35C1.45833 53.4917 16.5083 68.5417 35 68.5417C53.4917 68.5417 68.5417 53.4917 68.5417 35C68.5417 16.5083 53.4917 1.45833 35 1.45833Z" fill="#1776E8"/>
<path d="M69.125 31.5C69.125 31.2083 69.125 30.9167 69.125 30.625C69.125 30.3333 69.125 30.0417 69.125 29.75C69.125 30.0417 69.0958 30.3333 69.0958 30.625C69.0958 30.9167 69.125 31.2083 69.125 31.5Z" stroke="#1776E8" stroke-miterlimit="10"/>
<path d="M23.8292 61.8333C26.95 63.2042 30.8583 63.9625 34.4167 64.3125C34.4167 64.0208 34.2708 63.9625 34.2708 63.6708C30.6542 63.4667 27.1542 62.7083 23.9167 61.425L24.1792 60.2875C27.3292 61.5417 30.7125 62.3 34.2708 62.5042C34.2708 62.2125 34.2708 61.95 34.2708 61.6583C30.8 61.6 27.4458 60.9875 24.2667 59.9083L24.5292 58.7708C27.5917 59.8208 30.8875 60.4333 34.2708 60.4917C34.2708 60.0542 34.2708 59.7625 34.2708 59.7625C34.2708 59.8208 31.1208 59.5583 30.8292 59.5292C29.7208 59.3833 28.6125 59.2083 27.5042 58.975C26.425 58.7417 25.375 58.45 24.325 58.0708C23.3042 57.7208 22.2833 57.3125 21.3208 56.875C20.3583 56.4375 19.3958 55.9125 18.4917 55.3875C17.5875 54.8333 16.7125 54.25 15.8667 53.6083C15.0208 52.9667 14.2042 52.2667 13.4458 51.5375C12.6875 50.8083 11.9292 50.0208 11.2583 49.2333C10.5583 48.4167 9.91667 47.5708 9.30417 46.6667C8.69167 45.7625 8.13751 44.8292 7.64167 43.8667C6.94167 42.5542 6.32917 41.2125 5.86251 39.8125C5.71667 39.375 5.57084 38.9375 5.48334 38.5C5.39584 38.1208 5.33751 37.7417 5.30834 37.3333C5.25001 36.4583 5.19167 35.6125 5.16251 34.7375C5.13334 33.6292 5.13334 32.5208 5.27917 31.4125C5.30834 31.0625 5.36667 30.6833 5.45417 30.3333C5.45417 30.3333 6.03751 32.0833 6.03751 34.4167L8.66251 35.5833C8.66251 35.5833 6.32917 31.5 6.03751 22.75C6.03751 22.75 4.28751 28 3.99584 31.5C3.96667 31.7917 3.96667 32.0833 3.96667 32.375C3.90834 33.25 3.85001 34.0958 3.85001 35C3.85001 52.0042 17.4417 65.8 34.3292 66.2083C34.3292 66.2083 34.475 65.7708 34.475 65.4792C30.8 65.1292 26.8042 64.3708 23.5958 62.9708L23.8292 61.8333Z" fill="#1776E8"/>
<path d="M11.6667 47.9792C12.25 45.3542 11.9584 45.3542 11.9584 45.3542C11.9584 45.3542 9.33335 44.4792 6.41669 38.0625C6.41669 38.0625 7.58335 44.4792 11.6667 47.9792Z" fill="#1776E8"/>
<path d="M45.7333 61.8333C42.6125 63.2042 38.7042 63.9625 35.1458 64.3125C35.1458 64.0208 35.2917 63.9625 35.2917 63.6708C38.9083 63.4667 42.4083 62.7083 45.6458 61.425L45.3833 60.2875C42.2333 61.5417 38.85 62.3 35.2917 62.5042C35.2917 62.2125 35.2917 61.95 35.2917 61.6583C38.7625 61.6 42.1167 60.9875 45.2958 59.9083L45.0333 58.7708C41.9708 59.8208 38.675 60.4333 35.2917 60.4917C35.2917 60.0542 35.2917 59.7625 35.2917 59.7625C35.2917 59.8208 38.4417 59.5583 38.7333 59.5292C39.8417 59.3833 40.95 59.2083 42.0583 58.975C43.1375 58.7417 44.1875 58.45 45.2375 58.0708C46.2583 57.7208 47.2792 57.3125 48.2417 56.875C49.2042 56.4375 50.1667 55.9125 51.0708 55.3875C51.975 54.8333 52.85 54.25 53.6958 53.6083C54.5417 52.9667 55.3583 52.2667 56.1167 51.5375C56.875 50.8083 57.6333 50.0208 58.3042 49.2333C59.0042 48.4167 59.6458 47.5708 60.2583 46.6667C60.8708 45.7625 61.425 44.8292 61.9208 43.8667C62.6208 42.5542 63.2333 41.2125 63.7 39.8125C63.8458 39.375 63.9917 38.9375 64.0792 38.5C64.1667 38.1208 64.225 37.7417 64.2542 37.3333C64.3125 36.4583 64.3708 35.6125 64.4 34.7375C64.4292 33.6292 64.4292 32.5208 64.2833 31.4125C64.2542 31.0625 64.1958 30.6833 64.1083 30.3333C64.1083 30.3333 63.525 32.0833 63.525 34.4167L60.9 35.5833C60.9 35.5833 63.2333 31.5 63.525 22.75C63.525 22.75 65.275 28 65.5667 31.5C65.5958 31.7917 65.5958 32.0833 65.5958 32.375C65.6542 33.25 65.7125 34.0958 65.7125 35C65.7125 52.0042 52.1208 65.8 35.2333 66.2083C35.2333 66.2083 35.0875 65.7708 35.0875 65.4792C38.7625 65.1292 42.7583 64.3708 45.9667 62.9708L45.7333 61.8333Z" fill="#1776E8"/>
<path d="M57.8958 47.9792C57.3125 45.3542 57.6042 45.3542 57.6042 45.3542C57.6042 45.3542 60.2292 44.4792 63.1458 38.0625C63.1458 38.0625 61.9792 44.4792 57.8958 47.9792Z" fill="#1776E8"/>
<path d="M56.9917 49.4375C55.2417 36.6042 55.5333 35.7292 55.5333 35.7292H46.2V34.5625L24.0333 34.8542V35.7292L14.8458 35.875L13.0958 49.5833C13.0958 49.5833 15.4292 49.8167 19.2208 50.05V44.8875C19.2208 42.8167 20.9125 41.125 22.9833 41.125H23.3333C25.4042 41.125 27.0958 42.8167 27.0958 44.8875V50.4292C28.4083 50.4875 29.7792 50.5167 31.1792 50.5458V44.8875C31.1792 42.8167 32.8708 41.125 34.9417 41.125H35.3208C37.3917 41.125 39.0833 42.8167 39.0833 44.8875V50.575C40.425 50.5458 41.7958 50.5167 43.1667 50.4875V44.8875C43.1667 42.8167 44.8583 41.125 46.9292 41.125H47.3083C49.3792 41.125 51.0708 42.8167 51.0708 44.8875V50.05C53.025 49.9042 55.0375 49.7 56.9917 49.4375Z" fill="#1776E8"/>
<path d="M22.5167 42.5835C21.35 42.5835 20.3875 43.546 20.3875 44.7127L20.2417 49.7293L21.5542 48.6502C21.7583 48.5043 21.8458 48.2418 21.8458 48.0085V44.596C21.8458 44.596 21.8458 43.3127 23.3042 42.5835H22.5167Z" fill="#0C5AB9"/>
<path d="M34.6208 42.5835C33.4542 42.5835 32.4917 43.546 32.4917 44.7127L32.3458 49.7293L33.6583 48.6502C33.8625 48.5043 33.95 48.2418 33.95 48.0085V44.596C33.95 44.596 33.95 43.3127 35.4083 42.5835H34.6208Z" fill="#0C5AB9"/>
<path d="M47.2792 42.729H46.4917C47.95 43.4582 47.95 44.7415 47.95 44.7415V48.154C47.95 48.4165 48.0667 48.6498 48.2417 48.7957L49.5542 49.8748L49.4083 44.8582C49.4083 43.6915 48.4458 42.729 47.2792 42.729Z" fill="#0C5AB9"/>
<path d="M23.45 33.6873H46.7833L51.7417 31.0623L44.7417 30.7707L49.7 25.8123L42.5542 28.2915L45.7625 21.5832L39.9292 26.2498L40.5125 19.2498L36.7208 25.0832L34.9708 17.7915L33.2208 25.0832L29.4292 18.6665L30.0125 25.9582L24.1792 21.5832L27.0958 27.7082L20.3875 25.6665L25.3458 30.9165H18.0542L23.45 33.6873Z" fill="#1776E8"/>
<path d="M49.7583 33.5418L51.8292 34.096L53.0833 34.446C53.025 33.6585 52.9375 32.871 52.7917 32.0835L51.7125 32.6085L49.7583 33.5418Z" fill="#1776E8"/>
<path d="M48.4167 29.3708H50.5458H52.0042C51.7125 28.5833 51.3917 27.8542 51.0125 27.125L50.0208 27.9708L48.4167 29.3708Z" fill="#1776E8"/>
<path d="M45.5583 25.3167L47.5708 24.6167L49 24.1208C48.475 23.4792 47.8917 22.8667 47.2792 22.3125L46.6083 23.4792L45.5583 25.3167Z" fill="#1776E8"/>
<path d="M42.0583 22.575L43.6625 21.175L44.6833 20.3C44.0125 19.8625 43.2833 19.4833 42.5542 19.1333L42.3792 20.4458L42.0583 22.575Z" fill="#1776E8"/>
<path d="M37.3042 20.9999L38.5 19.2207L39.3167 17.9957C38.5292 17.7916 37.7125 17.6457 36.8958 17.5874L37.0417 18.8707L37.3042 20.9999Z" fill="#1776E8"/>
<path d="M32.5792 21.1749L32.9875 19.0749L33.2792 17.5874C32.4333 17.6749 31.5875 17.8207 30.7708 18.0249L31.5292 19.3374L32.5792 21.1749Z" fill="#1776E8"/>
<path d="M28.1458 22.4873L28 20.3581L27.9125 18.9873C27.1542 19.3081 26.4542 19.6873 25.7542 20.0956L26.6583 20.9998L28.1458 22.4873Z" fill="#1776E8"/>
<path d="M24.3542 25.2583L23.45 23.3333L22.8958 22.1958C22.3125 22.7208 21.7583 23.3041 21.2333 23.9166L22.4 24.4125L24.3542 25.2583Z" fill="#1776E8"/>
<path d="M21.4958 29.4581L20.0667 27.854L19.1917 26.8623C18.8125 27.5623 18.4625 28.2915 18.2 29.0206L19.3958 29.1665L21.4958 29.4581Z" fill="#1776E8"/>
<path d="M20.5042 33.6292L18.6958 32.4625L17.3833 31.6167C17.2083 32.4334 17.0625 33.2792 17.0042 34.125L18.375 33.9209L20.5042 33.6292Z" fill="#1776E8"/>
<path d="M12.3083 17.5581L15.7792 20.4164L15.05 21.2914L11.5792 18.4331L10.5292 19.7164L9.79999 19.1039L12.6 15.6914L13.3292 16.3039L12.3083 17.5581Z" fill="#1776E8"/>
<path d="M18.7542 14.35L17.0917 15.6625L18.5792 17.5875L17.675 18.2875L14.3208 13.9708L15.225 13.2708L16.4792 14.9041L18.1417 13.5916L16.8875 11.9583L17.7917 11.2583L21.1458 15.5458L20.2417 16.2458L18.7542 14.35Z" fill="#1776E8"/>
<path d="M23.0416 13.2415L23.1583 14.4082L22.0791 14.904L21.5833 9.15817L22.7791 8.604L26.775 12.7457L25.6666 13.2707L24.8791 12.3957L23.0416 13.2415ZM22.925 12.2498L24.2083 11.6665L22.6916 10.004L22.925 12.2498Z" fill="#1776E8"/>
<path d="M30.0125 6.47516L31.0625 6.271L32.1125 11.6085L31.0041 11.8418L28.0875 8.4585L28.8166 12.2502L27.7666 12.4543L26.7166 7.11683L27.8833 6.8835L30.7416 10.1793L30.0125 6.47516Z" fill="#1776E8"/>
<path d="M37.1 9.12913L34.9708 9.04163L34.8833 11.4916L33.7458 11.4333L33.9792 6.0083L35.1167 6.06663L35.0292 8.13747L37.1583 8.22497L37.2458 6.15413L38.3833 6.21247L38.15 11.6375L37.0125 11.5791L37.1 9.12913Z" fill="#1776E8"/>
<path d="M46.3167 11.4624L44.3625 10.6457L43.4291 12.8915L42.3792 12.454L44.4208 7.4082L45.4708 7.8457L44.6833 9.74154L46.6375 10.5582L47.425 8.66237L48.475 9.09987L46.4333 14.1457L45.3833 13.7082L46.3167 11.4624Z" fill="#1776E8"/>
<path d="M49.3208 12.6C49.7875 11.9583 50.2833 11.5792 50.8375 11.375C51.275 11.2292 51.7417 11.2292 52.2083 11.375C52.5583 11.4625 52.85 11.6083 53.1417 11.8125C53.4333 12.0167 53.6667 12.25 53.8417 12.5417C54.1042 12.95 54.25 13.3875 54.25 13.8542C54.25 14.4375 54.0167 15.05 53.55 15.6917C53.0833 16.3042 52.5875 16.7125 52.0333 16.9167C51.5958 17.0625 51.1292 17.0625 50.6625 16.9458C50.3125 16.8583 50.0208 16.7125 49.7583 16.5083C49.4667 16.3042 49.2333 16.0708 49.0583 15.7792C48.7958 15.3708 48.65 14.9333 48.65 14.4667C48.6208 13.825 48.8542 13.2125 49.3208 12.6ZM50.225 13.2708C49.8167 13.825 49.6708 14.35 49.7292 14.8167C49.7875 15.1667 49.9917 15.4583 50.3125 15.6917C50.6333 15.925 50.9542 16.0125 51.3042 15.9542C51.7708 15.8958 52.2083 15.575 52.6167 15.0208C53.025 14.4667 53.1708 13.9708 53.0833 13.5042C53.025 13.1542 52.8208 12.8625 52.5292 12.6292C52.2083 12.3958 51.8875 12.3083 51.5083 12.3667C51.0708 12.3958 50.6333 12.7167 50.225 13.2708ZM54.775 11.1708L53.2292 11.4042L52.6167 10.9667L53.8417 10.5L54.775 11.1708Z" fill="#1776E8"/>
<path d="M54.2208 18.6956L53.1125 19.1331L52.325 18.2289L57.7208 16.1289L58.5958 17.1206L55.7083 22.1372L54.8916 21.2039L55.5042 20.2122L54.2208 18.6956ZM55.125 18.3164L56.0292 19.3664L57.225 17.4414L55.125 18.3164Z" fill="#1776E8"/>
<path d="M31.85 28.729C31.8792 28.729 31.9083 28.729 31.9083 28.729C32.6375 28.729 33.3667 28.729 34.0958 28.729C34.125 28.729 34.1542 28.729 34.1833 28.6706C34.475 27.9415 34.7667 27.2123 35.0583 26.4831C35.0583 26.454 35.0875 26.454 35.0875 26.4248C35.1458 26.5706 35.2042 26.7165 35.2625 26.8623C35.4958 27.4748 35.7583 28.0581 35.9917 28.6706C36.0208 28.6998 36.0208 28.729 36.0792 28.729C36.8083 28.729 37.5375 28.729 38.2667 28.729C38.2958 28.729 38.2958 28.729 38.3542 28.729C38.325 28.7581 38.325 28.7581 38.2958 28.7581C37.7125 29.1956 37.1292 29.6331 36.5458 30.0706C36.5167 30.0998 36.4875 30.129 36.5167 30.1581C36.6333 30.7123 36.75 31.2956 36.8375 31.8498C36.8667 32.0248 36.8958 32.1998 36.925 32.3748V32.404C36.8958 32.404 36.8958 32.3748 36.8667 32.3748C36.3708 31.9956 35.8458 31.6165 35.35 31.2373C35.2625 31.179 35.2042 31.1206 35.1167 31.0623C35.0875 31.0331 35.0583 31.0331 35.0292 31.0623C34.7083 31.2956 34.3583 31.5581 34.0375 31.7915C33.775 31.9956 33.5125 32.1706 33.2792 32.3748C33.2792 32.3748 33.25 32.404 33.2208 32.404C33.2208 32.3748 33.2208 32.3165 33.25 32.2873C33.3667 31.6748 33.4833 31.0331 33.6292 30.4206C33.6583 30.3331 33.6583 30.2456 33.6875 30.129C33.6875 30.0998 33.6875 30.0706 33.6583 30.0415C33.25 29.7498 32.8417 29.429 32.4333 29.1373C32.2583 28.9915 32.0833 28.8748 31.8792 28.729C31.8792 28.7581 31.8792 28.7581 31.85 28.729Z" fill="#F9F029"/>
</svg>
