<svg width="50" height="50" viewBox="0 0 50 50" fill="none" xmlns="http://www.w3.org/2000/svg">
<rect width="50" height="50" rx="18" fill="#1776E8"/>
<g clip-path="url(#clip0_256_605)">
<path d="M38.972 30.0896C38.8685 29.8496 38.7651 29.7649 38.4892 29.8143C35.1789 30.4214 31.8685 31.0072 28.5582 31.6143C28.4133 31.6425 28.2409 31.7696 28.1582 31.8967C27.6409 32.7155 27.1375 33.5414 26.634 34.3672C26.5789 34.4519 26.5513 34.5508 26.5099 34.6496C26.5651 34.6919 26.5995 34.7272 26.6409 34.7484C29.5513 36.4708 32.4478 38.186 35.3582 39.9013C35.4685 39.9649 35.6203 40.0001 35.7513 40.0001C37.8754 40.0072 39.9996 40.0001 42.1237 40.0001C42.5306 40.0001 42.841 39.866 42.9996 39.4566C42.9996 39.3649 42.9996 39.266 42.9996 39.1743C41.6548 36.146 40.3099 33.1249 38.972 30.0896Z" fill="white"/>
<path d="M20.2548 26.327C21.9169 28.1623 23.4755 30.0682 24.4066 32.4258C24.51 32.687 24.6962 32.8423 24.9859 32.8423C25.2824 32.8423 25.4479 32.6729 25.5514 32.4117C26.2617 30.6541 27.2962 29.1082 28.5169 27.6894C29.3721 26.687 30.2548 25.7129 31.0824 24.6964C32.5031 22.9529 33.3169 20.9553 33.2962 19.0776C33.4065 13.5223 28.9514 9.44232 23.9859 10.0635C18.4686 10.7553 15.1859 16.8682 17.3307 22.1341C17.9928 23.7576 19.1031 25.0564 20.2548 26.327ZM25.0893 14.0306C27.4341 14.0376 29.379 16.0847 29.3652 18.5129C29.3514 21.0117 27.3928 23.0235 24.9928 23.0094C22.5169 22.9953 20.5652 20.9764 20.5859 18.4282C20.6066 15.9717 22.6066 14.0164 25.0893 14.0306Z" fill="white"/>
<path d="M29.0203 38.8707C25.9376 37.0495 22.8548 35.2213 19.7652 33.4072C19.6203 33.3225 19.4134 33.2801 19.2479 33.3013C18.241 33.4636 17.2341 33.6472 16.2272 33.8307C13.8341 34.2684 11.4341 34.706 9.04104 35.1366C8.82036 35.1789 8.69622 35.2636 8.60656 35.4754C8.15139 36.5272 7.68243 37.5789 7.21346 38.6236C6.76519 39.6331 6.99967 40.0001 8.10312 40.0001C15.5376 40.0001 22.9721 40.0001 30.4065 40.0001C30.5169 40.0001 30.6272 39.986 30.7376 39.9789C30.7445 39.9578 30.7514 39.9366 30.7583 39.9084C30.6686 39.8519 30.5789 39.7884 30.4824 39.7319C29.9927 39.4495 29.51 39.1601 29.0203 38.8707Z" fill="white"/>
<path d="M17.0544 31.7978C15.2682 30.746 13.482 29.6943 11.6613 28.6143C10.9717 30.1601 10.3027 31.6707 9.59924 33.2519C12.1372 32.7931 14.5923 32.3484 17.0406 31.9107C17.0475 31.8684 17.0475 31.8331 17.0544 31.7978Z" fill="white"/>
<path d="M20.3237 31.0352C20.7306 31.2823 21.0685 31.1905 21.4823 31.0705C21.4203 30.9787 21.3927 30.9011 21.3375 30.8446C20.2754 29.6305 19.2065 28.4093 18.1306 27.2093C18.0478 27.1175 17.8685 27.0611 17.7375 27.0611C16.5099 27.047 15.2823 27.054 14.0478 27.054C13.9651 27.054 13.8754 27.0752 13.7168 27.0964C13.8754 27.1952 13.9651 27.2587 14.0616 27.3152C16.1582 28.5575 18.2547 29.7787 20.3237 31.0352Z" fill="white"/>
<path d="M32.1933 27.1669C31.4898 27.9222 30.8002 28.6846 30.1036 29.454C30.1174 29.4822 30.1312 29.5175 30.145 29.5457C32.7726 29.0728 35.4071 28.5928 38.0898 28.1057C37.6485 27.3999 37.0967 27.0681 36.3657 27.061C35.0898 27.061 33.814 27.061 32.5381 27.0681C32.4278 27.061 32.2692 27.0893 32.1933 27.1669Z" fill="white"/>
</g>
<defs>
<clipPath id="clip0_256_605">
<rect width="36" height="30" fill="white" transform="translate(7 10)"/>
</clipPath>
</defs>
</svg>
