<?xml version="1.0" encoding="utf-8"?>
<!-- Generator: Adobe Illustrator 25.0.0, SVG Export Plug-In . SVG Version: 6.00 Build 0)  -->
<svg version="1.1" id="Layer_1" xmlns="http://www.w3.org/2000/svg" xmlns:xlink="http://www.w3.org/1999/xlink" x="0px" y="0px"
	 viewBox="0 0 60 60" style="enable-background:new 0 0 60 60;" xml:space="preserve">
<style type="text/css">
	.st0{fill:#F2F5FC;}
	.st1{fill:#1776E8;}
	.st2{fill:none;stroke:#1776E8;}
</style>
<circle class="st0" cx="30" cy="30" r="30"/>
<path class="st1" d="M22,20h2c1.1,0,2,0.9,2,2v2c0,1.1-0.9,2-2,2h-2c-1.1,0-2-0.9-2-2v-2C20,20.9,20.9,20,22,20z"/>
<path class="st2" d="M22,20h2c1.1,0,2,0.9,2,2v2c0,1.1-0.9,2-2,2h-2c-1.1,0-2-0.9-2-2v-2C20,20.9,20.9,20,22,20z"/>
<path class="st1" d="M22,34h2c1.1,0,2,0.9,2,2v2c0,1.1-0.9,2-2,2h-2c-1.1,0-2-0.9-2-2v-2C20,34.9,20.9,34,22,34z"/>
<path class="st2" d="M22,34h2c1.1,0,2,0.9,2,2v2c0,1.1-0.9,2-2,2h-2c-1.1,0-2-0.9-2-2v-2C20,34.9,20.9,34,22,34z"/>
<path class="st1" d="M36,20h2c1.1,0,2,0.9,2,2v2c0,1.1-0.9,2-2,2h-2c-1.1,0-2-0.9-2-2v-2C34,20.9,34.9,20,36,20z"/>
<path class="st2" d="M36,20h2c1.1,0,2,0.9,2,2v2c0,1.1-0.9,2-2,2h-2c-1.1,0-2-0.9-2-2v-2C34,20.9,34.9,20,36,20z"/>
<path class="st1" d="M36,34h2c1.1,0,2,0.9,2,2v2c0,1.1-0.9,2-2,2h-2c-1.1,0-2-0.9-2-2v-2C34,34.9,34.9,34,36,34z"/>
<path class="st2" d="M36,34h2c1.1,0,2,0.9,2,2v2c0,1.1-0.9,2-2,2h-2c-1.1,0-2-0.9-2-2v-2C34,34.9,34.9,34,36,34z"/>
</svg>
