<svg width="50" height="50" viewBox="0 0 50 50" fill="none" xmlns="http://www.w3.org/2000/svg">
<rect width="50" height="50" rx="18" fill="#1776E8"/>
<path d="M34.3417 13.9134H24.8812V13.747C24.8791 11.6834 23.1979 10.0022 21.132 10C19.0684 10.0022 17.385 11.6834 17.3828 13.7492V13.9329C16.0085 14.0949 14.9388 15.2683 14.9367 16.6837V16.8479H14.7703C13.2447 16.8501 12.0022 18.0926 12 19.6182V37.2297C12.0022 38.7553 13.2447 39.9978 14.7703 40H31.405C32.9306 39.9978 34.1732 38.7553 34.1753 37.2297V37.0655H34.3417C35.8673 37.0633 37.1098 35.8208 37.112 34.2952V16.6837C37.1098 15.1581 35.8673 13.9156 34.3417 13.9134ZM17.7091 37.0655H32.5503V37.2297C32.5503 37.8607 32.0382 38.3728 31.4072 38.3728H14.7725C14.1415 38.3728 13.6293 37.8607 13.6293 37.2297V19.6182C13.6293 18.9873 14.1415 18.4751 14.7725 18.4751H14.9367V34.2952C14.9388 35.8208 16.1814 37.0633 17.7091 37.0655ZM20.1553 20.9213C21.6831 20.9213 22.9256 19.6787 22.9256 18.151V15.5406H34.3417C34.9727 15.5406 35.4848 16.0527 35.4848 16.6837V34.2952C35.4848 34.9262 34.9727 35.4383 34.3417 35.4383H17.7091C17.0782 35.4383 16.566 34.9262 16.566 34.2952V16.6837C16.566 16.1651 16.9118 15.7264 17.385 15.586V18.151C17.385 19.6787 18.6275 20.9213 20.1553 20.9213ZM20.1553 18.4751C20.6048 18.4751 20.9678 18.1099 20.9678 17.6626V15.5406H21.2984V18.151C21.2984 18.782 20.7863 19.2941 20.1553 19.2941C19.5243 19.2941 19.0122 18.782 19.0122 18.151V15.5406H19.3428V17.6626C19.3406 18.1099 19.7058 18.4751 20.1553 18.4751ZM21.2984 13.7492V13.9134H20.9678V13.7492C20.9678 13.6584 21.0413 13.585 21.132 13.585C21.2228 13.5828 21.2984 13.6584 21.2984 13.7492ZM23.2541 13.9134H22.9234V13.7492C22.9234 12.7617 22.1196 11.9578 21.132 11.9578C20.1445 11.9578 19.3406 12.7617 19.3406 13.7492V13.9134H19.01V13.7492C19.01 12.5801 19.963 11.6272 21.132 11.6272C22.3011 11.6272 23.2541 12.5801 23.2541 13.7492V13.9134Z" fill="white"/>
<path d="M19.1764 23.8565H21.6226C22.072 23.8565 22.4351 23.4913 22.4351 23.044C22.4351 22.5966 22.0699 22.2314 21.6226 22.2314H19.1764C18.7269 22.2314 18.3639 22.5966 18.3639 23.044C18.3639 23.4913 18.7269 23.8565 19.1764 23.8565Z" fill="white"/>
<path d="M23.5782 23.8565H33.3628C33.8123 23.8565 34.1753 23.4913 34.1753 23.044C34.1753 22.5966 33.8102 22.2314 33.3628 22.2314H23.5782C23.1288 22.2314 22.7657 22.5966 22.7657 23.044C22.7657 23.4913 23.1309 23.8565 23.5782 23.8565Z" fill="white"/>
<path d="M19.1764 26.792H33.3628C33.8123 26.792 34.1753 26.4268 34.1753 25.9795C34.1753 25.7612 34.0911 25.5581 33.9376 25.4047C33.7842 25.2513 33.5789 25.167 33.3628 25.167H19.1764C18.7269 25.167 18.3639 25.5322 18.3639 25.9795C18.3617 26.4268 18.7269 26.792 19.1764 26.792Z" fill="white"/>
<path d="M33.3628 28.0996H30.4283C29.9788 28.0996 29.6158 28.4648 29.6158 28.9121C29.6158 29.3594 29.981 29.7246 30.4283 29.7246H33.3628C33.8123 29.7246 34.1753 29.3594 34.1753 28.9121C34.1753 28.4648 33.8123 28.0996 33.3628 28.0996Z" fill="white"/>
<path d="M19.1764 29.7275H28.4705C28.92 29.7275 29.283 29.3624 29.283 28.915C29.283 28.4677 28.9178 28.1025 28.4705 28.1025H19.1764C18.7269 28.1025 18.3639 28.4677 18.3639 28.915C18.3639 29.3624 18.7269 29.7275 19.1764 29.7275Z" fill="white"/>
<path d="M19.1764 32.6631H33.3628C33.8123 32.6631 34.1753 32.2979 34.1753 31.8506C34.1753 31.6323 34.0911 31.4292 33.9376 31.2758C33.7842 31.1224 33.5789 31.0381 33.3628 31.0381H19.1764C18.7269 31.0381 18.3639 31.4033 18.3639 31.8506C18.3617 32.2979 18.7269 32.6631 19.1764 32.6631Z" fill="white"/>
</svg>
