<svg width="50" height="50" viewBox="0 0 50 50" fill="none" xmlns="http://www.w3.org/2000/svg">
<rect width="50" height="50" rx="18" fill="#1776E8"/>
<path d="M23.2424 11H11.8203C11.3675 11 11 11.3675 11 11.8203V23.2424C11 23.6952 11.3675 24.0627 11.8203 24.0627H18.849C21.6795 24.0627 24.0621 21.7763 24.0621 18.8495V11.8203C24.0627 11.3675 23.6952 11 23.2424 11ZM19.5189 22.3576C19.6179 22.0814 19.6693 21.7872 19.6693 21.4848V19.6693H21.4848C21.7845 19.6693 22.0809 19.6157 22.3603 19.5145C22.181 20.4742 21.3793 21.9994 19.5189 22.3576ZM22.4221 17.0919C22.4221 17.6147 21.9983 18.0287 21.4854 18.0287H18.8495C18.3967 18.0287 18.0293 18.3962 18.0293 18.849V21.4848C18.0293 22.0076 17.6054 22.4216 17.0925 22.4216H12.6406V12.6406H22.4221V17.0919Z" fill="#FFF9F9"/>
<path d="M14.8953 16.1552H20.1669C21.2524 16.1158 21.2552 14.5551 20.1669 14.5146H14.8953C14.4425 14.5146 14.075 14.8821 14.075 15.3349C14.075 15.7877 14.4425 16.1552 14.8953 16.1552Z" fill="#FFF9F9"/>
<path d="M14.8952 19.6694H15.774C16.8606 19.6294 16.8606 18.0687 15.774 18.0288H14.8952C13.8086 18.0693 13.8086 19.6294 14.8952 19.6694Z" fill="#FFF9F9"/>
<path d="M38.1786 11H26.7565C26.3037 11 25.9362 11.3675 25.9362 11.8203V23.2424C25.9362 23.6952 26.3037 24.0627 26.7565 24.0627H33.7852C36.6157 24.0627 38.9984 21.7763 38.9984 18.8495V11.8203C38.9989 11.3675 38.6314 11 38.1786 11ZM34.4551 22.3576C34.5541 22.0814 34.6055 21.7872 34.6055 21.4848V19.6693H36.4211C36.7207 19.6693 37.0171 19.6157 37.2966 19.5145C37.1178 20.4742 36.3155 21.9994 34.4551 22.3576ZM37.3584 17.0919C37.3584 17.6147 36.9346 18.0287 36.4216 18.0287H33.7858C33.333 18.0287 32.9655 18.3962 32.9655 18.849V21.4848C32.9655 22.0076 32.5417 22.4216 32.0287 22.4216H27.5773V12.6406H37.3584V17.0919Z" fill="#FFF9F9"/>
<path d="M29.832 16.1552H35.1037C36.1892 16.1158 36.1914 14.5551 35.1037 14.5146H29.832C29.3792 14.5146 29.0117 14.8821 29.0117 15.3349C29.0117 15.7877 29.3787 16.1552 29.832 16.1552Z" fill="#FFF9F9"/>
<path d="M23.2424 25.9365H11.8203C11.3675 25.9365 11 26.304 11 26.7568V38.1789C11 38.6317 11.3675 38.9992 11.8203 38.9992H18.849C21.6795 38.9992 24.0621 36.7128 24.0621 33.7861V26.7568C24.0627 26.304 23.6952 25.9365 23.2424 25.9365ZM19.5189 37.2947C19.6179 37.0185 19.6693 36.7243 19.6693 36.4219V34.6063H21.4848C21.7845 34.6063 22.0809 34.5527 22.3603 34.4516C22.181 35.4108 21.3793 36.9359 19.5189 37.2947ZM22.4221 32.0285C22.4221 32.5513 21.9983 32.9652 21.4854 32.9652H18.8495C18.3967 32.9652 18.0293 33.3327 18.0293 33.7855V36.4213C18.0293 36.9441 17.6054 37.3581 17.0925 37.3581H12.6406V27.5771H22.4221V32.0285Z" fill="#FFF9F9"/>
<path d="M14.8953 31.0912H20.1669C21.2524 31.0519 21.2552 29.4912 20.1669 29.4507H14.8953C14.4425 29.4507 14.075 29.8182 14.075 30.271C14.075 30.7238 14.4425 31.0912 14.8953 31.0912Z" fill="#FFF9F9"/>
<path d="M38.1786 25.9365H26.7565C26.3037 25.9365 25.9362 26.304 25.9362 26.7568V38.1789C25.9362 38.6317 26.3037 38.9992 26.7565 38.9992H33.7852C36.6157 38.9992 38.9984 36.7128 38.9984 33.7861V26.7568C38.9989 26.304 38.6314 25.9365 38.1786 25.9365ZM34.4551 37.2947C34.5541 37.0185 34.6055 36.7243 34.6055 36.4219V34.6063H36.4211C36.7207 34.6063 37.0171 34.5527 37.2966 34.4516C37.1178 35.4108 36.3155 36.9359 34.4551 37.2947ZM37.3584 32.0285C37.3584 32.5513 36.9346 32.9652 36.4216 32.9652H33.7858C33.333 32.9652 32.9655 33.3327 32.9655 33.7855V36.4213C32.9655 36.9441 32.5417 37.3581 32.0287 37.3581H27.5773V27.5771H37.3584V32.0285Z" fill="#FFF9F9"/>
<path d="M29.832 31.0912H35.1037C36.1892 31.0519 36.1914 29.4912 35.1037 29.4507H29.832C29.3792 29.4507 29.0117 29.8182 29.0117 30.271C29.0117 30.7238 29.3787 31.0912 29.832 31.0912Z" fill="#FFF9F9"/>
<path d="M29.8321 34.6059H30.7108C31.7974 34.566 31.7974 33.0053 30.7108 32.9653H29.8321C28.7449 33.0053 28.7449 34.5654 29.8321 34.6059Z" fill="#FFF9F9"/>
</svg>
