<svg width="50" height="50" viewBox="0 0 50 50" fill="none" xmlns="http://www.w3.org/2000/svg">
<rect width="50" height="50" rx="18" fill="#1776E8"/>
<g clip-path="url(#clip0_280_1187)">
<path d="M31.0951 22.8906C31.0951 22.2432 30.5707 21.7188 29.9232 21.7188H17.8529C17.2054 21.7188 16.681 22.2432 16.681 22.8906C16.681 23.5381 17.2054 24.0625 17.8529 24.0625H29.9232C30.5701 24.0625 31.0951 23.5381 31.0951 22.8906Z" fill="#EEF2FA"/>
<path d="M17.8529 26.4062C17.2054 26.4062 16.681 26.9307 16.681 27.5781C16.681 28.2256 17.2054 28.75 17.8529 28.75H25.1836C25.831 28.75 26.3554 28.2256 26.3554 27.5781C26.3554 26.9307 25.831 26.4062 25.1836 26.4062H17.8529Z" fill="#EEF2FA"/>
<path d="M20.6068 37.6562H16.6875C15.3949 37.6562 14.3437 36.6051 14.3437 35.3125V14.6875C14.3437 13.3949 15.3949 12.3438 16.6875 12.3438H31.0951C32.3877 12.3438 33.4389 13.3949 33.4389 14.6875V21.8945C33.4389 22.542 33.9633 23.0664 34.6107 23.0664C35.2582 23.0664 35.7826 22.542 35.7826 21.8945V14.6875C35.7826 12.1029 33.6797 10 31.0951 10H16.6875C14.1029 10 12 12.1029 12 14.6875V35.3125C12 37.8971 14.1029 40 16.6875 40H20.6068C21.2543 40 21.7787 39.4756 21.7787 38.8281C21.7787 38.1807 21.2537 37.6562 20.6068 37.6562Z" fill="#EEF2FA"/>
<path d="M37.858 26.967C36.4875 25.5965 34.2569 25.5965 32.887 26.9658L26.4534 33.3854C26.3169 33.5219 26.2161 33.6895 26.1598 33.8746L24.7588 38.4877C24.6346 38.8967 24.743 39.3408 25.0413 39.6467C25.2651 39.8758 25.5686 40 25.8803 40C25.9846 40 26.0901 39.9859 26.1932 39.9572L30.9235 38.6471C31.118 38.5932 31.2956 38.49 31.4385 38.3471L37.8586 31.9387C39.2291 30.5682 39.2291 28.3381 37.858 26.967ZM30.0006 36.4709L27.6211 37.1301L28.3178 34.8373L32.659 30.5055L34.3166 32.1631L30.0006 36.4709ZM36.2016 30.2811L35.9743 30.5078L34.3166 28.8502L34.5428 28.6246C34.9998 28.1676 35.7434 28.1676 36.1998 28.6246C36.6563 29.0816 36.658 29.8246 36.2016 30.2811Z" fill="#EEF2FA"/>
<path d="M29.9232 17.0312H17.8529C17.2054 17.0312 16.681 17.5557 16.681 18.2031C16.681 18.8506 17.2054 19.375 17.8529 19.375H29.9232C30.5707 19.375 31.0951 18.8506 31.0951 18.2031C31.0951 17.5557 30.5701 17.0312 29.9232 17.0312Z" fill="#EEF2FA"/>
</g>
<defs>
<clipPath id="clip0_280_1187">
<rect width="26.8863" height="30" fill="white" transform="translate(12 10)"/>
</clipPath>
</defs>
</svg>
