<svg width="17" height="20" viewBox="0 0 17 20" fill="none" xmlns="http://www.w3.org/2000/svg">
<g clip-path="url(#clip0_471_1207)">
<path d="M14.3104 5.48321C13.8952 5.58384 13.6436 5.96075 13.6436 6.49626C13.6428 9.76393 13.6436 13.0325 13.6428 16.3001C13.6419 17.4607 12.9188 18.1821 11.7548 18.183C9.39615 18.1847 7.03749 18.1838 4.67883 18.183C3.42701 18.183 2.72607 17.4846 2.72522 16.237C2.72436 13.0256 2.72522 9.8151 2.72436 6.60371C2.72436 6.44851 2.73289 6.28734 2.69707 6.13811C2.58963 5.68787 2.17691 5.42011 1.69852 5.46872C1.2372 5.51477 0.925948 5.85842 0.92339 6.37432C0.914863 8.10793 0.919979 9.84153 0.919979 11.5743C0.919979 13.2226 0.919979 14.871 0.919979 16.5193C0.919979 16.5764 0.924243 16.6327 0.926801 16.6898C1.00525 18.4124 2.47366 19.943 4.18765 19.9694C6.85841 20.0112 9.53002 20.0104 12.2008 19.9677C13.8713 19.9413 15.4054 18.4217 15.4267 16.7546C15.4702 13.2883 15.4497 9.82107 15.4437 6.35471C15.442 5.72283 14.9116 5.33654 14.3104 5.48321Z" fill="white"/>
<path d="M15.4491 2.73493C14.4121 2.72299 13.3752 2.73066 12.3383 2.72981C12.1865 2.72981 12.0339 2.72981 11.8335 2.72981C11.8335 2.15848 11.836 1.63661 11.8326 1.11474C11.8275 0.330221 11.5026 0.00362412 10.7198 0.00191865C9.02968 -0.00063955 7.33956 -0.00063955 5.64859 0.00191865C4.86493 0.00277138 4.54004 0.329368 4.53493 1.11303C4.53151 1.6349 4.53407 2.15677 4.53407 2.72981C4.33453 2.72981 4.18275 2.72981 4.03096 2.72981C2.99404 2.73066 1.95711 2.72299 0.92019 2.73493C0.370177 2.7409 -0.00673076 3.12719 9.11067e-05 3.63883C0.00606024 4.14279 0.39917 4.53334 0.939803 4.53419C5.76883 4.53846 10.5987 4.53846 15.4277 4.53419C15.9692 4.53334 16.3615 4.1445 16.3692 3.64053C16.376 3.12974 15.9982 2.7409 15.4491 2.73493ZM9.96513 2.70679C8.76875 2.70679 7.59965 2.70679 6.40326 2.70679C6.40326 2.40918 6.40326 2.13375 6.40326 1.83359C7.58174 1.83359 8.75169 1.83359 9.96513 1.83359C9.96513 2.13375 9.96513 2.40918 9.96513 2.70679Z" fill="white"/>
<path d="M7.26306 8.29665C7.25965 7.66733 6.91514 7.27508 6.37707 7.26911C5.83047 7.26314 5.45867 7.68098 5.45782 8.3137C5.45612 10.3432 5.45612 12.3736 5.45782 14.4031C5.45867 15.0384 5.8262 15.4553 6.3728 15.4519C6.91088 15.4485 7.25879 15.0563 7.26306 14.4287C7.26817 13.4207 7.26476 12.4128 7.26476 11.4049C7.26391 10.3688 7.26817 9.33272 7.26306 8.29665Z" fill="white"/>
<path d="M10.9108 8.29623C10.9091 7.68738 10.5483 7.27722 10.0171 7.26869C9.47732 7.26016 9.10808 7.65413 9.10638 8.2698C9.10126 10.3283 9.10126 12.3859 9.10638 14.4444C9.10808 15.0627 9.47305 15.4575 10.012 15.4507C10.5432 15.4447 10.9082 15.0337 10.9099 14.4274C10.9133 13.4195 10.9108 12.4115 10.9108 11.4036C10.9116 10.3692 10.9142 9.3323 10.9108 8.29623Z" fill="white"/>
</g>
<defs>
<clipPath id="clip0_471_1207">
<rect width="16.3691" height="20" fill="white"/>
</clipPath>
</defs>
</svg>
