<svg width="50" height="50" viewBox="0 0 50 50" fill="none" xmlns="http://www.w3.org/2000/svg">
<rect width="50" height="50" rx="18" fill="url(#paint0_linear_237_929)"/>
<g clip-path="url(#clip0_237_929)" filter="url(#filter0_d_237_929)">
<path d="M39.5799 36.6403C39.4599 36.4603 39.0399 36.5203 38.7999 36.5203C34.1799 36.5203 29.6199 36.5203 24.9999 36.5203C20.3199 36.5203 15.6999 36.5203 11.0199 36.5203C10.3599 36.5203 9.93994 36.8803 9.93994 37.4203C9.93994 37.9603 10.3599 38.2603 10.9599 38.2603C11.4999 38.2603 12.0399 38.2603 12.5199 38.2603C12.6999 38.2603 12.9999 38.4403 13.0599 38.6203C13.6599 39.5803 14.4399 40.0003 15.5199 40.0003C21.7599 40.0003 28.0599 40.0003 34.2999 40.0003C35.3799 40.0003 36.2199 39.5203 36.7599 38.6203C36.8799 38.4403 37.1199 38.3203 37.3599 38.2603C37.8999 38.2003 38.4999 38.2603 39.0399 38.2603C39.4599 38.2603 39.8199 38.0203 39.8799 37.6003C39.9999 37.2403 39.8199 36.8803 39.5799 36.6403Z" fill="url(#paint1_linear_237_929)"/>
<path d="M30.34 27.7005C30.22 27.7005 30.04 27.7005 29.86 27.7605C31.6 30.1005 31.54 32.3805 29.8 34.7805C31.48 34.7805 33.04 34.7805 34.6 34.7805C36.64 34.7805 38.14 33.2205 38.2 31.3005C38.2 29.3205 36.64 27.7605 34.6 27.7605C33.22 27.6405 31.78 27.7005 30.34 27.7005Z" fill="url(#paint2_linear_237_929)"/>
<path d="M26.38 20.6201C25.78 20.6201 25.24 20.6201 24.52 20.6201C25.84 22.2401 26.2 23.9801 25.54 25.8401C25.66 25.8401 25.72 25.9001 25.78 25.9001C28.48 25.9001 31.12 25.9001 33.82 25.9001C34 25.9001 34.3 25.6601 34.36 25.4801C35.32 23.2601 33.64 20.6801 31.18 20.6801C29.62 20.6201 28 20.6201 26.38 20.6201Z" fill="url(#paint3_linear_237_929)"/>
<path d="M13.6 34.7209C15.52 34.7209 17.08 33.1009 17.08 31.1809C17.08 29.2009 15.46 27.6409 13.54 27.7009C11.62 27.7009 10 29.3209 10 31.2409C10 33.1609 11.68 34.7209 13.6 34.7209ZM13.6 30.3409C14.08 30.3409 14.44 30.7609 14.44 31.1809C14.44 31.6609 14.02 32.0809 13.54 32.0209C13.06 32.0209 12.7 31.6009 12.7 31.1809C12.7 30.7009 13.12 30.3409 13.6 30.3409Z" fill="url(#paint4_linear_237_929)"/>
<path d="M22.4198 31.2408C22.4198 33.1608 23.9798 34.7208 25.8998 34.7208C27.8798 34.7208 29.4398 33.1008 29.4398 31.1808C29.4398 29.2608 27.8798 27.7008 25.9598 27.7008C23.9798 27.6408 22.3598 29.2608 22.4198 31.2408ZM26.7998 31.1808C26.7998 31.6608 26.3798 32.0808 25.8998 32.0808C25.4198 32.0808 25.0598 31.7208 25.0598 31.2408C25.0598 30.7608 25.4798 30.3408 25.9598 30.3408C26.3798 30.3408 26.7398 30.7008 26.7998 31.1808Z" fill="url(#paint5_linear_237_929)"/>
<path d="M17.98 25.9009C18.82 25.9009 19.72 25.9009 20.56 25.9009C21.46 25.9009 22.36 25.9009 23.26 25.9009C23.44 25.9009 23.74 25.7209 23.8 25.5409C24.46 24.1609 24.04 22.3609 22.78 21.4009C21.52 20.4409 19.72 20.3809 18.46 21.4009C17.2 22.3609 16.72 24.1009 17.38 25.5409C17.5 25.7809 17.68 25.9009 17.98 25.9009ZM20.62 23.2609C21.1 23.2609 21.52 23.6209 21.52 24.1609C21.52 24.6409 21.16 25.0009 20.68 25.0009C20.2 25.0009 19.78 24.6409 19.78 24.1009C19.78 23.6809 20.14 23.3209 20.62 23.2609Z" fill="url(#paint6_linear_237_929)"/>
<path d="M17.5601 27.7002C19.3001 30.0402 19.3001 32.3802 17.5601 34.6602C19.0601 34.6602 20.4401 34.6602 21.8801 34.6602C20.1401 32.3202 20.1401 30.0402 21.8801 27.7002C20.4401 27.7002 19.0601 27.7002 17.5601 27.7002Z" fill="url(#paint7_linear_237_929)"/>
<path d="M20.0799 18.7605C20.4999 19.0605 21.0399 19.0605 21.3399 18.7005C21.6399 18.3405 21.5799 17.8005 21.2199 17.4405C20.3799 16.6005 20.4399 16.0005 21.2799 15.2205C22.0599 14.5605 22.4199 13.7205 22.4799 12.7005C22.4799 11.7405 22.1199 10.9005 21.2799 10.2405C20.7999 9.88047 20.3199 9.88047 19.9599 10.3005C19.5999 10.7205 19.7199 11.1405 20.1399 11.6205C20.3799 11.8605 20.5599 12.1605 20.6799 12.5205C20.7999 13.1205 20.4999 13.6005 20.0199 13.9605C18.3999 15.2205 18.4599 17.6205 20.0799 18.7605Z" fill="url(#paint8_linear_237_929)"/>
<path d="M28.9 18.7605C29.32 19.0605 29.86 19.0605 30.16 18.7005C30.46 18.3405 30.4 17.8005 30.04 17.4405C29.2 16.6005 29.2 15.9405 30.1 15.2205C30.88 14.5605 31.3 13.7205 31.3 12.8805C31.3 11.7405 30.82 10.7805 30.1 10.2405C29.62 9.94047 29.14 9.94047 28.84 10.3005C28.54 10.6605 28.6 11.1405 28.96 11.5605C29.14 11.8005 29.38 12.0405 29.5 12.2805C29.68 12.9405 29.44 13.4205 28.9 13.8405C27.22 15.2205 27.28 17.6205 28.9 18.7605Z" fill="url(#paint9_linear_237_929)"/>
<path d="M24.58 18.8205C25 19.1205 25.48 19.0005 25.78 18.6405C26.08 18.2205 26.02 17.8605 25.72 17.5005C24.82 16.4805 24.82 16.0605 25.84 15.1605C27.34 13.9005 27.28 11.4405 25.72 10.3005C25.24 9.94046 24.82 10.0005 24.46 10.3605C24.1 10.7205 24.16 11.2005 24.52 11.6205C25.42 12.5205 25.36 13.1805 24.4 14.0205C23.68 14.6205 23.32 15.4005 23.26 16.3605C23.26 17.3805 23.68 18.2205 24.58 18.8205Z" fill="url(#paint10_linear_237_929)"/>
</g>
<defs>
<filter id="filter0_d_237_929" x="5" y="8" width="40" height="40" filterUnits="userSpaceOnUse" color-interpolation-filters="sRGB">
<feFlood flood-opacity="0" result="BackgroundImageFix"/>
<feColorMatrix in="SourceAlpha" type="matrix" values="0 0 0 0 0 0 0 0 0 0 0 0 0 0 0 0 0 0 127 0" result="hardAlpha"/>
<feOffset dy="3"/>
<feGaussianBlur stdDeviation="2.5"/>
<feComposite in2="hardAlpha" operator="out"/>
<feColorMatrix type="matrix" values="0 0 0 0 0 0 0 0 0 0 0 0 0 0 0 0 0 0 0.1 0"/>
<feBlend mode="normal" in2="BackgroundImageFix" result="effect1_dropShadow_237_929"/>
<feBlend mode="normal" in="SourceGraphic" in2="effect1_dropShadow_237_929" result="shape"/>
</filter>
<linearGradient id="paint0_linear_237_929" x1="4" y1="46.5" x2="46.5" y2="4" gradientUnits="userSpaceOnUse">
<stop stop-color="#05C9D6"/>
<stop offset="1" stop-color="#BCFBFF"/>
</linearGradient>
<linearGradient id="paint1_linear_237_929" x1="24.929" y1="36.5107" x2="24.929" y2="40.0003" gradientUnits="userSpaceOnUse">
<stop stop-color="white"/>
<stop offset="1" stop-color="#C5FCFF"/>
</linearGradient>
<linearGradient id="paint2_linear_237_929" x1="34" y1="27.6855" x2="34" y2="34.7805" gradientUnits="userSpaceOnUse">
<stop stop-color="white"/>
<stop offset="1" stop-color="#C5FCFF"/>
</linearGradient>
<linearGradient id="paint3_linear_237_929" x1="29.5771" y1="20.6201" x2="29.5771" y2="25.9001" gradientUnits="userSpaceOnUse">
<stop stop-color="white"/>
<stop offset="1" stop-color="#C5FCFF"/>
</linearGradient>
<linearGradient id="paint4_linear_237_929" x1="13.54" y1="27.6992" x2="13.54" y2="34.7209" gradientUnits="userSpaceOnUse">
<stop stop-color="white"/>
<stop offset="1" stop-color="#C5FCFF"/>
</linearGradient>
<linearGradient id="paint5_linear_237_929" x1="25.929" y1="27.6992" x2="25.929" y2="34.7208" gradientUnits="userSpaceOnUse">
<stop stop-color="white"/>
<stop offset="1" stop-color="#C5FCFF"/>
</linearGradient>
<linearGradient id="paint6_linear_237_929" x1="20.5968" y1="20.6582" x2="20.5968" y2="25.9009" gradientUnits="userSpaceOnUse">
<stop stop-color="white"/>
<stop offset="1" stop-color="#C5FCFF"/>
</linearGradient>
<linearGradient id="paint7_linear_237_929" x1="19.7201" y1="27.7002" x2="19.7201" y2="34.6602" gradientUnits="userSpaceOnUse">
<stop stop-color="white"/>
<stop offset="1" stop-color="#C5FCFF"/>
</linearGradient>
<linearGradient id="paint8_linear_237_929" x1="20.6572" y1="9.97754" x2="20.6572" y2="18.9785" gradientUnits="userSpaceOnUse">
<stop stop-color="white"/>
<stop offset="1" stop-color="#C5FCFF"/>
</linearGradient>
<linearGradient id="paint9_linear_237_929" x1="29.4812" y1="10.0225" x2="29.4812" y2="18.9785" gradientUnits="userSpaceOnUse">
<stop stop-color="white"/>
<stop offset="1" stop-color="#C5FCFF"/>
</linearGradient>
<linearGradient id="paint10_linear_237_929" x1="25.0943" y1="10.0586" x2="25.0943" y2="18.9905" gradientUnits="userSpaceOnUse">
<stop stop-color="white"/>
<stop offset="1" stop-color="#C5FCFF"/>
</linearGradient>
<clipPath id="clip0_237_929">
<rect width="30" height="30" fill="white" transform="translate(10 10)"/>
</clipPath>
</defs>
</svg>
