<svg width="50" height="50" viewBox="0 0 50 50" fill="none" xmlns="http://www.w3.org/2000/svg">
<rect width="50" height="50" rx="18" fill="url(#paint0_linear_237_927)"/>
<g clip-path="url(#clip0_237_927)" filter="url(#filter0_d_237_927)">
<path d="M19.5399 19.96C19.7799 19.96 20.0199 19.96 20.2599 19.96C21.0399 19.96 21.9399 19.72 22.5399 20.08C23.1399 20.38 23.5599 21.22 23.9799 21.88C24.6399 22.72 25.1799 22.72 25.8399 21.94C26.3799 21.34 26.8599 20.44 27.5199 20.14C28.2399 19.84 29.1999 20.02 30.0399 20.02C31.4799 20.02 32.3799 19.12 32.3799 17.68C32.3799 15.94 32.3799 14.14 32.3799 12.4C32.3799 10.9 31.4799 10 30.0399 10C28.3599 10 26.6199 10 24.9399 10C23.1399 10 21.3999 10 19.5999 10C18.3399 10 17.3799 10.9 17.3799 12.1C17.3799 14.02 17.3799 15.94 17.3799 17.92C17.4999 19.06 18.3999 19.9 19.5399 19.96Z" fill="url(#paint1_linear_237_927)"/>
<path d="M28.54 33.7598C26.2 33.6998 23.8 33.6998 21.46 33.7598C19.78 33.7598 18.46 35.0198 18.22 36.6398C18.1 37.3598 18.16 38.0198 18.16 38.7398C18.16 39.6398 18.46 39.9998 19.36 39.9998C21.22 39.9998 23.08 39.9998 25 39.9998C26.92 39.9998 28.84 39.9998 30.82 39.9998C31.6 39.9998 31.9 39.6398 31.96 38.9198C31.96 38.3198 31.96 37.7198 31.96 37.1798C31.78 35.1998 30.4 33.8198 28.54 33.7598Z" fill="url(#paint2_linear_237_927)"/>
<path d="M12.22 21.2802C12.46 21.2802 12.7 21.4602 12.88 21.6402C13.36 22.1802 13.72 22.7802 14.2 23.3802C14.62 23.9202 15.22 23.9802 15.64 23.5602C16.3 22.8402 16.9 22.1202 17.56 21.4002C17.38 21.2202 17.26 21.1002 17.08 20.9802C16.24 20.2602 15.7 19.3602 15.64 18.3402C15.58 16.0602 15.64 13.7202 15.64 11.3802C14.5 11.3802 13.36 11.3802 12.22 11.3802C10.9 11.2602 10 12.2202 10 13.5402C10 15.3402 10 17.1402 10 18.9402C10 20.3202 10.9 21.1602 12.22 21.2802Z" fill="url(#paint3_linear_237_927)"/>
<path d="M32.4399 21.2804C33.0399 22.0004 33.6399 22.6604 34.2399 23.3204C34.7799 23.9204 35.3799 23.8604 35.8599 23.2604C36.2799 22.7204 36.6999 22.2404 37.0599 21.6404C37.2399 21.3404 37.4799 21.2204 37.8999 21.2204C39.0999 21.2204 40.0599 20.3204 40.0599 19.1204C40.0599 17.2004 40.0599 15.2804 40.0599 13.3004C40.0599 12.2804 39.2799 11.3804 38.3199 11.2604C36.9999 11.1404 35.6799 11.2604 34.4199 11.2604C34.4199 13.1804 34.3599 15.1004 34.4199 17.0204C34.4199 18.7604 33.9399 20.2604 32.4399 21.2804Z" fill="url(#paint4_linear_237_927)"/>
<path d="M21.22 28.12C21.22 30.16 22.9 31.9 24.94 31.9C26.98 31.9 28.66 30.22 28.72 28.18C28.72 26.08 27.1 24.4 25 24.4C22.96 24.34 21.28 26.02 21.22 28.12Z" fill="url(#paint5_linear_237_927)"/>
<path d="M36.7 32.5001C35.56 32.4401 34.36 32.4401 33.22 32.5001C32.68 32.5001 32.2 32.7401 31.54 32.9201C33.1 34.1801 33.7 35.6801 33.7 37.4801C35.5 37.4801 37.24 37.4801 38.98 37.4801C39.46 37.4801 39.76 37.1801 39.88 36.7001C40.36 34.7201 38.8 32.5601 36.7 32.5001Z" fill="url(#paint6_linear_237_927)"/>
<path d="M16.5399 32.5003C15.5799 32.4403 14.6799 32.5003 13.7199 32.5003C11.3799 32.5003 9.93994 33.9403 9.93994 36.2803C9.93994 37.1803 10.2399 37.4803 11.1399 37.4803C12.6399 37.4803 14.1999 37.4803 15.6999 37.4803C15.8199 37.4803 15.9999 37.4803 16.1199 37.4203C16.4799 34.9003 16.6599 34.5403 18.3399 32.8603C17.7399 32.7403 17.1399 32.5603 16.5399 32.5003Z" fill="url(#paint7_linear_237_927)"/>
<path d="M12.5198 28.7798C12.5198 30.1598 13.6598 31.2398 15.0398 31.2398C16.4198 31.2398 17.5598 30.1598 17.5598 28.7798C17.5598 27.3998 16.4198 26.2598 15.0398 26.2598C13.5998 26.2598 12.4598 27.3998 12.5198 28.7798Z" fill="url(#paint8_linear_237_927)"/>
<path d="M35.02 26.2598C33.64 26.2598 32.5 27.3998 32.5 28.7798C32.5 30.1598 33.64 31.2398 35.02 31.2398C36.4 31.2398 37.48 30.0998 37.48 28.7198C37.48 27.3998 36.4 26.2598 35.02 26.2598Z" fill="url(#paint9_linear_237_927)"/>
</g>
<defs>
<filter id="filter0_d_237_927" x="5" y="8" width="40" height="40" filterUnits="userSpaceOnUse" color-interpolation-filters="sRGB">
<feFlood flood-opacity="0" result="BackgroundImageFix"/>
<feColorMatrix in="SourceAlpha" type="matrix" values="0 0 0 0 0 0 0 0 0 0 0 0 0 0 0 0 0 0 127 0" result="hardAlpha"/>
<feOffset dy="3"/>
<feGaussianBlur stdDeviation="2.5"/>
<feComposite in2="hardAlpha" operator="out"/>
<feColorMatrix type="matrix" values="0 0 0 0 0 0 0 0 0 0 0 0 0 0 0 0 0 0 0.1 0"/>
<feBlend mode="normal" in2="BackgroundImageFix" result="effect1_dropShadow_237_927"/>
<feBlend mode="normal" in="SourceGraphic" in2="effect1_dropShadow_237_927" result="shape"/>
</filter>
<linearGradient id="paint0_linear_237_927" x1="4" y1="46.5" x2="46.5" y2="4" gradientUnits="userSpaceOnUse">
<stop stop-color="#BC0833"/>
<stop offset="1" stop-color="#FFB1BF"/>
</linearGradient>
<linearGradient id="paint1_linear_237_927" x1="24.8799" y1="10" x2="24.8799" y2="22.5177" gradientUnits="userSpaceOnUse">
<stop stop-color="white"/>
<stop offset="1" stop-color="#FFD4DD"/>
</linearGradient>
<linearGradient id="paint2_linear_237_927" x1="25.0525" y1="33.7148" x2="25.0525" y2="39.9998" gradientUnits="userSpaceOnUse">
<stop stop-color="white"/>
<stop offset="1" stop-color="#FFD4DD"/>
</linearGradient>
<linearGradient id="paint3_linear_237_927" x1="13.78" y1="11.3701" x2="13.78" y2="23.8359" gradientUnits="userSpaceOnUse">
<stop stop-color="white"/>
<stop offset="1" stop-color="#FFD4DD"/>
</linearGradient>
<linearGradient id="paint4_linear_237_927" x1="36.2499" y1="11.207" x2="36.2499" y2="23.7415" gradientUnits="userSpaceOnUse">
<stop stop-color="white"/>
<stop offset="1" stop-color="#FFD4DD"/>
</linearGradient>
<linearGradient id="paint5_linear_237_927" x1="24.97" y1="24.3984" x2="24.97" y2="31.9" gradientUnits="userSpaceOnUse">
<stop stop-color="white"/>
<stop offset="1" stop-color="#FFD4DD"/>
</linearGradient>
<linearGradient id="paint6_linear_237_927" x1="35.7537" y1="32.4551" x2="35.7537" y2="37.4801" gradientUnits="userSpaceOnUse">
<stop stop-color="white"/>
<stop offset="1" stop-color="#FFD4DD"/>
</linearGradient>
<linearGradient id="paint7_linear_237_927" x1="14.1399" y1="32.4736" x2="14.1399" y2="37.4803" gradientUnits="userSpaceOnUse">
<stop stop-color="white"/>
<stop offset="1" stop-color="#FFD4DD"/>
</linearGradient>
<linearGradient id="paint8_linear_237_927" x1="15.0387" y1="26.2598" x2="15.0387" y2="31.2398" gradientUnits="userSpaceOnUse">
<stop stop-color="white"/>
<stop offset="1" stop-color="#FFD4DD"/>
</linearGradient>
<linearGradient id="paint9_linear_237_927" x1="34.99" y1="26.2598" x2="34.99" y2="31.2398" gradientUnits="userSpaceOnUse">
<stop stop-color="white"/>
<stop offset="1" stop-color="#FFD4DD"/>
</linearGradient>
<clipPath id="clip0_237_927">
<rect width="30" height="30" fill="white" transform="translate(10 10)"/>
</clipPath>
</defs>
</svg>
