<svg width="50" height="50" viewBox="0 0 50 50" fill="none" xmlns="http://www.w3.org/2000/svg">
<rect width="50" height="50" rx="18" fill="url(#paint0_linear_203_566)"/>
<g filter="url(#filter0_d_203_566)">
<path d="M25 8C15.6092 8 8 15.6092 8 25C8 34.3908 15.6092 42 25 42C34.3908 42 42 34.3908 42 25C42 15.6092 34.3908 8 25 8ZM15.956 20.3828C16.5544 20.3828 17.0372 20.8656 17.0372 21.464C17.0372 22.0624 16.5544 22.5452 15.956 22.5452C15.3576 22.5452 14.8748 22.0624 14.8748 21.464C14.8748 20.8656 15.3576 20.3828 15.956 20.3828ZM11.4816 25.0612C11.4816 25.0612 12.692 24.966 14.4804 24.558C18.0504 23.7352 23.9188 21.6408 26.972 16.4456C27.074 16.2756 27.1692 16.0988 27.2576 15.922C27.21 16.5544 27.1964 17.4792 27.3528 18.4856C27.5228 19.5668 27.89 20.7296 28.6244 21.7088C23.8372 26.0744 19.0092 26.3804 16.1124 26.02C14.7116 25.9996 13.168 25.714 11.4816 25.0612ZM16.1328 30.4468C14.7728 29.7464 14.7524 32.48 14.7524 32.48H14.1472C14.1472 29.2772 15.5548 29.4948 15.5548 29.4948C15.5548 29.4948 16.2348 29.964 16.1328 30.4468ZM18.7508 33.0648C18.7508 33.0648 18.7372 33.0308 17.8056 32.9832C17.6832 29.9776 19.1656 29.0936 19.6008 29.0936C20.036 29.0936 20.5936 29.5152 20.6684 30.0116C18.6284 29.3588 18.7508 33.0648 18.7508 33.0648ZM24.4764 33.8876C24.4764 33.8876 24.4764 33.8876 23.3476 33.8876C23.5448 29.3316 24.898 28.4272 25.646 28.23C26.36 28.3252 26.938 28.8148 27.006 29.59C25.0544 28.1008 24.4764 33.8876 24.4764 33.8876ZM30.032 34.9552L29.0936 24.4152C29.0936 24.4152 26.8292 28.196 13.9024 27.7744L13.8684 27.652C13.8684 27.652 24.116 28.2028 29.0324 22.9668C32.2624 24.8436 33.2348 25.034 34.8804 25.1632C36.2404 31.8204 36.2404 32.0516 36.2404 32.0516L30.032 34.9552ZM34.1596 23.9664C26.7884 23.3816 28.2912 15.0448 28.2912 15.0448C31.3444 21.3008 38.5252 22.1712 38.5252 22.1712C38.5252 22.1712 37.0156 23.9188 34.1596 23.9664Z" fill="url(#paint1_linear_203_566)"/>
</g>
<defs>
<filter id="filter0_d_203_566" x="3" y="6" width="44" height="44" filterUnits="userSpaceOnUse" color-interpolation-filters="sRGB">
<feFlood flood-opacity="0" result="BackgroundImageFix"/>
<feColorMatrix in="SourceAlpha" type="matrix" values="0 0 0 0 0 0 0 0 0 0 0 0 0 0 0 0 0 0 127 0" result="hardAlpha"/>
<feOffset dy="3"/>
<feGaussianBlur stdDeviation="2.5"/>
<feComposite in2="hardAlpha" operator="out"/>
<feColorMatrix type="matrix" values="0 0 0 0 0 0 0 0 0 0 0 0 0 0 0 0 0 0 0.1 0"/>
<feBlend mode="normal" in2="BackgroundImageFix" result="effect1_dropShadow_203_566"/>
<feBlend mode="normal" in="SourceGraphic" in2="effect1_dropShadow_203_566" result="shape"/>
</filter>
<linearGradient id="paint0_linear_203_566" x1="4" y1="46.5" x2="46.5" y2="4" gradientUnits="userSpaceOnUse">
<stop stop-color="#42BC08"/>
<stop offset="1" stop-color="#9FFF9D"/>
</linearGradient>
<linearGradient id="paint1_linear_203_566" x1="14.2333" y1="16.5" x2="32.3667" y2="39.7333" gradientUnits="userSpaceOnUse">
<stop stop-color="#C3FFB0"/>
<stop offset="1" stop-color="white"/>
</linearGradient>
</defs>
</svg>
