<svg width="50" height="50" viewBox="0 0 50 50" fill="none" xmlns="http://www.w3.org/2000/svg">
<rect width="50" height="50" rx="18" fill="url(#paint0_linear_237_926)"/>
<g clip-path="url(#clip0_237_926)" filter="url(#filter0_d_237_926)">
<path d="M14.44 24.3402C15.82 23.6202 17.14 22.8402 18.52 22.0602C19.06 21.7602 19.24 21.4002 19.06 20.7402C18.88 20.1402 18.7 19.4802 18.52 18.8802C18.4 18.4602 18.46 18.1002 18.76 17.7402C21.04 14.9202 25.6 13.6002 29.08 14.8002C29.5 14.9202 29.8 15.2202 29.92 15.7002C30.1 16.3002 30.22 16.9002 30.4 17.5002C30.58 18.2202 30.88 18.4002 31.6 18.4002C33.16 18.3402 34.72 18.2202 36.22 18.1602C36.88 18.1002 37.18 17.8002 37.24 17.1402C37.3 16.6002 37.3 16.0602 37.36 15.5202C37.36 15.3402 37.42 15.1602 37.42 14.9802C37.48 14.6202 37.48 14.2602 37.54 13.9002C37.54 13.5402 37.6 13.1802 37.6 12.8202C37.66 12.0402 37.48 11.7402 36.76 11.4402C35.08 10.7802 33.28 10.3602 31.48 10.1802C26.92 9.70024 22.6 10.5402 18.4 12.4602C15.22 13.9602 12.46 16.0602 10.36 18.8802C9.88 19.5402 9.88 19.8402 10.36 20.5002C11.2 21.6402 12.04 22.8402 12.94 23.9802C13.36 24.5802 13.78 24.7002 14.44 24.3402Z" fill="url(#paint1_linear_237_926)"/>
<path d="M39.7599 20.0804C39.5799 20.0204 39.16 20.1404 39.04 20.2604C37.72 22.2404 34.96 22.9004 32.92 21.7004C32.62 21.5204 32.32 21.5204 32.14 21.8804C31.96 22.2404 32.14 22.4804 32.5 22.6004C33.2799 22.9004 34.18 23.1404 35.02 23.2604C35.38 23.3204 35.7999 23.3204 36.1599 23.2004C36.5199 23.1404 36.88 23.0204 37.24 22.9004C38.32 22.4804 39.2199 21.7004 39.8799 20.8004C40.0599 20.5604 40.1199 20.2004 39.7599 20.0804Z" fill="url(#paint2_linear_237_926)"/>
<path d="M33.7601 19.8406C33.4601 19.7206 33.1601 19.6606 32.9801 19.9606C32.8001 20.2606 32.9201 20.6206 33.2201 20.7406C33.5801 20.8606 33.8801 20.9806 34.2401 21.1006C34.4201 21.1606 34.6001 21.2206 34.7801 21.2806C34.9001 21.3406 34.9601 21.3406 35.0801 21.3406C35.2601 21.3406 35.3801 21.3406 35.5601 21.2806C36.5201 21.0406 37.4201 20.5606 38.0201 19.7206C38.2001 19.4206 38.3201 19.1206 38.0201 18.8806C37.7201 18.6406 37.4801 18.7606 37.2401 19.0606C36.2201 20.3206 35.2001 20.5006 33.7601 19.8406Z" fill="url(#paint3_linear_237_926)"/>
<path d="M33.94 27.3999C33.58 26.7999 33.1 26.4399 32.44 26.3199C31.36 26.1399 31.18 25.8399 31.18 24.7599C31.18 24.2199 31.18 23.6799 31.18 23.1399C31.18 22.5999 31 22.2399 30.52 21.9399C28.84 20.8599 26.98 20.3799 25 20.3799C23.02 20.3799 21.16 20.8599 19.48 21.9399C19 22.2399 18.82 22.5999 18.82 23.1399C18.82 23.6799 18.82 24.2199 18.82 24.7599C18.82 25.8399 18.64 26.0799 17.56 26.3199C16.9 26.4399 16.42 26.7999 16.06 27.3999C14.98 29.1399 14.02 30.9399 12.76 32.5599C11.38 34.4199 10.78 36.3999 11.08 38.6799C11.08 38.7399 11.08 38.7399 11.08 38.7999C11.08 39.5799 11.44 39.9999 12.28 39.9999C16.54 39.9999 20.8 39.9999 25 39.9999C29.2 39.9999 33.52 39.9999 37.72 39.9999C38.5 39.9999 38.92 39.6399 38.92 38.7999C38.92 38.7399 38.92 38.7399 38.92 38.6799C39.22 36.3999 38.62 34.4199 37.18 32.5599C35.98 30.9399 34.96 29.1399 33.94 27.3999ZM30.46 30.6999C30.04 30.6999 29.68 30.6999 29.32 30.6999C28.36 30.6999 28.36 30.6999 28.3 29.7399C29.86 29.5599 30.04 29.6199 30.46 30.6999ZM21.64 29.6799C21.58 30.6399 21.58 30.6399 20.62 30.6399C20.26 30.6399 19.9 30.6399 19.48 30.6399C19.96 29.6199 20.14 29.5599 21.64 29.6799ZM20.02 35.5599C19.96 35.6799 19.78 35.8599 19.6 35.8599C18.76 35.8599 17.98 35.8599 17.14 35.8599C16.54 35.8599 16.36 35.4999 16.66 34.9599C16.9 34.4799 17.2 34.2399 17.8 34.2999C18.64 34.3599 19.48 34.2999 20.38 34.2999C20.26 34.8399 20.2 35.1999 20.02 35.5599ZM19.42 33.2799C18.94 33.2799 18.4 33.2799 17.8 33.2799C18.16 32.7399 18.4 32.3199 18.7 31.8999C18.76 31.7799 18.94 31.7199 19.06 31.7199C19.72 31.7199 20.44 31.7199 21.1 31.7199C21.16 31.8399 21.16 31.8399 21.16 31.8399C20.86 33.2799 20.86 33.2799 19.42 33.2799ZM24.46 35.7999C23.32 35.7999 22.24 35.7999 21.04 35.7999C21.16 35.3799 21.22 34.9599 21.4 34.5399C21.46 34.4199 21.64 34.2999 21.76 34.2399C22.66 34.2399 23.5 34.2399 24.46 34.2399C24.46 34.8399 24.46 35.3199 24.46 35.7999ZM24.46 31.7199C24.46 32.2599 24.46 32.7399 24.46 33.2799C23.56 33.2799 22.72 33.2799 21.82 33.2799C21.94 32.7999 22.06 32.3799 22.18 31.9599C22.24 31.8399 22.36 31.7199 22.48 31.7199C23.14 31.7199 23.8 31.7199 24.46 31.7199ZM22.6 30.6399C22.72 29.6199 22.72 29.6199 23.62 29.6199C23.86 29.6199 24.16 29.6199 24.46 29.6199C24.46 29.9799 24.46 30.2799 24.46 30.6399C23.86 30.6399 23.26 30.6399 22.6 30.6399ZM21.58 27.5799C20.8 27.5799 20.38 27.2199 20.38 26.3799C20.38 25.5999 20.38 24.8799 20.38 24.0999C20.38 23.3199 20.8 22.8999 21.52 22.8999C22.66 22.8999 23.86 22.8999 25 22.8999C26.14 22.8999 27.34 22.8999 28.48 22.8999C29.26 22.8999 29.62 23.3199 29.62 24.0999C29.62 24.8799 29.62 25.5999 29.62 26.3799C29.62 27.1599 29.2 27.5799 28.42 27.5799C27.28 27.5799 26.14 27.5799 25 27.5799C23.86 27.5799 22.72 27.5799 21.58 27.5799ZM25.54 31.7199C26.2 31.7199 26.86 31.7199 27.52 31.7199C27.64 31.7199 27.76 31.8399 27.82 31.9599C27.94 32.3799 28.06 32.7999 28.18 33.2799C27.22 33.2799 26.38 33.2799 25.54 33.2799C25.54 32.7399 25.54 32.2599 25.54 31.7199ZM25.54 30.6399C25.54 30.3399 25.54 30.0399 25.54 29.6199C25.84 29.6199 26.14 29.6199 26.38 29.6199C27.28 29.6199 27.28 29.6199 27.4 30.6399C26.74 30.6399 26.14 30.6399 25.54 30.6399ZM25.54 35.7999C25.54 35.2599 25.54 34.8399 25.54 34.2999C26.5 34.2999 27.34 34.2999 28.24 34.2999C28.36 34.2999 28.54 34.4199 28.6 34.5999C28.72 35.0199 28.84 35.3799 28.96 35.8599C27.76 35.7999 26.68 35.7999 25.54 35.7999ZM28.9 31.8399C28.9 31.8399 28.9 31.7799 28.96 31.7199C29.62 31.7199 30.34 31.7199 31 31.7199C31.12 31.7199 31.3 31.7799 31.36 31.8999C31.66 32.3199 31.9 32.7399 32.26 33.2799C31.6 33.2799 31.12 33.2799 30.64 33.2799C29.14 33.2799 29.14 33.2799 28.9 31.8399ZM32.8 35.8599C31.96 35.8599 31.18 35.8599 30.34 35.8599C30.22 35.8599 29.98 35.7399 29.92 35.5599C29.74 35.1999 29.68 34.7799 29.56 34.2999C30.52 34.2999 31.36 34.3599 32.14 34.2999C32.74 34.2399 33.04 34.4799 33.28 34.9599C33.58 35.4999 33.4 35.8599 32.8 35.8599Z" fill="url(#paint4_linear_237_926)"/>
</g>
<defs>
<filter id="filter0_d_237_926" x="5" y="8" width="40" height="40" filterUnits="userSpaceOnUse" color-interpolation-filters="sRGB">
<feFlood flood-opacity="0" result="BackgroundImageFix"/>
<feColorMatrix in="SourceAlpha" type="matrix" values="0 0 0 0 0 0 0 0 0 0 0 0 0 0 0 0 0 0 127 0" result="hardAlpha"/>
<feOffset dy="3"/>
<feGaussianBlur stdDeviation="2.5"/>
<feComposite in2="hardAlpha" operator="out"/>
<feColorMatrix type="matrix" values="0 0 0 0 0 0 0 0 0 0 0 0 0 0 0 0 0 0 0.1 0"/>
<feBlend mode="normal" in2="BackgroundImageFix" result="effect1_dropShadow_237_926"/>
<feBlend mode="normal" in="SourceGraphic" in2="effect1_dropShadow_237_926" result="shape"/>
</filter>
<linearGradient id="paint0_linear_237_926" x1="4" y1="46.5" x2="46.5" y2="4" gradientUnits="userSpaceOnUse">
<stop stop-color="#F58749"/>
<stop offset="1" stop-color="#FFDF9F"/>
</linearGradient>
<linearGradient id="paint1_linear_237_926" x1="23.8054" y1="10.0479" x2="23.8054" y2="24.5427" gradientUnits="userSpaceOnUse">
<stop stop-color="white"/>
<stop offset="1" stop-color="#FFE6BF"/>
</linearGradient>
<linearGradient id="paint2_linear_237_926" x1="36.0462" y1="20.0645" x2="36.0462" y2="23.2998" gradientUnits="userSpaceOnUse">
<stop stop-color="white"/>
<stop offset="1" stop-color="#FFE6BF"/>
</linearGradient>
<linearGradient id="paint3_linear_237_926" x1="35.5492" y1="18.7529" x2="35.5492" y2="21.3406" gradientUnits="userSpaceOnUse">
<stop stop-color="white"/>
<stop offset="1" stop-color="#FFE6BF"/>
</linearGradient>
<linearGradient id="paint4_linear_237_926" x1="24.9998" y1="20.3799" x2="24.9998" y2="39.9999" gradientUnits="userSpaceOnUse">
<stop stop-color="white"/>
<stop offset="1" stop-color="#FFE6BF"/>
</linearGradient>
<clipPath id="clip0_237_926">
<rect width="30" height="30" fill="white" transform="translate(10 10)"/>
</clipPath>
</defs>
</svg>
