<svg width="35" height="35" viewBox="0 0 35 35" fill="none" xmlns="http://www.w3.org/2000/svg">
<rect width="35" height="35" rx="15" fill="#F2F5FC"/>
<g clip-path="url(#clip0_211_616)">
<path d="M20.002 15.7746H15.1211C14.0325 15.7311 14.0334 14.177 15.1211 14.134H20.002C21.0905 14.177 21.0897 15.7315 20.002 15.7746ZM28 23.0754V16.1733C28 14.6479 27.2761 13.1849 26.0628 12.2595L20.4847 8.00499C18.7272 6.6646 16.2724 6.6646 14.5149 8.00499L8.93676 12.2595C7.72393 13.1849 7 14.6479 7 16.1733V23.075C7 25.789 9.20787 27.9968 11.9219 27.9968H12.8242C13.955 27.9968 14.875 27.0768 14.875 25.946V21.7214C15.0218 18.1838 20.0614 18.1863 20.207 21.7214V25.946C20.207 27.0768 21.127 27.9968 22.2578 27.9968H23.0781C25.7921 27.9972 28 25.789 28 23.0754ZM13.2344 21.7218V25.9465C13.2344 26.1725 13.0502 26.3566 12.8242 26.3566H11.9219C10.1127 26.3566 8.64062 24.8846 8.64062 23.0754V16.1733C8.64062 15.1565 9.12338 14.1811 9.9318 13.5642L15.5099 9.3097C16.6813 8.41596 18.3183 8.41596 19.4897 9.3097L25.0678 13.5642C25.8762 14.1811 26.359 15.1565 26.359 16.1733V23.075C26.359 24.8842 24.8869 26.3562 23.0777 26.3562H22.2574C22.0314 26.3562 21.8472 26.172 21.8472 25.946V21.7214C21.8472 19.3466 19.9154 17.4148 17.5406 17.4148C15.1658 17.4148 13.2344 19.347 13.2344 21.7218Z" fill="#AEBED1"/>
</g>
<defs>
<clipPath id="clip0_211_616">
<rect width="21" height="20.9971" fill="white" transform="translate(7 7)"/>
</clipPath>
</defs>
</svg>
