<svg width="35" height="35" viewBox="0 0 35 35" fill="none" xmlns="http://www.w3.org/2000/svg">
<rect width="35" height="35" rx="15" fill="#1776E8"/>
<g clip-path="url(#clip0_211_685)">
<path d="M27.0468 20.2419C26.434 19.6492 26.1022 19.0657 26.0323 18.4575C25.9315 17.5765 25.9215 16.6726 25.926 15.827C25.936 13.9222 25.2184 12.0644 23.9049 10.596C22.5914 9.12616 20.7754 8.1524 18.7922 7.85386C18.6415 7.83104 18.5916 7.79464 18.4783 7.62231C18.2882 7.33445 17.881 7.01844 17.5007 7.00048C17.1075 6.98204 16.7013 7.35193 16.5376 7.5893C16.4028 7.78444 16.3644 7.83202 16.1902 7.86454C12.7524 8.51113 10.4693 10.4286 9.40532 13.5644C9.03653 14.6518 9.05549 15.7716 9.07396 16.8551C9.07795 17.0886 9.08194 17.3299 9.08194 17.5658C9.08194 18.642 8.68621 19.5424 7.87227 20.3181C7.00195 21.1468 6.77738 22.1482 7.22302 23.2142C7.6502 24.2365 8.64578 24.8486 9.88589 24.8515C10.6869 24.8535 11.5053 24.853 12.2967 24.8525C12.5942 24.8525 12.8926 24.852 13.1925 24.852C13.975 26.8243 15.4507 27.9684 17.2637 27.9985C17.3021 27.999 17.34 27.9995 17.3785 27.9995C19.5538 27.9995 21.0489 26.9413 21.8259 24.853C22.1183 24.8525 22.4108 24.851 22.7037 24.8496C23.4612 24.8462 24.2447 24.8423 25.0137 24.852C26.3162 24.87 27.2375 24.3336 27.7525 23.2603C28.2465 22.2317 27.996 21.1594 27.0468 20.2419ZM19.419 24.869C19.1471 25.4117 18.4304 25.8714 17.6919 25.934C16.835 26.0068 16.0281 25.5884 15.5834 24.869H19.419ZM25.7498 22.4385C25.6266 22.6924 25.4165 22.7865 24.9813 22.7846C23.7517 22.7797 22.5081 22.7788 21.2784 22.7788C20.6447 22.7788 20.0144 22.7792 19.3916 22.7792C18.7583 22.7797 18.125 22.7797 17.4912 22.7797C16.8555 22.7802 16.2202 22.7792 15.5844 22.7792C13.7889 22.7783 11.9325 22.7773 10.106 22.7841C9.6229 22.786 9.38286 22.7356 9.24363 22.4331C9.11238 22.1487 9.22916 21.9632 9.53956 21.6565C10.7008 20.5089 11.2682 19.1352 11.2742 17.4566C11.2747 17.3323 11.2747 17.208 11.2747 17.0833C11.2747 16.1755 11.2742 15.2367 11.4673 14.3658C12.0941 11.5373 15.0719 9.5077 18.1066 9.84216C21.2824 10.1922 23.6978 12.6853 23.7247 15.642C23.7302 16.226 23.7302 16.8206 23.7302 17.3954V17.5663C23.7307 19.1706 24.3281 20.5623 25.5048 21.7031C25.8072 21.9958 25.8716 22.1885 25.7498 22.4385Z" fill="#F2F5FC"/>
</g>
<defs>
<clipPath id="clip0_211_685">
<rect width="21" height="21" fill="white" transform="translate(7 7)"/>
</clipPath>
</defs>
</svg>
