<svg width="30" height="30" viewBox="0 0 30 30" fill="none" xmlns="http://www.w3.org/2000/svg">
<path d="M4.44 14.34C5.82 13.62 7.14 12.84 8.52 12.06C9.06 11.76 9.24 11.4 9.06 10.74C8.88 10.14 8.7 9.48 8.52 8.88C8.4 8.46 8.46 8.1 8.76 7.74C11.04 4.92 15.6 3.6 19.08 4.8C19.5 4.92 19.8 5.22 19.92 5.7C20.1 6.3 20.22 6.9 20.4 7.5C20.58 8.22 20.88 8.4 21.6 8.4C23.16 8.34 24.72 8.22 26.22 8.16C26.88 8.1 27.18 7.8 27.24 7.14C27.3 6.6 27.3 6.06 27.36 5.52C27.36 5.34 27.42 5.16 27.42 4.98C27.48 4.62 27.48 4.26 27.54 3.9C27.54 3.54 27.6 3.18 27.6 2.82C27.66 2.04 27.48 1.74 26.76 1.44C25.08 0.779996 23.28 0.359996 21.48 0.179996C16.92 -0.300004 12.6 0.539996 8.4 2.46C5.22 3.96 2.46 6.06 0.36 8.88C-0.12 9.54 -0.12 9.84 0.36 10.5C1.2 11.64 2.04 12.84 2.94 13.98C3.36 14.58 3.78 14.7 4.44 14.34Z" fill="white"/>
<path d="M29.76 10.08C29.58 10.02 29.16 10.14 29.04 10.26C27.72 12.24 24.96 12.9 22.92 11.7C22.62 11.52 22.32 11.52 22.14 11.88C21.96 12.24 22.14 12.48 22.5 12.6C23.28 12.9 24.18 13.14 25.02 13.26C25.38 13.32 25.8 13.32 26.16 13.2C26.52 13.14 26.88 13.02 27.24 12.9C28.32 12.48 29.22 11.7 29.88 10.8C30.06 10.56 30.12 10.2 29.76 10.08Z" fill="white"/>
<path d="M23.76 9.83999C23.46 9.71999 23.16 9.65999 22.98 9.95999C22.8 10.26 22.92 10.62 23.22 10.74C23.58 10.86 23.88 10.98 24.24 11.1C24.42 11.16 24.6 11.22 24.78 11.28C24.9 11.34 24.96 11.34 25.08 11.34C25.26 11.34 25.38 11.34 25.56 11.28C26.52 11.04 27.42 10.56 28.02 9.71999C28.2 9.41999 28.32 9.11999 28.02 8.87999C27.72 8.63999 27.48 8.75999 27.24 9.05999C26.22 10.32 25.2 10.5 23.76 9.83999Z" fill="white"/>
<path d="M23.94 17.4C23.58 16.8 23.1 16.44 22.44 16.32C21.36 16.14 21.18 15.84 21.18 14.76C21.18 14.22 21.18 13.68 21.18 13.14C21.18 12.6 21 12.24 20.52 11.94C18.84 10.86 16.98 10.38 15 10.38C13.02 10.38 11.16 10.86 9.48002 11.94C9.00002 12.24 8.82002 12.6 8.82002 13.14C8.82002 13.68 8.82002 14.22 8.82002 14.76C8.82002 15.84 8.64002 16.08 7.56002 16.32C6.90002 16.44 6.42002 16.8 6.06002 17.4C4.98002 19.14 4.02002 20.94 2.76002 22.56C1.38002 24.42 0.780021 26.4 1.08002 28.68C1.08002 28.74 1.08002 28.74 1.08002 28.8C1.08002 29.58 1.44002 30 2.28002 30C6.54002 30 10.8 30 15 30C19.2 30 23.52 30 27.72 30C28.5 30 28.92 29.64 28.92 28.8C28.92 28.74 28.92 28.74 28.92 28.68C29.22 26.4 28.62 24.42 27.18 22.56C25.98 20.94 24.96 19.14 23.94 17.4ZM20.46 20.7C20.04 20.7 19.68 20.7 19.32 20.7C18.36 20.7 18.36 20.7 18.3 19.74C19.86 19.56 20.04 19.62 20.46 20.7ZM11.64 19.68C11.58 20.64 11.58 20.64 10.62 20.64C10.26 20.64 9.90002 20.64 9.48002 20.64C9.96002 19.62 10.14 19.56 11.64 19.68ZM10.02 25.56C9.96002 25.68 9.78002 25.86 9.60002 25.86C8.76002 25.86 7.98002 25.86 7.14002 25.86C6.54002 25.86 6.36002 25.5 6.66002 24.96C6.90002 24.48 7.20002 24.24 7.80002 24.3C8.64002 24.36 9.48002 24.3 10.38 24.3C10.26 24.84 10.2 25.2 10.02 25.56ZM9.42002 23.28C8.94002 23.28 8.40002 23.28 7.80002 23.28C8.16002 22.74 8.40002 22.32 8.70002 21.9C8.76002 21.78 8.94002 21.72 9.06002 21.72C9.72002 21.72 10.44 21.72 11.1 21.72C11.16 21.84 11.16 21.84 11.16 21.84C10.86 23.28 10.86 23.28 9.42002 23.28ZM14.46 25.8C13.32 25.8 12.24 25.8 11.04 25.8C11.16 25.38 11.22 24.96 11.4 24.54C11.46 24.42 11.64 24.3 11.76 24.24C12.66 24.24 13.5 24.24 14.46 24.24C14.46 24.84 14.46 25.32 14.46 25.8ZM14.46 21.72C14.46 22.26 14.46 22.74 14.46 23.28C13.56 23.28 12.72 23.28 11.82 23.28C11.94 22.8 12.06 22.38 12.18 21.96C12.24 21.84 12.36 21.72 12.48 21.72C13.14 21.72 13.8 21.72 14.46 21.72ZM12.6 20.64C12.72 19.62 12.72 19.62 13.62 19.62C13.86 19.62 14.16 19.62 14.46 19.62C14.46 19.98 14.46 20.28 14.46 20.64C13.86 20.64 13.26 20.64 12.6 20.64ZM11.58 17.58C10.8 17.58 10.38 17.22 10.38 16.38C10.38 15.6 10.38 14.88 10.38 14.1C10.38 13.32 10.8 12.9 11.52 12.9C12.66 12.9 13.86 12.9 15 12.9C16.14 12.9 17.34 12.9 18.48 12.9C19.26 12.9 19.62 13.32 19.62 14.1C19.62 14.88 19.62 15.6 19.62 16.38C19.62 17.16 19.2 17.58 18.42 17.58C17.28 17.58 16.14 17.58 15 17.58C13.86 17.58 12.72 17.58 11.58 17.58ZM15.54 21.72C16.2 21.72 16.86 21.72 17.52 21.72C17.64 21.72 17.76 21.84 17.82 21.96C17.94 22.38 18.06 22.8 18.18 23.28C17.22 23.28 16.38 23.28 15.54 23.28C15.54 22.74 15.54 22.26 15.54 21.72ZM15.54 20.64C15.54 20.34 15.54 20.04 15.54 19.62C15.84 19.62 16.14 19.62 16.38 19.62C17.28 19.62 17.28 19.62 17.4 20.64C16.74 20.64 16.14 20.64 15.54 20.64ZM15.54 25.8C15.54 25.26 15.54 24.84 15.54 24.3C16.5 24.3 17.34 24.3 18.24 24.3C18.36 24.3 18.54 24.42 18.6 24.6C18.72 25.02 18.84 25.38 18.96 25.86C17.76 25.8 16.68 25.8 15.54 25.8ZM18.9 21.84C18.9 21.84 18.9 21.78 18.96 21.72C19.62 21.72 20.34 21.72 21 21.72C21.12 21.72 21.3 21.78 21.36 21.9C21.66 22.32 21.9 22.74 22.26 23.28C21.6 23.28 21.12 23.28 20.64 23.28C19.14 23.28 19.14 23.28 18.9 21.84ZM22.8 25.86C21.96 25.86 21.18 25.86 20.34 25.86C20.22 25.86 19.98 25.74 19.92 25.56C19.74 25.2 19.68 24.78 19.56 24.3C20.52 24.3 21.36 24.36 22.14 24.3C22.74 24.24 23.04 24.48 23.28 24.96C23.58 25.5 23.4 25.86 22.8 25.86Z" fill="white"/>
</svg>
