<svg width="35" height="35" viewBox="0 0 35 35" fill="none" xmlns="http://www.w3.org/2000/svg">
<rect width="35" height="35" rx="15" fill="#1776E8"/>
<g clip-path="url(#clip0_211_708)">
<path d="M14.7924 27.8385H20.2074C20.6448 27.8385 20.9992 27.4847 20.9992 27.0481C20.9992 26.6116 20.6448 26.2578 20.2074 26.2578H14.7924C14.3551 26.2578 14.0006 26.6116 14.0006 27.0481C14.001 27.4847 14.3555 27.8385 14.7924 27.8385Z" fill="#F2F5FC"/>
<path d="M27.9984 27.1709C27.8394 24.6247 26.7526 22.225 24.9379 20.4138C23.8685 19.3464 22.6222 18.5407 21.2295 18.0153C22.7715 16.8385 23.6706 15.0119 23.6492 13.0686C23.6309 11.4346 22.971 9.90164 21.7907 8.75149C20.6097 7.60134 19.0572 6.97901 17.4185 7.00041C15.7951 7.02141 14.2706 7.66999 13.1259 8.8262C11.98 9.98362 11.3488 11.515 11.3488 13.1381C11.3488 15.0531 12.2479 16.8543 13.7688 18.0149C12.3761 18.5403 11.1295 19.346 10.0605 20.4134C8.25351 22.2173 7.16711 24.6065 7.00163 27.1414C6.98706 27.3652 7.06394 27.5784 7.21809 27.7428C7.37144 27.9063 7.58832 28 7.81288 28H8.18472C8.58206 28 8.91303 27.6886 8.93812 27.2917C9.22378 22.7973 12.9839 19.2769 17.499 19.2769C22.0036 19.2769 25.7633 22.7884 26.0582 27.2715C26.0853 27.6802 26.426 28 26.8339 28H27.2142C27.4307 28 27.6395 27.9096 27.7876 27.7525C27.9373 27.5937 28.0117 27.3874 27.9984 27.1709ZM21.705 13.2778C21.6334 15.482 19.8474 17.2646 17.639 17.3365C16.4636 17.3744 15.3578 16.9383 14.5251 16.1071C13.6924 15.276 13.255 14.1727 13.2934 12.9995C13.365 10.7954 15.151 9.01278 17.3594 8.94089C18.5344 8.90212 19.6406 9.33909 20.4733 10.1702C21.3056 11.0009 21.743 12.1046 21.705 13.2778Z" fill="#F2F5FC"/>
</g>
<defs>
<clipPath id="clip0_211_708">
<rect width="21" height="21" fill="white" transform="translate(7 7)"/>
</clipPath>
</defs>
</svg>
