<svg width="280" height="138" viewBox="0 0 280 138" fill="none" xmlns="http://www.w3.org/2000/svg">
<g clip-path="url(#clip0_431_1115)">
<path d="M279.97 100.263C279.784 109.638 277.7 118.846 274.424 127.603C273.951 128.844 271.334 136.781 270.142 136.781C268.281 136.781 266.419 136.782 264.557 136.782C243.91 136.786 223.263 136.789 202.615 136.792C161.927 136.798 121.24 136.803 80.5517 136.807C56.4564 136.81 32.3601 136.826 8.26481 136.811C6.68452 136.81 5.3681 134.769 4.46019 133.691C2.78901 131.705 1.62798 129.448 0.922367 127.055C-0.0383177 123.794 -0.639356 118.972 1.14519 112.837C2.10881 109.525 4.17482 106.186 5.73752 103.677C9.09356 98.292 13.4621 93.6664 18.286 89.5764C23.8312 84.8746 30.9655 80.5442 33.6961 73.4539C37.7353 62.9685 30.8043 52.6805 31.7503 42.1149C33.3276 24.5001 50.8301 11.3349 66.2059 5.39191C78.1192 0.786876 91.3245 -0.327245 104 0.0763798C110.202 0.273794 116.395 0.885583 122.512 1.92641C128.099 2.87634 134.68 3.84778 139.804 6.40928C150.795 10.4768 160.309 17.0882 168.372 25.5409C172.289 29.6475 175.763 34.2574 180.038 38.0073C185.139 42.4814 190.36 42.3201 196.711 41.0887C208.797 38.7178 220.604 36.1338 232.855 39.1136C244.718 41.9986 254.917 49.2062 263.339 57.8406C274.471 69.2594 280.276 84.3323 279.97 100.263C279.958 100.872 280.043 96.485 279.97 100.263Z" fill="#EDF4FF"/>
<path d="M53.3021 97.9607C53.3021 97.9607 44.0451 95.667 40.4086 101.414C36.772 107.161 29.499 107.384 25.6807 112C21.8624 116.615 18.9529 124.932 27.6802 129.047C36.4075 133.161 58.1153 127.123 58.1153 127.123L62.2639 100.347L53.3021 97.9607Z" fill="#E1ECFE"/>
<path d="M67.061 72.0707C67.061 72.0707 65.8209 64.4312 59.2749 61.3175C55.3452 59.4489 43.5443 58.0573 43.9079 66.421C44.1971 73.0666 37.5437 72.2525 40.1501 79.9829C42.394 86.6393 50.0248 84.0583 50.0248 84.0583L67.061 72.0707Z" fill="#ACD29A"/>
<path d="M267.075 116.85C258.375 109.901 245.741 118.304 243.316 108.849C240.891 99.3941 229.44 98.6807 229.44 98.6807L217.746 136.789C233.351 136.788 248.954 136.785 264.559 136.783C266.419 136.783 268.281 136.782 270.143 136.782C271.334 136.782 273.952 128.845 274.426 127.604C274.468 127.492 274.508 127.38 274.55 127.268C273.483 124.292 271.112 120.075 267.075 116.85Z" fill="#ACD29A"/>
<path d="M229.44 41.7666H152.213V136.886H229.44V41.7666Z" fill="#98BAF4"/>
<path d="M229.44 46.4189H159.916V56.7803H229.44V46.4189Z" fill="#EDF4FF"/>
<path d="M189.885 63.4814H102.667V137.213H189.885V63.4814Z" fill="white"/>
<path d="M191.25 60.8027H100.51V63.4815H191.25V60.8027Z" fill="white"/>
<path d="M230.874 40.4277H150.656V43.1065H230.874V40.4277Z" fill="white"/>
<path d="M159.098 70.1455H102.667V83.8502H159.098V70.1455Z" fill="#FF9E55"/>
<path d="M102.667 72.2163H50.0249V101.414H102.667V72.2163Z" fill="#1776E8"/>
<path d="M102.667 107.489H50.0249V136.687H102.667V107.489Z" fill="#1776E8"/>
<path d="M102.668 101.414H57.3213V107.489H102.668V101.414Z" fill="#7FA8E5"/>
<path d="M110.344 81.92C109.025 81.92 107.785 81.406 106.851 80.4736C105.918 79.5413 105.405 78.3001 105.405 76.9808C105.405 75.6614 105.919 74.4212 106.851 73.4879C107.785 72.5556 109.025 72.0415 110.344 72.0415C111.663 72.0415 112.904 72.5556 113.837 73.4879C114.77 74.4212 115.283 75.6614 115.283 76.9808C115.283 78.3001 114.769 79.5403 113.837 80.4736C112.904 81.407 111.663 81.92 110.344 81.92ZM110.344 72.4969C109.146 72.4969 108.02 72.9631 107.173 73.8104C106.325 74.6577 105.859 75.7836 105.859 76.9817C105.859 78.1799 106.325 79.3058 107.173 80.1531C108.02 81.0004 109.146 81.4666 110.344 81.4666C111.542 81.4666 112.668 81.0004 113.515 80.1531C114.363 79.3058 114.829 78.1799 114.829 76.9817C114.829 75.7836 114.363 74.6577 113.515 73.8104C112.668 72.9631 111.542 72.4969 110.344 72.4969Z" fill="white"/>
<path d="M113.534 76.1756H111.149V73.791H109.538V76.1756H107.154V77.7872H109.538V80.1718H111.149V77.7872H113.534V76.1756Z" fill="white"/>
<path d="M119.2 74.6147H120.249V76.5009H122.183V74.6147H123.232V79.381H122.183V77.4675H120.249V79.381H119.2V74.6147Z" fill="white"/>
<path d="M124.165 76.9984C124.165 75.6429 125.234 74.5337 126.705 74.5337C128.176 74.5337 129.231 75.6302 129.231 76.9984C129.231 78.3539 128.162 79.4632 126.691 79.4632C125.221 79.4632 124.165 78.3667 124.165 76.9984ZM128.135 76.9984C128.135 76.1814 127.536 75.5002 126.691 75.5002C125.847 75.5002 125.262 76.1677 125.262 76.9984C125.262 77.8155 125.861 78.4966 126.705 78.4966C127.549 78.4966 128.135 77.8291 128.135 76.9984Z" fill="white"/>
<path d="M129.804 78.6872L130.423 77.9454C130.852 78.2992 131.302 78.524 131.846 78.524C132.275 78.524 132.534 78.3539 132.534 78.0608C132.534 77.7949 132.371 77.6591 131.575 77.4548C130.614 77.2095 129.994 76.9437 129.994 75.984C129.994 75.1191 130.689 74.5474 131.663 74.5474C132.357 74.5474 132.95 74.7653 133.433 75.1533L132.889 75.9429C132.467 75.6498 132.051 75.4729 131.65 75.4729C131.248 75.4729 131.037 75.6566 131.037 75.9019C131.037 76.2156 131.241 76.3173 132.065 76.5283C133.032 76.7805 133.577 77.1274 133.577 77.9718C133.577 78.9178 132.855 79.4495 131.827 79.4495C131.104 79.4495 130.375 79.1974 129.804 78.6872Z" fill="white"/>
<path d="M134.489 74.6147H136.437C137.575 74.6147 138.262 75.2891 138.262 76.2762C138.262 77.3795 137.404 77.9512 136.334 77.9512H135.538V79.381H134.489V74.6147ZM136.369 77.0189C136.892 77.0189 137.199 76.7052 137.199 76.283C137.199 75.8129 136.873 75.5608 136.348 75.5608H135.538V77.0179H136.369V77.0189Z" fill="white"/>
<path d="M139.085 74.6147H140.134V79.381H139.085V74.6147Z" fill="white"/>
<path d="M142.436 75.5813H140.985V74.6147H144.935V75.5813H143.484V79.381H142.436V75.5813Z" fill="white"/>
<path d="M146.76 74.5806H147.726L149.769 79.3811H148.672L148.237 78.3119H146.221L145.785 79.3811H144.716L146.76 74.5806ZM147.863 77.3864L147.23 75.8403L146.597 77.3864H147.863Z" fill="white"/>
<path d="M150.506 74.6147H151.554V78.4282H153.931V79.381H150.506V74.6147Z" fill="white"/>
<path d="M229.44 101.953H194.269V125.163H229.44V101.953Z" fill="#1776E8"/>
<path d="M229.44 67.7759H194.269V90.9867H229.44V67.7759Z" fill="#1776E8"/>
<path d="M229.44 46.9697H160.647V56.1143H229.44V46.9697Z" fill="#1776E8"/>
<path d="M102.667 64.4011L189.885 67.031V63.4814H102.667V64.4011Z" fill="#DFEBFD"/>
<path d="M102.667 72.0415H46.7314V74.9323H102.667V72.0415Z" fill="white"/>
<path d="M46.6495 124.753C39.8211 126.305 38.0004 131.849 33.6769 128.522C29.3533 125.195 23.8912 127.414 20.9329 127.558C17.9736 127.703 18.4281 120.761 12.0561 118.545C8.98933 117.477 3.85949 117.289 0.191687 117.448C-0.292076 121.426 0.218074 124.661 0.923683 127.055C1.62929 129.448 2.79032 131.706 4.4615 133.691C5.23553 134.61 6.30665 136.23 7.58593 136.687H57.5748C60.0776 130.66 53.4769 123.2 46.6495 124.753Z" fill="#ACD29A"/>
<path d="M41.0278 31.7966C41.0278 31.7966 45.6524 26.3677 56.7115 26.9707C56.7115 26.9707 72.7676 17.9219 89.8889 25.7647C89.8889 25.7647 108.089 23.8219 121.567 27.4477C130.553 29.8645 133.521 32.4006 133.521 32.4006L41.0278 31.7966Z" fill="#F8FCFF"/>
<path d="M128.127 23.9397C128.127 21.9714 129.722 20.3765 131.69 20.3765C133.658 20.3765 135.253 21.9714 135.253 23.9397C135.253 25.908 133.658 27.5029 131.69 27.5029C129.722 27.5029 128.127 25.908 128.127 23.9397Z" fill="#F8FCFF"/>
<path d="M81.8232 46.5153C81.8232 46.5153 84.3564 43.5414 90.4137 43.8717C90.4137 43.8717 99.2074 38.9158 108.586 43.211C108.586 43.211 118.554 42.1468 125.937 44.1326C130.858 45.4569 132.484 46.8456 132.484 46.8456L81.8232 46.5153Z" fill="#F8FCFF"/>
<path d="M177.527 104.437H116.241V136.453H177.527V104.437Z" fill="#98BAF4"/>
<path d="M175.751 106.676H118.3V136.561H175.751V106.676Z" fill="white"/>
<path d="M173.692 108.566H120.476V115.432H173.692V108.566Z" fill="#1776E8"/>
<path d="M136.037 117.298H120.476V136.432H136.037V117.298Z" fill="#1776E8"/>
<path d="M156.65 117.298H137.518V136.432H156.65V117.298Z" fill="#1776E8"/>
<path d="M173.693 117.298H157.966V136.432H173.693V117.298Z" fill="#1776E8"/>
<path d="M143.787 117.298H156.65V124.379L154.357 136.432H140.146L143.787 117.298Z" fill="#CCE1FF"/>
<path d="M154.34 120.938H140.026V136.453H154.34V120.938Z" fill="white"/>
<path d="M153.657 121.64H140.708V136.453H153.657V121.64Z" fill="#98BAF4"/>
<path d="M147.425 121.64H146.942V136.453H147.425V121.64Z" fill="white"/>
<path d="M145.788 129.046C145.788 128.877 145.924 128.74 146.093 128.74C146.263 128.74 146.399 128.877 146.399 129.046C146.399 129.215 146.263 129.352 146.093 129.352C145.924 129.352 145.788 129.215 145.788 129.046Z" fill="white"/>
<path d="M147.966 129.046C147.966 128.877 148.103 128.74 148.272 128.74C148.441 128.74 148.578 128.877 148.578 129.046C148.578 129.215 148.441 129.352 148.272 129.352C148.103 129.352 147.966 129.215 147.966 129.046Z" fill="white"/>
<path d="M125.426 117.298H133.305L130.79 136.432H122.911L125.426 117.298Z" fill="#CCE1FF"/>
<path d="M134.452 108.566L133.55 115.432H125.671L126.574 108.566H134.452Z" fill="#CCE1FF"/>
<path d="M161.688 117.298H169.567L167.052 136.432H159.173L161.688 117.298Z" fill="#CCE1FF"/>
<path d="M170.714 108.566L169.812 115.432H161.933L162.835 108.566H170.714Z" fill="#CCE1FF"/>
<path d="M159.658 108.566L158.352 115.432H144.142L145.448 108.566H159.658Z" fill="#CCE1FF"/>
<path d="M157.979 118.708H158.008L157.979 118.861V118.708Z" fill="#CCE1FF"/>
<path d="M111.925 136.441C111.925 136.441 111.547 133.093 114.941 132.244C118.335 131.396 119.667 128.365 123.608 130.911C127.548 133.457 126.301 136.441 126.301 136.441H111.925Z" fill="#ACD29A"/>
<path d="M210.708 90.9877H199.07L204.162 67.7759H215.798L210.708 90.9877Z" fill="#BDD7FD"/>
<path d="M221.018 125.163H209.381L214.472 101.953H226.11L221.018 125.163Z" fill="#CCE1FF"/>
<path d="M204.469 101.953L199.377 125.163H194.269V101.953H204.469Z" fill="#CCE1FF"/>
<path d="M229.439 67.7759V90.9877H216.647L222.328 67.7759H229.439Z" fill="#CCE1FF"/>
<path d="M178.463 46.9697H177.493V56.1143H178.463V46.9697Z" fill="#EDF4FF"/>
<path d="M198.04 46.9697H197.07V56.1143H198.04V46.9697Z" fill="#EDF4FF"/>
<path d="M217.132 46.9697H216.162V56.1143H217.132V46.9697Z" fill="#EDF4FF"/>
<g opacity="0.5">
<path d="M62.0244 82.6958H56.1929V91.901H62.0244V82.6958Z" fill="#98BAF4"/>
<path d="M62.2646 92.1973H55.8398V82.3989H62.2646V92.1973ZM56.4331 91.6041H61.6714V82.9921H56.4331V91.6041Z" fill="white"/>
<path d="M61.7458 85.7744H56.3589V86.2191H61.7458V85.7744Z" fill="white"/>
<path d="M61.7458 88.8374H56.3589V89.2821H61.7458V88.8374Z" fill="white"/>
<path d="M59.2754 91.901V82.6528H58.8307V91.901H59.2754Z" fill="white"/>
<path d="M78.8633 82.6958H73.0317V91.901H78.8633V82.6958Z" fill="#98BAF4"/>
<path d="M79.1035 92.1973H72.6787V82.3989H79.1035V92.1973ZM73.2719 91.6041H78.5103V82.9921H73.2719V91.6041Z" fill="white"/>
<path d="M78.5846 85.7744H73.1978V86.2191H78.5846V85.7744Z" fill="white"/>
<path d="M78.5846 88.8374H73.1978V89.2821H78.5846V88.8374Z" fill="white"/>
<path d="M76.1143 91.901V82.6528H75.6696V91.901H76.1143Z" fill="white"/>
<path d="M95.7012 82.6958H89.8696V91.901H95.7012V82.6958Z" fill="#98BAF4"/>
<path d="M95.9423 92.1973H89.5176V82.3989H95.9423V92.1973ZM90.1108 91.6041H95.3491V82.9921H90.1108V91.6041Z" fill="white"/>
<path d="M95.4235 85.7744H90.0366V86.2191H95.4235V85.7744Z" fill="white"/>
<path d="M95.4235 88.8374H90.0366V89.2821H95.4235V88.8374Z" fill="white"/>
<path d="M92.9526 91.9V82.6519H92.508V91.9H92.9526Z" fill="white"/>
</g>
<g opacity="0.5">
<path d="M62.0244 114.258H56.1929V123.463H62.0244V114.258Z" fill="#98BAF4"/>
<path d="M62.2646 123.759H55.8398V113.961H62.2646V123.759ZM56.4331 123.167H61.6714V114.555H56.4331V123.167Z" fill="white"/>
<path d="M61.7458 117.336H56.3589V117.781H61.7458V117.336Z" fill="white"/>
<path d="M61.7458 120.4H56.3589V120.845H61.7458V120.4Z" fill="white"/>
<path d="M59.2749 123.463V114.215H58.8302V123.463H59.2749Z" fill="white"/>
<path d="M78.8633 114.258H73.0317V123.463H78.8633V114.258Z" fill="#98BAF4"/>
<path d="M79.1035 123.759H72.6787V113.961H79.1035V123.759ZM73.2719 123.167H78.5103V114.555H73.2719V123.167Z" fill="white"/>
<path d="M78.5846 117.336H73.1978V117.781H78.5846V117.336Z" fill="white"/>
<path d="M78.5846 120.4H73.1978V120.845H78.5846V120.4Z" fill="white"/>
<path d="M76.1133 123.464V114.215H75.6686V123.464H76.1133Z" fill="white"/>
<path d="M95.7012 114.258H89.8696V123.463H95.7012V114.258Z" fill="#98BAF4"/>
<path d="M95.9423 123.759H89.5176V113.961H95.9423V123.759ZM90.1108 123.167H95.3491V114.555H90.1108V123.167Z" fill="white"/>
<path d="M95.4235 117.336H90.0366V117.781H95.4235V117.336Z" fill="white"/>
<path d="M95.4235 120.4H90.0366V120.845H95.4235V120.4Z" fill="white"/>
<path d="M92.9521 123.464V114.215H92.5075V123.464H92.9521Z" fill="white"/>
</g>
<path d="M192.455 94.7529H101.312V97.9604H192.455V94.7529Z" fill="#DFEBFD"/>
<path d="M71.3271 72.0414C71.3271 72.0414 72.9025 66.9135 76.7824 67.0308C80.6613 67.1481 81.8742 70.7181 83.2072 70.1454C84.5402 69.5727 88.4201 69.9031 88.6625 72.0414H71.3271Z" fill="#ACD29A"/>
<path d="M256.07 118.78V120.952C256.07 121.146 256.024 121.331 255.941 121.496C255.742 121.895 255.327 122.17 254.852 122.17H254.462C253.794 122.17 253.244 121.624 253.244 120.952V118.78C253.244 118.551 253.31 118.338 253.421 118.154C253.421 118.151 253.421 118.151 253.421 118.151C253.637 117.798 254.023 117.562 254.462 117.562H254.852C255.523 117.562 256.07 118.112 256.07 118.78Z" fill="#233862"/>
<path opacity="0.3" d="M255.941 121.496C255.742 121.895 255.327 122.17 254.852 122.17H254.462C253.794 122.17 253.244 121.624 253.244 120.952V118.78C253.244 118.551 253.31 118.338 253.421 118.154C253.444 118.289 253.962 121.27 255.941 121.496Z" fill="#233862"/>
<path d="M236.77 134.684H242.787V128.61H236.51L236.77 134.684Z" fill="#172944"/>
<path d="M255.745 121.846L226.181 122.575V106.985H245.595C247.446 106.985 249.141 108.021 249.984 109.668L251.255 112.147L255.745 121.846Z" fill="white"/>
<path d="M238.95 133.695C238.95 135.344 239.801 137.163 239.801 137.163C239.801 137.163 241.064 137.163 241.24 137.163C242.505 137.163 243.53 135.611 243.53 133.695C243.53 131.78 241.065 130.228 239.801 130.228C238.535 130.229 238.95 131.781 238.95 133.695Z" fill="#233862"/>
<path d="M237.51 133.695C237.51 135.61 238.535 137.163 239.8 137.163C241.064 137.163 242.089 135.611 242.089 133.695C242.089 131.78 241.064 130.228 239.8 130.228C238.535 130.229 237.51 131.781 237.51 133.695Z" fill="#2B478B"/>
<path d="M238.104 133.695C238.104 135.138 238.876 136.307 239.829 136.307C240.782 136.307 241.554 135.138 241.554 133.695C241.554 132.253 240.782 131.084 239.829 131.084C238.876 131.084 238.104 132.254 238.104 133.695Z" fill="#1776E8"/>
<path d="M255.503 133.695C255.503 135.344 256.353 137.163 256.353 137.163C256.353 137.163 257.617 137.163 257.793 137.163C259.057 137.163 260.083 135.611 260.083 133.695C260.083 131.78 257.618 130.228 256.353 130.228C255.089 130.229 255.503 131.781 255.503 133.695Z" fill="#233862"/>
<path d="M254.063 133.695C254.063 135.61 255.089 137.163 256.353 137.163C257.618 137.163 258.643 135.611 258.643 133.695C258.643 131.78 257.618 130.228 256.353 130.228C255.089 130.229 254.063 131.781 254.063 133.695Z" fill="#2B478B"/>
<path d="M217.49 133.695C217.49 135.344 218.34 137.163 218.34 137.163C218.34 137.163 219.604 137.163 219.78 137.163C221.044 137.163 222.069 135.611 222.069 133.695C222.069 131.78 219.605 130.228 218.34 130.228C217.075 130.229 217.49 131.781 217.49 133.695Z" fill="#233862"/>
<path d="M216.05 133.695C216.05 135.61 217.075 137.163 218.34 137.163C219.605 137.163 220.63 135.611 220.63 133.695C220.63 131.78 219.605 130.228 218.34 130.228C217.075 130.229 216.05 131.781 216.05 133.695Z" fill="#2B478B"/>
<path d="M262.363 132.059C262.366 133.509 261.192 134.683 259.745 134.683H242.787C242.836 134.399 242.862 134.104 242.862 133.8C242.862 131.558 241.518 129.739 239.861 129.739C238.202 129.739 236.857 131.559 236.857 133.8C236.857 134.104 236.879 134.399 236.929 134.683H227.02C227.02 134.683 226.621 130.259 226.67 128.041C226.71 126.11 226.71 122.327 226.595 121.404C226.595 121.266 236.151 121.25 238.563 121.241C238.891 121.238 239.087 121.238 239.107 121.238L239.139 121.26L239.175 121.287C239.62 121.597 242.114 123.345 243.662 124.369C245.026 125.269 255.099 125.636 259.049 125.747C260.031 125.773 260.636 125.783 260.636 125.783C260.636 125.783 261.177 126.336 261.654 127.21C262.02 127.887 262.348 128.758 262.355 129.71C262.357 130.302 262.361 131.016 262.361 131.716C262.363 131.831 262.363 131.945 262.363 132.059Z" fill="white"/>
<path d="M253.361 121.238H240.075C239.767 121.238 239.49 121.058 239.362 120.779L236.073 113.462C235.965 113.224 236.141 112.952 236.403 112.952H250.42C250.728 112.952 251.009 113.136 251.133 113.42L253.489 118.803L254.079 120.148C254.301 120.661 253.923 121.238 253.361 121.238Z" fill="#98BAF4"/>
<path d="M247.173 131.715C247.17 131.945 247.16 132.161 247.147 132.354C247.051 133.627 245.772 134.683 245.772 134.683H242.787C242.836 134.399 242.864 134.104 242.864 133.8C242.864 133.039 242.706 132.324 242.439 131.715C241.911 130.532 240.956 129.739 239.863 129.739C238.767 129.739 237.811 130.532 237.283 131.715C237.015 132.324 236.858 133.039 236.858 133.8C236.858 134.105 236.882 134.399 236.931 134.683H226.181V106.986H234.811L234.852 112.147C234.852 112.147 234.997 112.921 235.292 113.612C235.555 114.23 235.906 115.051 236.287 115.946C237.073 117.78 237.991 119.921 238.564 121.24C238.852 121.907 239.055 122.362 239.107 122.46C239.268 122.767 241.663 124.065 243.687 125.217C244.192 125.505 244.675 125.782 245.092 126.033C245.688 126.392 246.154 126.695 246.374 126.894C246.927 127.394 247.202 129.979 247.173 131.715Z" fill="#DFEBFD"/>
<path d="M260.636 125.783H244.889L239.139 121.26L239.106 121.238H254.991L259.514 124.876L260.636 125.783Z" fill="white"/>
<path d="M246.927 128.441L245.503 128.3C245.006 128.251 244.603 127.878 244.515 127.387L244.188 125.587C244.181 125.558 244.178 125.531 244.181 125.502C245.195 126.084 246.049 126.604 246.373 126.896C246.61 127.109 246.796 127.698 246.927 128.441Z" fill="#A8302D"/>
<path d="M251.256 112.147H234.851C234.851 112.147 234.787 111.097 234.376 109.898C234.009 108.84 233.376 107.658 232.268 106.985H245.673C247.858 106.985 249.794 108.152 250.564 109.898C250.6 109.971 250.631 110.043 250.658 110.115C250.889 110.722 251.097 111.4 251.256 112.147Z" fill="white"/>
<path d="M246.931 128.441L245.504 128.3C245.007 128.251 244.604 127.878 244.516 127.387L244.189 125.587C244.182 125.558 244.179 125.528 244.182 125.499C245.196 126.084 246.05 126.605 246.374 126.897C246.61 127.109 246.796 127.698 246.931 128.441Z" fill="#A2C2DD"/>
<path d="M262.364 132.059C262.367 133.509 261.136 134.683 259.618 134.683H242.788C242.837 134.399 242.864 134.104 242.864 133.8C242.864 133.038 242.706 132.324 242.438 131.715H262.362C262.364 131.831 262.364 131.945 262.364 132.059Z" fill="#233862"/>
<path d="M236.858 133.8C236.858 134.104 236.881 134.399 236.93 134.683H226.18V131.715H237.284C237.015 132.324 236.858 133.038 236.858 133.8Z" fill="#233862"/>
<path d="M251.277 125.911H257.716C257.921 125.911 258.079 126.189 258.048 126.496L257.819 128.734C257.786 129.063 257.598 129.305 257.378 129.305H252.073C251.733 129.305 251.433 128.969 251.334 128.477L250.952 126.574C250.885 126.244 251.048 125.911 251.277 125.911Z" fill="#233862"/>
<path d="M253.489 118.802C245.893 118.413 240.756 114.349 239.205 112.951H250.419C250.727 112.951 251.008 113.135 251.133 113.419L253.489 118.802Z" fill="#1776E8"/>
<path d="M229.218 106.985H200.488V134.686H229.218V106.985Z" fill="white"/>
<path d="M251.255 112.147H234.85C234.85 112.147 234.787 111.097 234.375 109.898H250.563C250.6 109.97 250.631 110.043 250.658 110.115C250.889 110.722 251.097 111.4 251.255 112.147Z" fill="#DFEBFD"/>
<path d="M261.654 127.21C261.562 127.361 261.445 127.459 261.317 127.482L259.108 127.891C258.921 127.928 258.778 127.603 258.827 127.27L259.043 125.784L259.049 125.748L259.091 125.444C259.13 125.182 259.245 124.983 259.386 124.927L259.514 124.878L260.636 125.785C260.636 125.783 261.176 126.337 261.654 127.21Z" fill="#233862"/>
<path d="M246.374 125.217H200.489V127.552H246.374V125.217Z" fill="#EA6A60"/>
<path d="M229.218 111.784H200.488V114.118H229.218V111.784Z" fill="#EA6A60"/>
<path d="M210.763 119.616C210.763 117.358 212.594 115.527 214.852 115.527C217.111 115.527 218.942 117.358 218.942 119.616C218.942 121.875 217.111 123.706 214.852 123.706C212.594 123.706 210.763 121.875 210.763 119.616Z" fill="#EA6A60"/>
<path d="M214.853 123.236C213.886 123.236 212.977 122.86 212.293 122.176C211.609 121.492 211.232 120.583 211.232 119.616C211.232 118.648 211.609 117.739 212.293 117.055C212.977 116.371 213.886 115.995 214.853 115.995C215.821 115.995 216.73 116.371 217.414 117.055C218.098 117.739 218.474 118.648 218.474 119.616C218.474 120.583 218.098 121.492 217.414 122.176C216.73 122.86 215.821 123.236 214.853 123.236ZM214.853 116.329C213.975 116.329 213.15 116.671 212.528 117.292C211.908 117.912 211.566 118.738 211.566 119.616C211.566 120.495 211.908 121.32 212.528 121.941C213.149 122.562 213.975 122.904 214.853 122.904C215.731 122.904 216.557 122.562 217.178 121.941C217.799 121.321 218.141 120.495 218.141 119.616C218.141 118.738 217.799 117.913 217.178 117.292C216.558 116.67 215.732 116.329 214.853 116.329Z" fill="white"/>
<path d="M217.192 119.025H215.444V117.278H214.263V119.025H212.515V120.207H214.263V121.954H215.444V120.207H217.192V119.025Z" fill="white"/>
<path d="M249.63 128.708L246.931 128.441H246.928L245.504 128.3C245.007 128.251 244.604 127.878 244.516 127.387L244.189 125.587C244.182 125.558 244.179 125.531 244.182 125.502V125.499C244.165 125.12 244.512 124.812 244.902 124.89L249.107 125.744C249.376 125.8 249.588 125.999 249.661 126.261L250.155 128.088C250.246 128.421 249.974 128.745 249.63 128.708Z" fill="#233862"/>
<path d="M234.906 114.267L237.737 121.239H232.88C232.88 121.239 231.884 121.071 231.756 119.036C231.62 116.862 231.621 113.112 231.621 113.112L233.752 113.103C234.564 113.225 234.691 113.67 234.906 114.267Z" fill="#98BAF4"/>
<path d="M236.296 117.659C236.296 117.659 236.541 120.476 235.15 121.247H237.749L236.296 117.659Z" fill="#233862"/>
<path d="M236.677 119.545C236.677 119.545 236.091 119.128 236.04 118.782V120.752H236.808L236.677 119.545Z" fill="#233862"/>
<path d="M236.04 118.78V120.952C236.04 121.146 235.994 121.331 235.912 121.496C235.713 121.895 235.297 122.17 234.822 122.17H234.433C233.765 122.17 233.215 121.624 233.215 120.952V118.78C233.215 118.551 233.28 118.338 233.392 118.154C233.392 118.151 233.392 118.151 233.392 118.151C233.608 117.798 233.994 117.562 234.433 117.562H234.822C235.494 117.562 236.04 118.112 236.04 118.78Z" fill="#233862"/>
<path d="M229.246 133.8C229.246 134.104 229.288 134.399 229.379 134.683H209.597V131.715H230.029C229.535 132.324 229.246 133.038 229.246 133.8Z" fill="#233862"/>
<path d="M220.136 133.8C220.136 134.104 220.178 134.399 220.269 134.683H200.488V131.715H220.919C220.426 132.324 220.136 133.038 220.136 133.8Z" fill="#233862"/>
<path d="M209.872 134.687H202.805C202.655 134.048 202.206 129.506 206.167 129.506C209.765 129.506 210.03 133.65 209.872 134.687Z" fill="#172944"/>
<path d="M205.018 133.695C205.018 135.344 205.868 137.163 205.868 137.163C205.868 137.163 207.131 137.163 207.307 137.163C208.572 137.163 209.597 135.611 209.597 133.695C209.597 131.78 207.132 130.228 205.868 130.228C204.603 130.229 205.018 131.781 205.018 133.695Z" fill="#233862"/>
<path d="M203.578 133.695C203.578 135.61 204.603 137.163 205.868 137.163C207.133 137.163 208.158 135.611 208.158 133.695C208.158 131.78 207.133 130.228 205.868 130.228C204.603 130.229 203.578 131.781 203.578 133.695Z" fill="#2B478B"/>
<path d="M204.171 133.695C204.171 135.138 204.943 136.307 205.896 136.307C206.849 136.307 207.621 135.138 207.621 133.695C207.621 132.253 206.849 131.084 205.896 131.084C204.943 131.084 204.171 132.254 204.171 133.695Z" fill="#1776E8"/>
</g>
<defs>
<clipPath id="clip0_431_1115">
<rect width="280" height="137.213" fill="white"/>
</clipPath>
</defs>
</svg>
