<svg width="180" height="202" viewBox="0 0 180 202" fill="none" xmlns="http://www.w3.org/2000/svg">
<g clip-path="url(#clip0_431_1415)">
<path fill-rule="evenodd" clip-rule="evenodd" d="M98.7527 165.326C107.49 142.539 156.106 148.616 146.608 171.403C176.024 157.729 173.68 186.218 151.165 191.155C123.061 197.232 36.0821 196.852 24.3082 191.155C12.1542 181.282 28.4846 162.67 60.7702 172.164C52.0373 127.724 88.8794 143.294 98.7527 165.326Z" fill="#E8F2FF"/>
<path fill-rule="evenodd" clip-rule="evenodd" d="M41.686 51.9689H71.8907C72.11 38.7379 77.8459 32.3442 88.6451 32.3442C98.3478 32.3442 104.079 36.5352 104.079 45.7945C104.079 66.9592 76.9589 68.9475 76.9589 102.9H106.282C106.282 77.1054 140.234 72.6951 140.234 39.4007C140.234 14.7077 121.935 0.813965 92.3878 0.813965C60.8673 0.813965 41.9053 19.5567 41.686 51.9689ZM91.072 119.654C80.0486 119.654 72.3293 127.373 72.3293 138.616C72.3293 149.859 80.0437 157.797 91.072 157.797C102.095 157.797 110.034 149.859 110.034 138.616C110.034 127.373 102.095 119.654 91.072 119.654Z" fill="#1776E8"/>
<path fill-rule="evenodd" clip-rule="evenodd" d="M138.738 184.059C140.517 179.625 138.767 164.849 134.328 165.477C128.373 166.321 132.135 181.623 138.738 184.059Z" fill="#1776E8"/>
<path fill-rule="evenodd" clip-rule="evenodd" d="M139.737 184.356C142.212 180.268 155.088 178.562 157.251 182.49C160.156 187.763 145.653 188.172 139.737 184.356Z" fill="#1776E8"/>
<path fill-rule="evenodd" clip-rule="evenodd" d="M146.779 170.75C150.093 168.874 153.889 158.26 150.488 157.159C146.423 155.843 143.879 165.945 146.779 170.75Z" fill="#1776E8"/>
<path fill-rule="evenodd" clip-rule="evenodd" d="M147.398 171.311C149.908 168.445 161.516 167.212 161.443 170.789C161.37 174.259 150.483 174.137 147.398 171.311Z" fill="#1776E8"/>
<path fill-rule="evenodd" clip-rule="evenodd" d="M141.545 176.935C144.566 174.069 146.287 162.061 142.997 161.199C138.558 160.039 137.198 172.607 141.545 176.935Z" fill="#1776E8"/>
<path fill-rule="evenodd" clip-rule="evenodd" d="M142.388 177.29C145.58 173.781 158.465 172.354 158.304 175.643C158.051 180.755 146.35 179.956 142.388 177.29Z" fill="#1776E8"/>
<path fill-rule="evenodd" clip-rule="evenodd" d="M174.445 145.731C175.142 143.835 173.377 138.09 171.613 138.796C169.25 139.742 171.623 144.781 174.445 145.731Z" fill="#1776E8"/>
<path fill-rule="evenodd" clip-rule="evenodd" d="M174.883 145.775C175.034 143.757 178.139 140.068 179.498 141.413C181.311 143.197 177.846 146.082 174.883 145.775Z" fill="#1776E8"/>
<path fill-rule="evenodd" clip-rule="evenodd" d="M171.487 151.735C172.773 149.766 171.657 142.851 169.513 143.372C166.643 144.064 168.534 149.922 171.487 151.735Z" fill="#1776E8"/>
<path fill-rule="evenodd" clip-rule="evenodd" d="M171.974 151.896C172.671 149.649 178.163 145.468 179.357 147.593C180.809 150.171 175.254 153.012 171.974 151.896Z" fill="#1776E8"/>
<path fill-rule="evenodd" clip-rule="evenodd" d="M167.256 156.559C169.089 154.766 168.421 146.452 166.048 146.813C162.905 147.295 164.537 153.937 167.256 156.559Z" fill="#1776E8"/>
<path fill-rule="evenodd" clip-rule="evenodd" d="M167.739 156.847C169.006 154.62 175.317 151.774 176.243 154.089C177.441 157.081 170.96 158.806 167.739 156.847Z" fill="#1776E8"/>
<path fill-rule="evenodd" clip-rule="evenodd" d="M160.907 161.218C163.494 159.537 165.444 150.77 162.651 149.995C159.123 149.015 158.324 157.475 160.907 161.218Z" fill="#1776E8"/>
<path fill-rule="evenodd" clip-rule="evenodd" d="M161.409 161.671C163.441 159.342 171.272 156.871 171.984 159.512C172.993 163.265 164.752 164.756 161.409 161.671Z" fill="#1776E8"/>
<path fill-rule="evenodd" clip-rule="evenodd" d="M153.85 165.395C156.896 163.738 159.99 155.146 157.232 153.421C153.743 151.238 151.287 160.979 153.85 165.395Z" fill="#1776E8"/>
<path fill-rule="evenodd" clip-rule="evenodd" d="M154.372 165.946C156.847 163.519 166.891 163.192 166.35 165.999C165.717 169.323 157.846 169.698 154.372 165.946Z" fill="#1776E8"/>
<path fill-rule="evenodd" clip-rule="evenodd" d="M138.261 193.645C138.28 195.658 141.058 195.414 140.614 193.309C136.955 161.087 172.588 170.302 176.146 140.073C176.292 138.845 175.195 138.738 175.049 139.971C171.623 169.045 134.42 159.854 138.261 193.645Z" fill="#1776E8"/>
<path fill-rule="evenodd" clip-rule="evenodd" d="M175.444 141.403C178.641 139.43 178.441 134.361 176.569 134.054C174.318 133.684 173.431 139.342 175.444 141.403Z" fill="#1776E8"/>
<path fill-rule="evenodd" clip-rule="evenodd" d="M123.68 187.715C123.645 188.178 124.255 188.075 125.039 187.481C125.824 186.886 126.487 186.029 126.521 185.566C126.876 180.799 132.266 166.048 140.999 150.492C146.92 139.952 154.337 129.108 162.676 120.946C163.416 120.22 163.806 119.464 163.543 119.255C163.28 119.045 162.466 119.464 161.725 120.19C152.646 129.074 144.737 140.585 138.519 151.657C129.571 167.588 124.045 182.773 123.68 187.715Z" fill="#1776E8"/>
<path fill-rule="evenodd" clip-rule="evenodd" d="M136.453 161.828C140.346 162.763 154.386 160.911 154.771 155.931C155.244 149.79 138.631 159.045 136.453 160.059C133.953 161.218 134.269 161.301 136.453 161.828Z" fill="#1776E8"/>
<path fill-rule="evenodd" clip-rule="evenodd" d="M140.946 152.378C144.221 153.163 156.038 151.608 156.36 147.412C156.76 142.247 142.773 150.034 140.941 150.887C138.84 151.862 139.108 151.935 140.946 152.378Z" fill="#1776E8"/>
<path fill-rule="evenodd" clip-rule="evenodd" d="M145.6 144.206C148.49 144.898 158.918 143.524 159.206 139.825C159.557 135.264 147.218 142.135 145.6 142.89C143.738 143.753 143.977 143.816 145.6 144.206Z" fill="#1776E8"/>
<path fill-rule="evenodd" clip-rule="evenodd" d="M150.79 137.3C153.041 137.841 161.155 136.769 161.375 133.894C161.648 130.346 152.047 135.692 150.785 136.277C149.343 136.949 149.528 136.998 150.79 137.3Z" fill="#1776E8"/>
<path fill-rule="evenodd" clip-rule="evenodd" d="M155.809 130.702C157.676 131.15 164.401 130.263 164.581 127.875C164.81 124.932 156.847 129.367 155.804 129.854C154.615 130.41 154.766 130.449 155.809 130.702Z" fill="#1776E8"/>
<path fill-rule="evenodd" clip-rule="evenodd" d="M159.917 124.849C161.267 125.176 166.14 124.532 166.277 122.802C166.443 120.673 160.673 123.884 159.917 124.235C159.05 124.635 159.157 124.669 159.917 124.849Z" fill="#1776E8"/>
<path fill-rule="evenodd" clip-rule="evenodd" d="M162.613 120.473C164.157 119.844 168.694 116.033 167.846 114.469C166.804 112.544 162.822 119.142 162.262 119.947C161.618 120.872 161.75 120.824 162.613 120.473Z" fill="#1776E8"/>
<path fill-rule="evenodd" clip-rule="evenodd" d="M132.827 159.63C130.239 156.525 125.463 142.944 129.64 140.322C134.786 137.096 134.269 156.384 134.376 158.826C134.498 161.623 134.279 161.374 132.827 159.63Z" fill="#1776E8"/>
<path fill-rule="evenodd" clip-rule="evenodd" d="M137.876 150.449C135.78 147.754 132.106 136.15 135.668 134.055C140.059 131.477 139.162 147.749 139.191 149.815C139.23 152.179 139.05 151.964 137.876 150.449Z" fill="#1776E8"/>
<path fill-rule="evenodd" clip-rule="evenodd" d="M143.017 141.886C141.379 139.323 138.972 128.714 142.213 127.14C146.209 125.2 144.318 139.596 144.206 141.428C144.074 143.529 143.933 143.324 143.017 141.886Z" fill="#1776E8"/>
<path fill-rule="evenodd" clip-rule="evenodd" d="M148.158 135.449C146.92 133.421 145.195 125.112 147.734 123.938C150.863 122.491 149.201 133.685 149.089 135.112C148.957 136.75 148.85 136.589 148.158 135.449Z" fill="#1776E8"/>
<path fill-rule="evenodd" clip-rule="evenodd" d="M153.582 128.801C152.525 127.149 150.965 120.307 153.056 119.294C155.634 118.041 154.42 127.325 154.347 128.509C154.264 129.859 154.177 129.727 153.582 128.801Z" fill="#1776E8"/>
<path fill-rule="evenodd" clip-rule="evenodd" d="M158.28 123.1C157.569 121.857 156.643 116.823 158.183 116.16C160.073 115.337 158.928 122.052 158.845 122.915C158.738 123.899 158.68 123.797 158.28 123.1Z" fill="#1776E8"/>
<path fill-rule="evenodd" clip-rule="evenodd" d="M131.993 173.236C136.087 173.918 150.546 171.038 150.648 165.926C150.775 159.62 134.084 170.239 131.881 171.428C129.362 172.788 129.698 172.856 131.993 173.236Z" fill="#1776E8"/>
<path fill-rule="evenodd" clip-rule="evenodd" d="M127.466 171.189C124.844 168.455 119.576 156.092 123.397 153.382C128.1 150.044 128.66 168.07 128.894 170.336C129.157 172.939 128.938 172.724 127.466 171.189Z" fill="#1776E8"/>
<path fill-rule="evenodd" clip-rule="evenodd" d="M127.778 182.203C131.404 183.382 144.8 182.603 145.468 177.836C146.287 171.959 130.005 179.679 127.88 180.497C125.448 181.438 125.746 181.54 127.778 182.203Z" fill="#1776E8"/>
<path fill-rule="evenodd" clip-rule="evenodd" d="M124.664 180.985C121.384 178.723 113.597 167.144 117.218 163.587C121.677 159.206 125.4 177.549 126.043 179.825C126.779 182.432 126.506 182.252 124.664 180.985Z" fill="#1776E8"/>
<path fill-rule="evenodd" clip-rule="evenodd" d="M59.108 173.894C57.261 169.488 58.7863 154.683 63.2357 155.249C69.2055 155.999 65.6772 171.355 59.108 173.894Z" fill="#1776E8"/>
<path fill-rule="evenodd" clip-rule="evenodd" d="M58.1141 174.211C55.58 170.161 42.6804 168.65 40.5751 172.612C37.7486 177.919 52.2564 178.114 58.1141 174.211Z" fill="#1776E8"/>
<path fill-rule="evenodd" clip-rule="evenodd" d="M50.8673 160.712C47.5242 158.884 43.5671 148.333 46.9491 147.178C50.994 145.799 53.6938 155.863 50.8673 160.712Z" fill="#1776E8"/>
<path fill-rule="evenodd" clip-rule="evenodd" d="M50.2583 161.277C47.7047 158.45 36.077 157.393 36.2086 160.965C36.3305 164.44 47.2174 164.152 50.2583 161.277Z" fill="#1776E8"/>
<path fill-rule="evenodd" clip-rule="evenodd" d="M56.1889 166.818C53.1236 163.996 51.223 152.017 54.4979 151.106C58.9228 149.878 60.4725 162.422 56.1889 166.818Z" fill="#1776E8"/>
<path fill-rule="evenodd" clip-rule="evenodd" d="M55.3557 167.183C52.1101 163.723 39.2056 162.49 39.4151 165.78C39.7465 170.882 51.4327 169.907 55.3557 167.183Z" fill="#1776E8"/>
<path fill-rule="evenodd" clip-rule="evenodd" d="M22.8269 136.111C22.1008 134.225 23.7772 128.455 25.5511 129.133C27.9292 130.044 25.6339 135.122 22.8269 136.111Z" fill="#1776E8"/>
<path fill-rule="evenodd" clip-rule="evenodd" d="M22.3881 136.16C22.2029 134.147 19.045 130.502 17.7048 131.867C15.9212 133.684 19.43 136.516 22.3881 136.16Z" fill="#1776E8"/>
<path fill-rule="evenodd" clip-rule="evenodd" d="M25.8724 142.071C24.5566 140.122 25.5703 133.192 27.7194 133.679C30.6044 134.327 28.8013 140.214 25.8724 142.071Z" fill="#1776E8"/>
<path fill-rule="evenodd" clip-rule="evenodd" d="M25.3899 142.237C24.6589 140 19.1033 135.906 17.9435 138.046C16.5254 140.648 22.1248 143.406 25.3899 142.237Z" fill="#1776E8"/>
<path fill-rule="evenodd" clip-rule="evenodd" d="M30.1758 146.833C28.3191 145.068 28.8551 136.745 31.2382 137.071C34.3863 137.5 32.8561 144.172 30.1758 146.833Z" fill="#1776E8"/>
<path fill-rule="evenodd" clip-rule="evenodd" d="M29.703 147.125C28.4018 144.917 22.0519 142.164 21.1553 144.498C20.0003 147.505 26.5061 149.133 29.703 147.125Z" fill="#1776E8"/>
<path fill-rule="evenodd" clip-rule="evenodd" d="M36.5987 151.389C33.9817 149.747 31.9057 141.009 34.6834 140.195C38.1971 139.167 39.123 147.607 36.5987 151.389Z" fill="#1776E8"/>
<path fill-rule="evenodd" clip-rule="evenodd" d="M36.1017 151.852C34.0354 149.557 26.1651 147.198 25.4926 149.854C24.5423 153.621 32.8074 154.991 36.1017 151.852Z" fill="#1776E8"/>
<path fill-rule="evenodd" clip-rule="evenodd" d="M43.7137 155.463C40.6435 153.855 37.4174 145.307 40.1513 143.543C43.6113 141.306 46.2137 151.009 43.7137 155.463Z" fill="#1776E8"/>
<path fill-rule="evenodd" clip-rule="evenodd" d="M43.2019 156.024C40.6873 153.636 30.6434 153.46 31.2233 156.263C31.9105 159.567 39.7857 159.825 43.2019 156.024Z" fill="#1776E8"/>
<path fill-rule="evenodd" clip-rule="evenodd" d="M59.732 183.475C59.7418 185.488 56.9591 185.283 57.3733 183.173C60.541 150.897 25.0537 160.653 21.0381 130.483C20.8724 129.255 21.964 129.133 22.1297 130.361C25.9991 159.381 63.0556 149.625 59.732 183.475Z" fill="#1776E8"/>
<path fill-rule="evenodd" clip-rule="evenodd" d="M21.7643 131.803C18.5382 129.878 18.6649 124.81 20.5314 124.474C22.7731 124.064 23.7429 129.708 21.7643 131.803Z" fill="#1776E8"/>
<path fill-rule="evenodd" clip-rule="evenodd" d="M59.8537 190.931C60.2777 191.058 60.3021 190.468 59.9073 189.62C59.5126 188.772 58.845 187.982 58.421 187.856C54.0496 186.569 41.3839 178.597 28.6354 167.339C19.9999 159.712 11.3791 150.629 5.4434 141.223C4.91709 140.39 4.28843 139.873 4.0399 140.078C3.79136 140.283 4.0204 141.121 4.54672 141.959C11.0087 152.198 20.1461 161.871 29.2251 169.883C42.2806 181.408 55.3216 189.596 59.8537 190.931Z" fill="#1776E8"/>
<path fill-rule="evenodd" clip-rule="evenodd" d="M38.2894 173.84C39.9366 170.4 41.0282 156.945 36.462 155.59C30.8333 153.918 36.1306 171.258 36.6374 173.489C37.2222 176.048 37.3635 175.77 38.2894 173.84Z" fill="#1776E8"/>
<path fill-rule="evenodd" clip-rule="evenodd" d="M30.3849 167.763C31.7738 164.869 32.6899 153.548 28.8449 152.403C24.1081 150.994 28.5671 165.585 28.996 167.466C29.4833 169.62 29.6052 169.391 30.3849 167.763Z" fill="#1776E8"/>
<path fill-rule="evenodd" clip-rule="evenodd" d="M23.6987 161.793C24.9219 159.24 25.7309 149.244 22.3391 148.241C18.1578 146.998 22.0954 159.873 22.4707 161.535C22.9044 163.431 23.0116 163.226 23.6987 161.793Z" fill="#1776E8"/>
<path fill-rule="evenodd" clip-rule="evenodd" d="M18.3039 155.575C19.2591 153.587 19.8877 145.814 17.2464 145.029C13.9959 144.064 17.0564 154.084 17.3488 155.37C17.685 156.847 17.7727 156.691 18.3039 155.575Z" fill="#1776E8"/>
<path fill-rule="evenodd" clip-rule="evenodd" d="M13.1628 149.571C13.9523 147.924 14.4738 141.477 12.2857 140.829C9.59072 140.029 12.1248 148.333 12.3685 149.401C12.6511 150.629 12.7194 150.497 13.1628 149.571Z" fill="#1776E8"/>
<path fill-rule="evenodd" clip-rule="evenodd" d="M8.52805 144.576C9.09822 143.382 9.47834 138.714 7.89452 138.241C5.94033 137.661 7.77756 143.68 7.95787 144.454C8.15768 145.341 8.20641 145.244 8.52805 144.576Z" fill="#1776E8"/>
<path fill-rule="evenodd" clip-rule="evenodd" d="M4.99015 141.184C4.71237 139.62 2.07104 134.625 0.443362 135.102C-1.55956 135.687 3.79131 140.721 4.42972 141.404C5.16558 142.188 5.14609 142.061 4.99015 141.184Z" fill="#1776E8"/>
<path fill-rule="evenodd" clip-rule="evenodd" d="M35.5164 176.779C32.1051 178.567 18.4891 180.302 16.8858 175.882C14.9121 170.439 32.7825 174.786 35.0729 175.171C37.7094 175.624 37.4316 175.775 35.5164 176.779Z" fill="#1776E8"/>
<path fill-rule="evenodd" clip-rule="evenodd" d="M27.9726 170.239C25.0389 171.652 13.4892 172.754 12.2563 169.016C10.7309 164.406 25.7163 168.499 27.6461 168.884C29.8537 169.323 29.6198 169.445 27.9726 170.239Z" fill="#1776E8"/>
<path fill-rule="evenodd" clip-rule="evenodd" d="M21.0186 163.733C18.2993 164.747 7.93385 164.868 7.11513 161.53C6.11124 157.417 19.1424 162.061 20.8286 162.534C22.7682 163.075 22.544 163.163 21.0186 163.733Z" fill="#1776E8"/>
<path fill-rule="evenodd" clip-rule="evenodd" d="M16.0572 157.651C13.9227 158.397 5.83304 158.343 5.24337 155.741C4.52212 152.534 14.6196 156.326 15.9256 156.715C17.4266 157.169 17.2512 157.232 16.0572 157.651Z" fill="#1776E8"/>
<path fill-rule="evenodd" clip-rule="evenodd" d="M10.9453 151.267C9.19095 151.92 2.50479 152.008 1.97847 149.854C1.32545 147.203 9.73676 150.19 10.8235 150.492C12.0711 150.843 11.9297 150.902 10.9453 151.267Z" fill="#1776E8"/>
<path fill-rule="evenodd" clip-rule="evenodd" d="M6.57378 145.751C5.27748 146.165 0.399315 146.019 0.0874246 144.454C-0.302439 142.525 5.7307 144.937 6.51043 145.19C7.40711 145.483 7.2999 145.517 6.57378 145.751Z" fill="#1776E8"/>
<path fill-rule="evenodd" clip-rule="evenodd" d="M48.0311 180.282C49.4833 176.603 49.6978 162.553 44.9512 161.433C39.1032 160.053 45.6529 177.734 46.3206 180.019C47.0857 182.641 47.2124 182.344 48.0311 180.282Z" fill="#1776E8"/>
<path fill-rule="evenodd" clip-rule="evenodd" d="M45.2142 184.089C42.1441 185.984 29.571 188.416 27.8068 184.318C25.6382 179.264 42.5486 182.354 44.7074 182.593C47.1831 182.865 46.9394 183.026 45.2142 184.089Z" fill="#1776E8"/>
<path fill-rule="evenodd" clip-rule="evenodd" d="M55.5407 186.004C57.3633 182.86 59.3224 170.219 55.0144 168.645C49.7025 166.705 53.6352 183.426 53.9764 185.565C54.3614 188.021 54.5173 187.768 55.5407 186.004Z" fill="#1776E8"/>
<path fill-rule="evenodd" clip-rule="evenodd" d="M53.7816 188.66C51.0185 191.267 38.6695 196.199 36.077 192.115C32.8849 187.081 50.7261 187.286 52.9727 187.14C55.5555 186.979 55.3313 187.198 53.7816 188.66Z" fill="#1776E8"/>
<path d="M90.9651 201.754C130.925 201.754 163.319 197.6 163.319 192.476C163.319 187.351 130.925 183.197 90.9651 183.197C51.0052 183.197 18.6113 187.351 18.6113 192.476C18.6113 197.6 51.0052 201.754 90.9651 201.754Z" fill="#1776E8"/>
<path fill-rule="evenodd" clip-rule="evenodd" d="M112.042 8.02636L117.968 9.45423C118.636 6.87139 120.063 5.88698 122.183 6.39868C124.084 6.85677 125.01 7.95326 124.571 9.76612C123.567 13.9182 118.158 13.0215 116.55 19.6833L122.3 21.0722C123.523 16.0137 130.39 16.7544 131.964 10.2242C133.134 5.38016 130.2 1.78854 124.406 0.389905C118.226 -1.09645 113.621 1.68133 112.042 8.02636ZM118.523 23.6404C116.36 23.1189 114.484 24.269 113.952 26.4718C113.421 28.6794 114.557 30.5995 116.72 31.1209C118.884 31.6423 120.814 30.463 121.345 28.2554C121.876 26.0527 120.687 24.1618 118.523 23.6404Z" fill="#FFAA01"/>
<path fill-rule="evenodd" clip-rule="evenodd" d="M79.9268 35.1558L84.2201 35.6724C84.4784 33.7962 85.3995 32.9872 86.9394 33.1724C88.3186 33.3381 89.0593 34.0301 88.9034 35.3459C88.5427 38.3527 84.6539 38.1724 84.0739 42.9969L88.2406 43.4989C88.6841 39.8342 93.5817 39.7854 94.1519 35.0583C94.5759 31.5496 92.2123 29.264 88.0116 28.7572C83.5281 28.2114 80.5116 30.5505 79.9268 35.1558ZM85.7845 45.6188C84.2201 45.4287 82.9872 46.3936 82.7971 47.9921C82.6071 49.5905 83.5671 50.8478 85.1314 51.0379C86.6958 51.2279 87.9628 50.2338 88.1529 48.6353C88.3478 47.0369 87.3537 45.804 85.7845 45.6188Z" fill="#FFAA01"/>
<path fill-rule="evenodd" clip-rule="evenodd" d="M38.4017 11.584L42.6318 10.546C42.2078 8.68441 42.7926 7.59279 44.3033 7.22242C45.6629 6.89104 46.6084 7.27603 46.93 8.5772C47.6561 11.5402 43.9281 12.7536 45.0976 17.5051L49.2058 16.4963C48.3189 12.8852 52.9242 11.0967 51.7741 6.43295C50.9261 2.97291 47.8852 1.65712 43.7477 2.67564C39.3325 3.76238 37.3199 7.03724 38.4017 11.584ZM47.6512 19.3667C46.1064 19.7468 45.2926 21.0918 45.6776 22.6659C46.0626 24.24 47.4173 25.0879 48.9622 24.7078C50.507 24.3277 51.3452 22.9437 50.9553 21.3696C50.5704 19.7955 49.1912 18.9866 47.6512 19.3667Z" fill="#FFAA01"/>
</g>
<defs>
<clipPath id="clip0_431_1415">
<rect width="180" height="201.759" fill="white"/>
</clipPath>
</defs>
</svg>
