<svg width="261" height="200" viewBox="0 0 261 200" fill="none" xmlns="http://www.w3.org/2000/svg">
<g clip-path="url(#clip0_256_1550)">
<path d="M231.921 190.271C218.95 180.417 196.763 155.958 225.978 117.562C262.107 70.0829 218.841 50.6081 177.362 52.6407C143.997 54.2736 106.44 12.3267 68.9809 19.8231C19.2578 29.7746 51.5444 72.595 17.8305 95.661C-10.922 115.336 1.42169 175.278 38.841 190.271H231.921Z" fill="#DCEDF9"/>
<path d="M255.335 103.203C255.136 96.1633 248.576 93.4342 244.196 98.527C241.684 101.45 239.292 105.647 238.841 111.253C237.836 123.808 248.821 120.166 252.926 113.446C254.679 110.585 255.438 106.766 255.335 103.203Z" fill="#DCEDF9"/>
<path d="M134.49 17.3394C127.571 16.032 123.5 21.8556 127.542 27.2167C129.86 30.294 133.446 33.5313 138.83 35.1699C150.876 38.8353 149.672 27.3252 143.985 21.8841C141.559 19.5547 137.99 18.0017 134.49 17.3394Z" fill="#DCEDF9"/>
<path d="M20.1085 81.8441C22.8776 75.3696 18.0702 70.1398 11.9555 72.9317C8.44992 74.5361 4.51615 77.3394 1.75852 82.2437C-4.41334 93.2229 7.08538 94.5189 13.6226 90.1398C16.4202 88.2672 18.7097 85.1156 20.1085 81.8441Z" fill="#DCEDF9"/>
<path d="M130.391 200C195.902 200 249.009 196.503 249.009 192.19C249.009 187.876 195.902 184.379 130.391 184.379C64.88 184.379 11.7728 187.876 11.7728 192.19C11.7728 196.503 64.88 200 130.391 200Z" fill="#DCEDF9"/>
<path d="M245.812 128.124C238.55 135.387 246.651 135.998 241.325 141.484C236.466 146.48 229.301 141.616 229.774 153.822C229.877 156.494 227.936 158.475 225.207 159.486C220.719 161.153 216.335 159.612 213.628 156.54C213.411 156.294 213.2 156.032 213.006 155.764C210.956 152.966 210.208 149.169 211.727 145.412C212.96 142.364 215.147 139.36 219.012 138.161C228.09 135.352 223.055 123.328 230.728 122.803C239.983 122.164 240.314 118.772 246.886 114.193C253.851 109.346 255.655 118.287 245.812 128.124Z" fill="#0077EB"/>
<path d="M242.558 124.156C242.352 124.367 225.515 141.73 213.634 156.546C213.417 156.3 213.206 156.037 213.012 155.769C224.927 140.948 241.661 123.688 241.861 123.482C242.05 123.288 242.358 123.288 242.546 123.471C242.741 123.659 242.741 123.968 242.558 124.156Z" fill="#0059D3"/>
<path d="M247.673 152.361C236.295 159.058 246.183 162.432 237.785 167.542C230.128 172.201 222.775 163.837 219.435 179.183C218.704 182.541 215.649 184.379 211.927 184.767C205.806 185.401 200.839 182.067 198.464 177.374C198.27 176.997 198.093 176.603 197.939 176.209C196.289 172.064 196.58 167.102 199.68 162.912C202.198 159.509 205.881 156.477 211.088 156.237C223.294 155.666 220.891 139.075 230.619 140.891C242.347 143.077 243.854 138.961 253.503 135.381C263.728 131.579 263.094 143.283 247.673 152.361Z" fill="#008EFF"/>
<path d="M244.899 146.377C244.579 146.571 218.025 162.763 198.464 177.379C198.27 177.002 198.093 176.608 197.939 176.215C217.545 161.598 243.928 145.509 244.253 145.315C244.55 145.138 244.933 145.23 245.11 145.527C245.287 145.812 245.196 146.195 244.899 146.377Z" fill="#0077EB"/>
<path d="M25.7722 45.1898C29.6774 54.6902 21.964 52.1324 24.7673 59.2463C27.3251 65.7322 35.815 64.0022 30.6708 75.0842C29.5461 77.5049 30.5738 80.0856 32.6977 82.0725C36.1918 85.3382 40.8393 85.6066 44.5161 83.8195C44.813 83.6768 45.1042 83.5169 45.3897 83.3457C48.3585 81.5529 50.511 78.3385 50.5624 74.2849C50.6023 70.9962 49.7402 67.3822 46.6286 64.7901C39.332 58.7039 48.6155 49.5461 41.7356 46.1033C33.4399 41.9469 34.4447 38.6868 30.1456 31.9326C25.5895 24.7616 20.4796 32.3151 25.7722 45.1898Z" fill="#0077EB"/>
<path d="M30.3054 42.7805C30.4139 43.0489 39.2578 65.561 44.5161 83.8139C44.813 83.6712 45.1042 83.5113 45.3896 83.34C40.1084 65.07 31.316 42.7006 31.2075 42.4265C31.1104 42.1753 30.825 42.0554 30.5795 42.1525C30.3283 42.2496 30.2027 42.535 30.3054 42.7805Z" fill="#0059D3"/>
<path d="M14.6503 69.9971C22.8832 80.3197 12.4465 79.9372 18.4642 87.7134C23.9509 94.7987 33.811 89.6146 31.4416 105.144C30.922 108.541 33.1202 111.35 36.4602 113.04C41.9526 115.821 47.7819 114.479 51.6757 110.945C51.9897 110.659 52.298 110.357 52.5835 110.043C55.6095 106.76 57.111 102.021 55.7065 96.9968C54.5703 92.9203 52.2124 88.7696 47.4393 86.6857C36.2432 81.7927 44.4133 67.1538 34.6845 65.3725C22.9517 63.2258 23.0145 58.841 15.284 52.0468C7.08534 44.8472 3.49413 56.0091 14.6503 69.9971Z" fill="#008EFF"/>
<path d="M19.3833 65.3953C19.6117 65.6922 38.6297 90.2996 51.6757 110.939C51.9897 110.654 52.298 110.351 52.5834 110.037C39.4975 89.3804 20.5994 64.9214 20.3711 64.6302C20.1598 64.3562 19.7659 64.3105 19.4975 64.5217C19.2235 64.733 19.1721 65.1269 19.3833 65.3953Z" fill="#0077EB"/>
<path d="M70.1856 61.0105C73.5027 58.7382 81.8099 64.3391 86.1547 71.1447L82.3009 60.3482C80.9078 59.1378 78.4642 57.4421 74.6503 56.089C68.7183 53.988 62.7691 50.6936 66.0919 48.4156C69.2036 46.2803 76.7171 51.0933 81.2218 57.3165L76.2718 43.4541C75.3526 42.7462 73.9481 41.884 71.9498 41.1761C68.2101 39.8515 64.4591 37.7733 66.5544 36.3402C68.37 35.0956 72.5664 37.602 75.4325 41.0962L73.8282 36.6029C73.0974 35.2954 72.0525 33.4341 70.4082 31.7327C66.6001 27.7933 63.7168 23.3571 66.6572 22.7119C69.5975 22.0667 74.4105 29.7916 75.1699 36.7741L75.9977 39.0864C75.3583 34.0108 77.1796 27.8675 79.726 27.6448C82.2552 27.4279 80.668 31.4073 78.6126 34.8044C77.0483 37.3908 76.6144 39.4404 76.5002 40.4967L80.3997 51.4187C79.4062 43.3799 82.2952 33.6796 86.326 33.3371C90.3397 32.9945 87.8219 39.3091 84.5618 44.6931C82.0954 48.7639 81.4045 52.0011 81.2161 53.6911L85.8921 66.7884C85.0643 58.8409 87.9075 49.1978 91.8698 49.1692C94.9244 49.1464 93.988 53.4627 90.3397 59.5546C87.8561 63.6939 87.0682 67.4107 86.8113 69.3691L89.0152 75.5352C88.644 75.7978 88.2615 75.9349 87.879 75.9406L87.0054 73.4855C85.7665 72.2866 83.1916 70.254 78.7611 68.6839C72.8119 66.5829 66.8627 63.2886 70.1856 61.0105Z" fill="#008EFF"/>
<path d="M40.9991 152.503C37.5963 154.645 39.4348 164.493 43.9509 171.185L35.5752 163.357C35.0214 161.599 34.4333 158.681 34.7074 154.645C35.1356 148.364 34.479 141.599 31.0705 143.74C27.8733 145.749 29.3006 154.553 33.223 161.159L22.4665 151.105C22.181 149.98 21.9526 148.353 22.0953 146.229C22.3637 142.272 21.9526 138.007 19.8002 139.355C17.9332 140.525 18.5669 145.372 20.6337 149.392L17.151 146.132C16.2432 144.939 14.9472 143.243 14.0394 141.056C11.9383 135.992 9.01513 131.59 7.25664 134.028C5.49815 136.472 10.6709 143.957 16.7742 147.428L18.5669 149.106C14.165 146.503 7.79903 145.732 6.58864 147.982C5.38396 150.214 9.666 150.345 13.5998 149.809C16.5915 149.398 18.6469 149.82 19.6631 150.134L28.1359 158.053C21.1533 153.948 11.1048 152.743 9.18641 156.3C7.27377 159.846 14.0737 160.046 20.3083 159.195C25.0243 158.55 28.2672 159.201 29.9001 159.703L40.0571 169.198C33.0973 165.281 23.1173 164.054 21.513 167.679C20.2741 170.477 24.6075 171.333 31.6472 170.402C36.4316 169.774 40.1599 170.522 42.0554 171.065L46.8399 175.535C47.2281 175.301 47.5021 175.004 47.662 174.656L45.7608 172.875C45.1556 171.265 44.3106 168.09 44.6303 163.403C45.0699 157.128 44.4076 150.357 40.9991 152.503Z" fill="#008EFF"/>
<path d="M212.726 64.2422H31.1162V189.695H212.726V64.2422Z" fill="#FFAA01"/>
<path d="M212.726 64.2478V72.2923L121.924 152.772L31.1162 72.2923V64.2478L121.918 145.001L212.726 64.2478Z" fill="#F88800"/>
<path d="M104.425 129.169L36.3803 189.695H31.1162V186.497L100.514 124.773L104.425 129.169Z" fill="#F88800"/>
<path d="M212.732 186.92V189.695H206.994L138.944 129.169L142.855 124.773L212.732 186.92Z" fill="#F88800"/>
<path d="M31.1105 64.2422L121.918 145.002L212.726 64.2422H31.1105Z" fill="#FDCC50"/>
<path d="M199.121 47.7133H188.267C187.434 47.7133 186.76 47.0396 186.76 46.2061V35.3525C186.76 34.5189 187.434 33.8452 188.267 33.8452H199.121C199.954 33.8452 200.628 34.5189 200.628 35.3525V46.2061C200.628 47.0339 199.954 47.7133 199.121 47.7133Z" fill="#FFAA01"/>
<path d="M198.418 40.7764C198.418 41.9182 198.013 42.9688 197.339 43.7852C196.472 44.83 195.164 45.498 193.697 45.498C192.23 45.498 190.922 44.83 190.054 43.7852C189.381 42.9688 188.975 41.9182 188.975 40.7764C188.975 38.1672 191.088 36.0547 193.697 36.0547C196.3 36.0547 198.418 38.1672 198.418 40.7764Z" fill="#FDCC50"/>
<path d="M197.334 43.7853C196.466 44.8301 195.158 45.4981 193.691 45.4981C192.224 45.4981 190.916 44.8301 190.049 43.7853L190.111 43.6596C190.214 43.4598 190.357 43.2828 190.522 43.1401C190.694 42.9974 190.888 42.8889 191.105 42.8204C191.876 42.5863 192.589 42.3465 192.989 41.6614C192.504 41.433 192.178 40.9762 192.041 40.6508C191.504 40.765 191.122 39.7773 191.407 39.5146C191.516 39.4176 191.624 39.389 191.721 39.3947C191.807 38.3899 192.652 37.4878 193.68 37.4878C194.707 37.4878 195.552 38.3842 195.644 39.3947C195.741 39.389 195.849 39.4176 195.958 39.5146C196.243 39.7773 195.861 40.765 195.324 40.6508C195.21 41.0105 194.804 41.4444 194.445 41.5986C194.844 42.2837 195.49 42.5863 196.26 42.8204C196.477 42.8889 196.677 42.9974 196.843 43.1401C197.014 43.2828 197.157 43.4598 197.254 43.6596L197.334 43.7853Z" fill="white"/>
<path d="M18.921 121.462H8.0674C7.23383 121.462 6.56012 120.788 6.56012 119.954V109.101C6.56012 108.267 7.23383 107.594 8.0674 107.594H18.921C19.7545 107.594 20.4282 108.267 20.4282 109.101V119.954C20.4282 120.782 19.7488 121.462 18.921 121.462Z" fill="#FFAA01"/>
<path d="M13.7026 109.929C11.9327 109.809 10.4597 111.213 10.4597 112.955C10.4597 113.52 10.6138 114.051 10.8822 114.502C11.2818 115.181 11.6986 115.849 12.0811 116.534L13.5199 119.126L15.7123 115.17C15.8436 114.941 15.9806 114.713 16.112 114.485C16.3917 114.016 16.5402 113.463 16.5287 112.875C16.4888 111.327 15.2498 110.031 13.7026 109.929ZM13.4913 113.874C12.7834 113.874 12.2124 113.303 12.2124 112.595C12.2124 111.887 12.7891 111.316 13.4913 111.316C14.1993 111.316 14.7702 111.887 14.7702 112.595C14.776 113.303 14.1993 113.874 13.4913 113.874Z" fill="white"/>
<path d="M246.806 52.2808C248.513 52.2808 249.9 53.6681 249.9 55.3753C249.9 57.0824 248.513 58.4697 246.806 58.4697C245.099 58.4697 243.711 57.0824 243.711 55.3753C243.705 53.6681 245.099 52.2808 246.806 52.2808ZM246.806 57.4991C247.976 57.4991 248.93 56.5457 248.93 55.3753C248.93 54.2048 247.976 53.2514 246.806 53.2514C245.635 53.2514 244.682 54.2048 244.682 55.3753C244.676 56.5457 245.63 57.4991 246.806 57.4991Z" fill="#008EFF"/>
<path d="M235.655 41.416C237.362 41.416 238.75 42.8034 238.75 44.5105C238.75 46.2176 237.362 47.605 235.655 47.605C233.948 47.605 232.561 46.2176 232.561 44.5105C232.561 42.8091 233.948 41.416 235.655 41.416ZM235.655 46.6401C236.826 46.6401 237.779 45.6866 237.779 44.5162C237.779 43.3458 236.826 42.3923 235.655 42.3923C234.485 42.3923 233.531 43.3458 233.531 44.5162C233.531 45.6866 234.485 46.6401 235.655 46.6401Z" fill="#FFAA01"/>
<path d="M231.83 31.356C232.098 31.356 232.315 31.5729 232.315 31.8413V33.9823C232.315 34.2506 232.098 34.4676 231.83 34.4676C231.562 34.4676 231.345 34.2506 231.345 33.9823V31.8413C231.345 31.5729 231.562 31.356 231.83 31.356Z" fill="#008EFF"/>
<path d="M231.83 27.6106C232.098 27.6106 232.315 27.8276 232.315 28.0959V30.2369C232.315 30.5053 232.098 30.7222 231.83 30.7222C231.562 30.7222 231.345 30.5053 231.345 30.2369V28.0959C231.345 27.8276 231.562 27.6106 231.83 27.6106Z" fill="#008EFF"/>
<path d="M228.827 30.5566H230.751C231.019 30.5566 231.236 30.7736 231.236 31.0419C231.236 31.3103 231.019 31.5272 230.751 31.5272H228.827C228.558 31.5272 228.341 31.3103 228.341 31.0419C228.341 30.7736 228.558 30.5566 228.827 30.5566Z" fill="#008EFF"/>
<path d="M232.915 30.5566H234.839C235.107 30.5566 235.324 30.7736 235.324 31.0419C235.324 31.3103 235.107 31.5272 234.839 31.5272H232.915C232.646 31.5272 232.429 31.3103 232.429 31.0419C232.429 30.7736 232.646 30.5566 232.915 30.5566Z" fill="#008EFF"/>
<path d="M248.93 43.3572C249.198 43.3572 249.415 43.5741 249.415 43.8425V45.9835C249.415 46.2518 249.198 46.4688 248.93 46.4688C248.661 46.4688 248.444 46.2518 248.444 45.9835V43.8425C248.444 43.5741 248.661 43.3572 248.93 43.3572Z" fill="#FFAA01"/>
<path d="M248.93 39.6118C249.198 39.6118 249.415 39.8288 249.415 40.0971V42.2381C249.415 42.5065 249.198 42.7234 248.93 42.7234C248.661 42.7234 248.444 42.5065 248.444 42.2381V40.0971C248.444 39.8288 248.661 39.6118 248.93 39.6118Z" fill="#FFAA01"/>
<path d="M245.921 42.5579H247.845C248.113 42.5579 248.33 42.7748 248.33 43.0432C248.33 43.3115 248.113 43.5285 247.845 43.5285H245.921C245.652 43.5285 245.435 43.3115 245.435 43.0432C245.435 42.7748 245.652 42.5579 245.921 42.5579Z" fill="#FFAA01"/>
<path d="M250.009 42.5579H251.933C252.201 42.5579 252.418 42.7748 252.418 43.0432C252.418 43.3115 252.201 43.5285 251.933 43.5285H250.009C249.74 43.5285 249.523 43.3115 249.523 43.0432C249.523 42.7748 249.74 42.5579 250.009 42.5579Z" fill="#FFAA01"/>
<path d="M55.0728 12.749C56.7799 12.749 58.1673 14.1364 58.1673 15.8435C58.1673 17.5506 56.7799 18.938 55.0728 18.938C53.3657 18.938 51.9783 17.5506 51.9783 15.8435C51.9783 14.1364 53.3657 12.749 55.0728 12.749ZM55.0728 13.7196C53.9024 13.7196 52.9489 14.6731 52.9489 15.8435C52.9489 17.0139 53.9024 17.9674 55.0728 17.9674C56.2432 17.9674 57.1967 17.0139 57.1967 15.8435C57.2024 14.6731 56.249 13.7196 55.0728 13.7196Z" fill="#008EFF"/>
<path d="M43.8025 2.51782C45.5096 2.51782 46.8969 3.9052 46.8969 5.61231C46.8969 7.31942 45.5096 8.7068 43.8025 8.7068C42.0953 8.7068 40.708 7.31942 40.708 5.61231C40.7023 3.91091 42.0953 2.51782 43.8025 2.51782ZM43.8025 3.49413C42.632 3.49413 41.6786 4.4476 41.6786 5.61802C41.6786 6.78845 42.632 7.74192 43.8025 7.74192C44.9729 7.74192 45.9263 6.78845 45.9263 5.61802C45.9263 4.4476 44.9729 3.49413 43.8025 3.49413Z" fill="#FFAA01"/>
<path d="M39.7145 20.217C39.7145 20.4853 39.9315 20.7023 40.1998 20.7023H42.3409C42.6092 20.7023 42.8262 20.4853 42.8262 20.217C42.8262 19.9486 42.6092 19.7317 42.3409 19.7317H40.1998C39.9315 19.7317 39.7145 19.9486 39.7145 20.217Z" fill="#008EFF"/>
<path d="M35.9692 20.217C35.9692 20.4853 36.1861 20.7023 36.4545 20.7023H38.5955C38.8638 20.7023 39.0808 20.4853 39.0808 20.217C39.0808 19.9486 38.8638 19.7317 38.5955 19.7317H36.4545C36.1861 19.7317 35.9692 19.9486 35.9692 20.217Z" fill="#008EFF"/>
<path d="M38.9152 17.2138V19.1379C38.9152 19.4062 39.1322 19.6232 39.4005 19.6232C39.6689 19.6232 39.8858 19.4062 39.8858 19.1379V17.2138C39.8858 16.9455 39.6689 16.7285 39.4005 16.7285C39.1322 16.7285 38.9152 16.9455 38.9152 17.2138Z" fill="#008EFF"/>
<path d="M38.9152 21.3017V23.2258C38.9152 23.4941 39.1322 23.7111 39.4005 23.7111C39.6689 23.7111 39.8858 23.4941 39.8858 23.2258V21.3017C39.8858 21.0334 39.6689 20.8164 39.4005 20.8164C39.1322 20.8164 38.9152 21.0334 38.9152 21.3017Z" fill="#008EFF"/>
<path d="M62.3923 3.49409C62.3923 3.76243 62.6092 3.97939 62.8776 3.97939H65.0186C65.2869 3.97939 65.5039 3.76243 65.5039 3.49409C65.5039 3.22575 65.2869 3.00879 65.0186 3.00879H62.8776C62.6092 3.00879 62.3923 3.22575 62.3923 3.49409Z" fill="#FFAA01"/>
<path d="M58.6469 3.49409C58.6469 3.76243 58.8639 3.97939 59.1322 3.97939H61.2732C61.5416 3.97939 61.7585 3.76243 61.7585 3.49409C61.7585 3.22575 61.5416 3.00879 61.2732 3.00879H59.1322C58.8639 3.00879 58.6469 3.22575 58.6469 3.49409Z" fill="#FFAA01"/>
<path d="M61.593 0.485298V2.40936C61.593 2.6777 61.8099 2.89466 62.0783 2.89466C62.3466 2.89466 62.5636 2.6777 62.5636 2.40936V0.485298C62.5636 0.216957 62.3466 0 62.0783 0C61.8099 0 61.593 0.216957 61.593 0.485298Z" fill="#FFAA01"/>
<path d="M61.593 4.57319V6.49725C61.593 6.7656 61.8099 6.98255 62.0783 6.98255C62.3466 6.98255 62.5636 6.7656 62.5636 6.49725V4.57319C62.5636 4.30485 62.3466 4.08789 62.0783 4.08789C61.8099 4.08789 61.593 4.30485 61.593 4.57319Z" fill="#FFAA01"/>
<path d="M191.487 18.4357C191.55 18.4528 191.624 18.4528 191.693 18.4357C192.429 18.253 192.852 18.1788 192.858 18.1788C193.08 18.1388 193.229 17.939 193.189 17.7334C193.149 17.5222 192.938 17.3852 192.715 17.4251C192.698 17.4308 192.258 17.5051 191.487 17.6935C191.27 17.7449 191.139 17.9561 191.196 18.1616C191.23 18.3044 191.35 18.4072 191.487 18.4357Z" fill="#DCEDF9"/>
<path d="M167.696 36.0605C167.314 36.7113 166.948 37.3907 166.606 38.0759C166.52 38.2472 166.32 38.3271 166.138 38.2871C166.115 38.2814 166.086 38.27 166.063 38.2643C165.858 38.1729 165.772 37.9446 165.869 37.7504C166.218 37.0539 166.594 36.3631 166.983 35.6951C167.091 35.5066 167.337 35.4381 167.536 35.5409C167.731 35.6437 167.805 35.8778 167.696 36.0605Z" fill="#DCEDF9"/>
<path d="M165.641 40.1484C165.344 40.8392 165.064 41.5529 164.807 42.2665C164.739 42.4607 164.522 42.5634 164.316 42.5177C164.305 42.5177 164.294 42.512 164.288 42.512C164.071 42.4435 163.957 42.2266 164.031 42.0267C164.294 41.2959 164.579 40.5708 164.882 39.8629C164.967 39.6631 165.207 39.5717 165.413 39.6516C165.624 39.7259 165.721 39.9485 165.641 40.1484Z" fill="#DCEDF9"/>
<path d="M162.164 51.4072C161.964 51.3616 161.833 51.1789 161.861 50.9848C161.964 50.2197 162.09 49.4546 162.227 48.7067C162.267 48.4955 162.478 48.3584 162.701 48.3927C162.929 48.4327 163.072 48.6268 163.032 48.838C162.895 49.5688 162.775 50.3225 162.672 51.0761C162.644 51.2874 162.438 51.4358 162.215 51.4072C162.198 51.4187 162.181 51.413 162.164 51.4072Z" fill="#DCEDF9"/>
<path d="M163.808 43.9566C164.025 44.0137 164.151 44.225 164.094 44.4305C163.991 44.7674 163.894 45.1099 163.808 45.4468C163.705 45.835 163.603 46.2347 163.506 46.6286C163.454 46.8342 163.237 46.9655 163.015 46.9198C163.009 46.9198 163.009 46.9198 163.003 46.9198C162.786 46.8684 162.655 46.6686 162.706 46.463C162.803 46.0634 162.906 45.658 163.015 45.2641C163.106 44.9215 163.203 44.5732 163.306 44.2307C163.363 44.0308 163.586 43.9109 163.803 43.9623C163.803 43.9509 163.808 43.9509 163.808 43.9566Z" fill="#DCEDF9"/>
<path d="M168.918 34.1137C168.821 34.2564 168.638 34.3192 168.473 34.2793C168.433 34.2678 168.393 34.2564 168.353 34.2336C168.159 34.1194 168.107 33.8853 168.227 33.7026C168.661 33.0517 169.129 32.4123 169.603 31.79C169.735 31.6187 169.991 31.5787 170.174 31.7043C170.357 31.8299 170.397 32.0697 170.266 32.241C169.797 32.8519 169.341 33.4799 168.918 34.1137Z" fill="#DCEDF9"/>
<path d="M189.392 19.0922C188.644 19.332 187.885 19.6003 187.137 19.8915C187.051 19.9258 186.96 19.9258 186.88 19.9086C186.76 19.8801 186.651 19.8001 186.6 19.6803C186.514 19.4861 186.612 19.2578 186.823 19.1778C187.588 18.8809 188.359 18.6069 189.124 18.3614C189.335 18.2929 189.569 18.4013 189.643 18.6012C189.723 18.8067 189.609 19.0237 189.392 19.0922Z" fill="#DCEDF9"/>
<path d="M182.803 21.8612C182.706 21.9126 182.604 21.924 182.501 21.8955C182.398 21.8726 182.301 21.8041 182.244 21.7128C182.135 21.5301 182.204 21.2903 182.404 21.1875C183.117 20.8164 183.848 20.4567 184.585 20.1199C184.79 20.0285 185.036 20.1084 185.133 20.2968C185.23 20.4853 185.144 20.7193 184.944 20.8107C184.219 21.1418 183.5 21.4958 182.803 21.8612Z" fill="#DCEDF9"/>
<path d="M175.033 27.171C174.924 27.2623 174.782 27.2966 174.65 27.2623C174.576 27.2452 174.508 27.2109 174.45 27.1538C174.296 26.9997 174.302 26.7542 174.468 26.6115C175.061 26.0862 175.684 25.5781 176.312 25.087C176.489 24.95 176.746 24.9729 176.888 25.1384C177.031 25.304 177.008 25.5438 176.831 25.6808C176.226 26.1547 175.615 26.6571 175.033 27.171Z" fill="#DCEDF9"/>
<path d="M178.744 24.2935C178.641 24.362 178.516 24.3848 178.401 24.3563C178.31 24.3334 178.23 24.2877 178.173 24.2078C178.042 24.0365 178.082 23.7967 178.264 23.6711C178.921 23.2201 179.606 22.7862 180.297 22.3694C180.485 22.2552 180.742 22.3066 180.862 22.4893C180.982 22.6663 180.931 22.9061 180.737 23.0203C180.057 23.4256 179.389 23.8538 178.744 24.2935Z" fill="#DCEDF9"/>
<path d="M171.739 30.4597C171.636 30.5796 171.47 30.6252 171.322 30.5853C171.265 30.5739 171.208 30.5453 171.162 30.5111C170.985 30.374 170.962 30.1342 171.105 29.9687C171.624 29.3806 172.172 28.7982 172.732 28.2387C172.886 28.0846 173.149 28.0789 173.309 28.2216C173.474 28.37 173.48 28.6098 173.326 28.764C172.783 29.3121 172.247 29.883 171.739 30.4597Z" fill="#DCEDF9"/>
<path d="M191.898 15.8322L191.071 9.42627L212.783 12.5379L191.898 15.8322Z" fill="#008EFF"/>
<path d="M212.783 12.5378L192.726 17.465L192.669 17.4822L191.664 18.6355L191.898 15.8322L212.783 12.5378Z" fill="#0077EB"/>
<path d="M191.664 18.6355L193.463 18.6126L192.669 17.4822L191.664 18.6355Z" fill="#0059D3"/>
<path d="M195.193 16.8599L192.669 17.4822L196.774 23.3286L212.783 12.5378L195.193 16.8599Z" fill="#008EFF"/>
</g>
<defs>
<clipPath id="clip0_256_1550">
<rect width="260.36" height="200" fill="white"/>
</clipPath>
</defs>
</svg>
