<svg width="280" height="286" viewBox="0 0 280 286" fill="none" xmlns="http://www.w3.org/2000/svg">
<g clip-path="url(#clip0_561_1912)">
<path d="M242.127 133.566C242.127 136.935 239.392 139.67 236.023 139.67C232.654 139.67 229.919 136.935 229.919 133.566C229.919 130.197 232.654 127.462 236.023 127.462C239.392 127.462 242.127 130.197 242.127 133.566Z" fill="#1776E8"/>
<path d="M222.497 138.168C225.037 135.628 225.037 131.509 222.497 128.969C219.956 126.428 215.838 126.428 213.297 128.969C210.757 131.509 210.757 135.628 213.297 138.168C215.838 140.708 219.956 140.708 222.497 138.168Z" fill="#1776E8"/>
<path d="M203.97 128.962C207.781 128.962 210.87 125.873 210.87 122.063C210.87 118.252 207.781 115.163 203.97 115.163C200.16 115.163 197.071 118.252 197.071 122.063C197.071 125.873 200.16 128.962 203.97 128.962Z" fill="#1776E8"/>
<path d="M208.25 105.647C208.954 101.727 206.347 97.9796 202.428 97.276C198.508 96.5724 194.761 99.1793 194.057 103.099C193.353 107.018 195.96 110.766 199.88 111.469C203.799 112.173 207.547 109.566 208.25 105.647Z" fill="#1776E8"/>
<path d="M209.971 96.3396C214.085 96.3396 217.42 93.0045 217.42 88.8905C217.42 84.7765 214.085 81.4414 209.971 81.4414C205.857 81.4414 202.522 84.7765 202.522 88.8905C202.522 93.0045 205.857 96.3396 209.971 96.3396Z" fill="#1776E8"/>
<path d="M230.077 90.2777C234.215 88.5482 236.168 83.791 234.439 79.6523C232.709 75.5136 227.952 73.5606 223.813 75.2902C219.675 77.0198 217.722 81.7769 219.451 85.9156C221.181 90.0543 225.938 92.0073 230.077 90.2777Z" fill="#1776E8"/>
<path d="M255.248 123.262C255.993 120.091 254.027 116.916 250.857 116.171C247.686 115.425 244.512 117.391 243.766 120.562C243.02 123.732 244.986 126.907 248.157 127.653C251.328 128.398 254.502 126.432 255.248 123.262Z" fill="#1776E8"/>
<path d="M254.609 109.298C257.431 108.217 258.842 105.054 257.762 102.233C256.681 99.411 253.518 97.9995 250.697 99.0799C247.875 100.16 246.464 103.323 247.544 106.145C248.625 108.966 251.788 110.378 254.609 109.298Z" fill="#1776E8"/>
<path d="M248.476 89.5034C248.917 86.7785 247.066 84.2119 244.341 83.7708C241.616 83.3297 239.049 85.181 238.608 87.9059C238.167 90.6309 240.019 93.1975 242.743 93.6386C245.468 94.0797 248.035 92.2283 248.476 89.5034Z" fill="#1776E8"/>
<path fill-rule="evenodd" clip-rule="evenodd" d="M66.9188 59.3208C68.4254 60.9309 69.6863 62.7156 70.6886 64.6167L76.7151 64.5908L78.9524 74.3095L73.5208 76.9283C73.4496 79.0816 73.1005 81.2348 72.4474 83.3428L76.728 87.5911L71.4387 96.0489L65.7484 94.0638C64.1383 95.5704 62.3536 96.8313 60.4526 97.8336L60.4784 103.867L50.7597 106.11L48.1409 100.679C45.9876 100.608 43.8344 100.252 41.7264 99.6053L37.4781 103.886L29.0203 98.5966L31.0054 92.9063C29.4988 91.2963 28.2379 89.5116 27.2356 87.6105L21.2026 87.6364L18.9589 77.9177L24.3905 75.2988C24.4616 73.1456 24.8173 70.9923 25.4639 68.8844L21.1832 64.6361L26.4726 56.1782L32.1629 58.1634C33.773 56.6567 35.5576 55.3958 37.4587 54.3871L37.4328 48.3541L47.1516 46.1104L49.7704 51.542C51.9236 51.6131 54.0769 51.9687 56.1849 52.6154L60.4267 48.3347L68.8845 53.6241L66.9188 59.3208ZM55.0274 67.2807C50.0161 64.1446 43.4141 65.6706 40.278 70.682C37.1419 75.6933 38.6679 82.2953 43.6792 85.4314C48.6905 88.5675 55.2925 87.0415 58.4286 82.0302C61.5583 77.0124 60.0387 70.4104 55.0274 67.2807Z" fill="#1776E8"/>
<path fill-rule="evenodd" clip-rule="evenodd" d="M72.7966 18.4354C73.6308 19.3277 74.3291 20.317 74.8852 21.371L78.2218 21.3581L79.4633 26.738L76.4565 28.1864C76.4177 29.3762 76.2237 30.5724 75.8616 31.7364L78.2282 34.0901L75.299 38.7716L72.15 37.6723C71.2577 38.5065 70.2683 39.2048 69.2143 39.7609L69.2273 43.0975L63.8474 44.339L62.3989 41.3322C61.2092 41.2934 60.0129 41.0994 58.849 40.7373L56.5018 43.104L51.8202 40.1748L52.9195 37.0257C52.0853 36.1334 51.387 35.1441 50.8309 34.0901L47.4943 34.103L46.2528 28.7231L49.2596 27.2747C49.2984 26.0849 49.4924 24.8886 49.8545 23.7247L47.4879 21.371L50.4171 16.6895L53.5661 17.7887C54.4584 16.9546 55.4478 16.2562 56.5018 15.7002L56.4888 12.3636L61.8687 11.1221L63.3171 14.1289C64.5069 14.1677 65.7032 14.3616 66.8671 14.7238L69.2143 12.3571L73.8959 15.2863L72.7966 18.4354ZM66.2075 22.8388C63.4335 21.1059 59.7801 21.9465 58.0407 24.7205C56.3078 27.4945 57.1484 31.1479 59.9224 32.8873C62.6964 34.6203 66.3498 33.7797 68.0892 31.0057C69.8286 28.2317 68.9816 24.5783 66.2075 22.8388Z" fill="#1776E8"/>
<path d="M25.9684 28.38C25.9748 28.3736 26.0654 28.4253 26.2399 28.5287C26.4145 28.6322 26.6538 28.8133 26.9254 29.0848C27.4685 29.6151 28.1604 30.5979 28.3027 32.0011C28.3673 32.693 28.3091 33.4754 28.0052 34.2449C27.7013 35.0079 27.2034 35.7709 26.4598 36.3399C26.0977 36.6309 25.6838 36.8702 25.2312 37.0512C24.7786 37.2323 24.2936 37.3487 23.7892 37.3875C22.7805 37.478 21.7136 37.2193 20.7954 36.6568C19.8901 36.0813 19.1853 35.2342 18.8297 34.2837C18.6357 33.8181 18.5322 33.3267 18.4999 32.8417C18.4611 32.3567 18.4934 31.8782 18.5969 31.4256C18.7844 30.5139 19.25 29.725 19.7996 29.1236C20.3557 28.5158 21.0346 28.1149 21.6877 27.8757C23.0133 27.3972 24.1966 27.5847 24.9079 27.8433C25.27 27.9726 25.5416 28.1084 25.7097 28.2184C25.8843 28.3154 25.9748 28.3736 25.9684 28.38C25.949 28.4124 25.5998 28.1666 24.8756 27.9403C24.1643 27.7205 23.0198 27.5782 21.7653 28.0632C21.1446 28.3089 20.5109 28.6969 19.9871 29.2853C19.4698 29.8672 19.0366 30.6173 18.8685 31.4773C18.7715 31.9041 18.7456 32.3567 18.7844 32.8158C18.8167 33.2749 18.9202 33.734 19.1012 34.1737C19.4439 35.0596 20.1035 35.855 20.957 36.3981C21.817 36.9219 22.8193 37.1676 23.7634 37.09C24.2354 37.0577 24.701 36.9542 25.1213 36.7796C25.5481 36.618 25.9425 36.3917 26.2852 36.1201C26.99 35.5898 27.4685 34.8721 27.766 34.1543C28.0634 33.4301 28.1345 32.6865 28.0828 32.0205C27.9664 30.6755 27.3392 29.7121 26.8284 29.1689C26.324 28.6193 25.949 28.4124 25.9684 28.38Z" fill="#1776E8"/>
<path d="M31.3029 24.8109C31.2965 24.8109 31.3159 24.7592 31.3482 24.6493C31.387 24.5264 31.4387 24.3648 31.5034 24.1643C31.6521 23.7181 31.8655 23.078 32.1435 22.2438L32.1629 22.302C31.1865 21.7007 29.9062 20.9118 28.3543 19.9548L28.4513 19.9419C27.8758 20.5238 27.2357 21.1769 26.5567 21.8688L26.5179 21.9076L26.4662 21.8947C25.5997 21.6296 24.6363 21.455 23.6146 21.4291H23.5564L23.5305 21.3774C23.162 20.6208 22.7611 19.7996 22.3472 18.9461L22.4701 19.0043C21.0992 19.3211 19.6443 19.6638 18.1118 20.0195L18.2024 19.9031C18.2088 20.7437 18.2153 21.6619 18.2153 22.6059V22.6835L18.1506 22.7223C17.3553 23.1426 16.5406 23.7052 15.8034 24.3971L15.7452 24.4488L15.6676 24.423C14.8787 24.1449 14.0058 23.8475 13.1135 23.5371L13.2751 23.4789C12.5315 24.6687 11.7297 25.9554 10.9085 27.2746L10.8891 27.1C11.4904 27.6949 12.1435 28.3415 12.8096 29.001L12.8742 29.0657L12.8483 29.1498C12.5832 30.0098 12.4086 30.9926 12.3763 31.9884V32.079L12.2987 32.1177C11.5357 32.4863 10.7016 32.8872 9.86096 33.2946L9.93855 33.1265C10.2554 34.5038 10.5981 35.9845 10.9473 37.4847L10.7986 37.3683C11.6521 37.3619 12.5768 37.3618 13.5014 37.3554H13.592L13.6372 37.4394C14.064 38.2477 14.6266 39.0625 15.3055 39.7802C15.3184 39.8513 15.2732 39.625 15.3378 39.9354V39.9419L15.3314 39.9548L15.3249 39.9742L15.312 40.013L15.2861 40.0906L15.2279 40.2522L15.118 40.5756L14.8917 41.2157C14.7429 41.6425 14.5942 42.0628 14.4455 42.4896L14.3808 42.3085C15.6612 43.1103 16.9285 43.8992 18.1765 44.6816L17.989 44.701C18.6291 44.0544 19.2628 43.4142 19.8965 42.7805L19.9612 42.7159L20.0452 42.7417C20.9764 43.0327 21.9334 43.1879 22.8839 43.2202H22.9744L23.0132 43.2978C23.4077 44.119 23.8021 44.9338 24.1836 45.7356L24.022 45.658C25.5092 45.3153 26.9641 44.9855 28.3802 44.6557L28.2703 44.7915C28.2703 43.8733 28.2638 42.9745 28.2638 42.0886V42.0046L28.3349 41.9658C29.2079 41.5067 29.9967 40.9441 30.6822 40.2975L30.7404 40.2458L30.818 40.2716C31.6909 40.582 32.538 40.8795 33.3656 41.1705L33.2169 41.2222C34.0575 39.8901 34.8464 38.6292 35.5965 37.433L35.6159 37.5752C34.9434 36.9027 34.3097 36.2755 33.7019 35.6677L33.6566 35.6224L33.676 35.5578C33.9799 34.5749 34.1287 33.6179 34.161 32.7062V32.648L34.2127 32.6221C35.0986 32.1953 35.9004 31.8138 36.6505 31.4582L36.5988 31.5617C36.2172 29.874 35.8939 28.432 35.6159 27.197L35.6806 27.2487C34.6007 27.2422 33.7148 27.2422 32.9777 27.2422H32.9453L32.9324 27.2164C32.4798 26.3434 32.0401 25.755 31.7426 25.38C31.5939 25.1989 31.484 25.0631 31.3999 24.9596C31.3353 24.8627 31.3029 24.8174 31.3029 24.8109C31.3094 24.8109 31.3547 24.8497 31.4322 24.9338C31.5163 25.0178 31.6392 25.1536 31.7944 25.3412C32.1047 25.7097 32.5638 26.2917 33.0359 27.1646L32.9906 27.1388C33.7278 27.1323 34.6136 27.1194 35.6935 27.1064H35.7452L35.7581 27.1582C36.0491 28.3867 36.3854 29.8287 36.7863 31.5164L36.8057 31.5875L36.741 31.6199C35.9909 31.9884 35.1956 32.3764 34.3097 32.8032L34.3679 32.7191C34.342 33.6438 34.1998 34.6202 33.8894 35.6289L33.8635 35.519C34.4778 36.1268 35.1115 36.7476 35.7905 37.42L35.8551 37.4847L35.8034 37.5623C35.0533 38.765 34.2709 40.0259 33.4368 41.3644L33.385 41.4485L33.2881 41.4162C32.4604 41.1252 31.6068 40.8342 30.7339 40.5303L30.8697 40.5044C30.1649 41.164 29.3566 41.7459 28.4643 42.218L28.5354 42.0951C28.5419 42.981 28.5419 43.8798 28.5483 44.798V44.9079L28.4513 44.9338C27.0352 45.2636 25.5803 45.5998 24.0931 45.9425L23.9832 45.9684L23.925 45.8649C23.537 45.0631 23.149 44.2548 22.7481 43.4272L22.8774 43.5112C21.901 43.4789 20.9182 43.3172 19.9612 43.0263L20.1099 42.9875C19.4827 43.6211 18.849 44.2613 18.2088 44.9079L18.1248 44.992L18.0213 44.9273C16.7733 44.1449 15.506 43.356 14.2257 42.5542L14.1222 42.4896L14.161 42.3732C14.3097 41.9529 14.4584 41.5261 14.6072 41.0993L14.8335 40.4592L14.9434 40.1359L15.0016 39.9742L15.0275 39.8966L15.0404 39.8578L15.0469 39.8384L15.0533 39.8255V39.819C15.118 40.1294 15.0727 39.9031 15.0857 39.9742C14.3873 39.2306 13.8118 38.3964 13.3721 37.5688L13.5079 37.6528C12.5768 37.6593 11.6586 37.6593 10.805 37.6593H10.6822L10.6563 37.5429C10.3136 36.0427 9.97088 34.562 9.65404 33.1847L9.62817 33.0683L9.7381 33.0166C10.5787 32.6092 11.4128 32.2083 12.1759 31.8462L12.0918 31.9755C12.1241 30.9474 12.3052 29.9451 12.5832 29.0592L12.622 29.2015C11.956 28.5419 11.3029 27.8888 10.708 27.294L10.6304 27.2164L10.6886 27.1194C11.5163 25.8003 12.3181 24.5199 13.0682 23.3302L13.1264 23.2396L13.2299 23.2784C14.1157 23.5888 14.9887 23.8992 15.7775 24.1772L15.6418 24.2031C16.3983 23.4983 17.2389 22.9228 18.0472 22.496L17.9825 22.6059C17.9825 21.6619 17.9825 20.7372 17.9761 19.9031V19.8061L18.0666 19.7867C19.5991 19.4375 21.054 19.1077 22.4313 18.7909L22.5153 18.7715L22.5541 18.8491C22.9615 19.7026 23.3559 20.5303 23.7245 21.2868L23.6405 21.2286C24.6815 21.2674 25.6579 21.4485 26.5438 21.7265L26.4533 21.7459C27.1451 21.0605 27.7853 20.4139 28.3673 19.8384L28.4125 19.7931L28.4643 19.8255C30.0032 20.8019 31.2771 21.6102 32.2405 22.2244L32.2729 22.2438L32.2599 22.2826C31.9625 23.0974 31.7362 23.7246 31.5745 24.1643C31.4969 24.3712 31.4387 24.5329 31.3934 24.6493C31.3353 24.7592 31.3094 24.8109 31.3029 24.8109Z" fill="#1776E8"/>
<path d="M186.091 0.569014L167.081 0.478487C164.533 0.465555 162.457 2.6188 162.444 5.28288L162.431 8.72938C162.418 11.3935 160.343 13.5467 157.795 13.5338L120.737 13.3657C118.189 13.3527 116.133 11.1865 116.14 8.51599L116.153 5.0695C116.166 2.40542 114.103 0.232771 111.555 0.219839L104.869 0.193974L88.2315 0.116379C79.9677 0.077582 73.2364 6.75071 73.204 15.0145L72.1888 254.963C72.1565 263.22 78.8167 269.945 87.0805 269.984L184.94 270.436C193.204 270.475 199.935 263.802 199.968 255.538L200.983 15.59C201.015 7.33267 194.355 0.607811 186.091 0.569014Z" fill="#E4EDFF"/>
<path d="M186.091 0.568889C186.091 0.568889 186.266 0.575355 186.602 0.588288C186.938 0.620619 187.456 0.588288 188.115 0.711146C189.441 0.872801 191.452 1.3125 193.715 2.67687C194.859 3.32996 196.017 4.2611 197.116 5.45735C198.209 6.6536 199.224 8.14729 199.942 9.93197C200.673 11.7102 201.067 13.7923 201.035 16.0037C201.028 18.2152 201.022 20.5624 201.015 23.0584C200.944 42.9937 200.841 71.8266 200.711 107.462C200.569 143.097 200.401 185.528 200.22 232.641C200.194 238.532 200.175 244.494 200.149 250.527C200.142 252.033 200.136 253.547 200.129 255.066C200.103 256.586 200 258.144 199.541 259.618C199.108 261.093 198.487 262.528 197.62 263.815C196.754 265.102 195.7 266.259 194.497 267.248C192.066 269.188 189.02 270.417 185.865 270.559C185.076 270.611 184.3 270.598 183.518 270.598L181.17 270.585C179.606 270.579 178.034 270.572 176.463 270.566C170.171 270.54 163.822 270.507 157.414 270.482C144.598 270.423 131.549 270.365 118.312 270.301C111.691 270.268 105.024 270.242 98.3123 270.21C94.9564 270.197 91.5875 270.178 88.2121 270.165C84.8238 270.326 81.3256 269.415 78.5063 267.442C75.6741 265.483 73.592 262.528 72.6285 259.25C72.1112 257.614 72.0207 255.881 72.0272 254.2C72.0336 252.518 72.0401 250.837 72.0466 249.156C72.0724 242.444 72.1048 235.771 72.1306 229.15C72.1888 215.907 72.2406 202.858 72.2987 190.042C72.4087 164.403 72.5186 139.67 72.6221 116.107C72.7255 92.5443 72.829 70.1583 72.9195 49.2078C72.9648 38.7325 73.01 28.6129 73.0553 18.8877C73.0618 17.672 73.0682 16.4628 73.0747 15.2601C73.0876 14.6588 73.1329 14.0509 73.1652 13.4496C73.2751 12.8547 73.3204 12.2533 73.4756 11.6714C74.0317 9.33707 75.1245 7.15149 76.6376 5.36035C78.1701 3.57568 80.0841 2.16604 82.1921 1.24138C84.3 0.303774 86.6085 -0.0260027 88.8329 0.0127946C93.2881 0.0321932 97.6334 0.058058 101.875 0.0774567C103.996 0.0903891 106.085 0.0968553 108.147 0.109788C109.182 0.116254 110.204 0.12272 111.219 0.12272C112.247 0.0774567 113.307 0.36197 114.142 0.950396C114.982 1.53882 115.622 2.39236 115.952 3.34936C116.327 4.30636 116.237 5.33449 116.243 6.29795C116.243 6.78292 116.237 7.26789 116.237 7.75285C116.237 8.23782 116.217 8.71632 116.275 9.18189C116.392 10.113 116.78 11.0054 117.388 11.7037C117.983 12.4085 118.804 12.9194 119.683 13.1392C120.129 13.2491 120.576 13.2879 121.035 13.275C121.494 13.275 121.953 13.2815 122.412 13.2815C124.242 13.2879 126.039 13.3009 127.811 13.3073C134.885 13.3461 141.474 13.3785 147.54 13.4108C150.572 13.4302 153.469 13.4431 156.237 13.4561C156.922 13.4496 157.62 13.4949 158.274 13.4367C158.933 13.3655 159.567 13.1392 160.116 12.7965C161.222 12.1175 161.972 10.9795 162.231 9.77678C162.373 9.17542 162.347 8.56113 162.354 7.95977C162.36 7.35195 162.36 6.75706 162.367 6.16863C162.38 5.58667 162.341 4.99825 162.451 4.42922C162.548 3.86019 162.748 3.3235 163.02 2.83206C163.563 1.8492 164.436 1.11205 165.406 0.737011C166.389 0.316707 167.43 0.446031 168.374 0.433098C172.208 0.458963 175.454 0.478362 178.08 0.491294C180.698 0.510693 182.703 0.523625 184.048 0.536558C185.406 0.555957 186.091 0.568889 186.091 0.568889C186.091 0.568889 185.399 0.575355 184.061 0.575355C182.716 0.575355 180.711 0.568889 178.092 0.562423C175.467 0.555957 172.221 0.543024 168.387 0.536558C167.436 0.555957 166.408 0.426632 165.458 0.84047C164.507 1.20904 163.653 1.93326 163.13 2.89026C162.865 3.36876 162.677 3.89252 162.58 4.44862C162.477 5.00471 162.509 5.5802 162.502 6.16863C162.502 6.75706 162.496 7.35195 162.496 7.95977C162.49 8.56113 162.515 9.18835 162.373 9.80911C162.108 11.0442 161.339 12.2081 160.2 12.9129C159.638 13.2685 158.985 13.5013 158.299 13.5789C157.614 13.6371 156.935 13.5918 156.243 13.5983C153.476 13.5854 150.579 13.5789 147.546 13.566C141.481 13.5401 134.898 13.5142 127.818 13.4884C126.046 13.4819 124.248 13.4755 122.418 13.469C121.959 13.469 121.5 13.4625 121.041 13.4625C120.582 13.469 120.097 13.4367 119.638 13.3203C118.72 13.0875 117.86 12.5573 117.239 11.8201C116.605 11.0959 116.198 10.1648 116.075 9.19482C116.01 8.70339 116.03 8.21842 116.03 7.73992C116.03 7.25495 116.036 6.76999 116.036 6.28502C116.03 5.30862 116.12 4.31929 115.752 3.40756C115.435 2.48935 114.821 1.68108 114.019 1.11852C113.21 0.555957 112.221 0.284376 111.212 0.329639C110.197 0.323173 109.169 0.323173 108.141 0.316707C106.078 0.31024 103.983 0.297308 101.869 0.290842C97.6398 0.277909 93.2945 0.258511 88.8393 0.239112C86.6279 0.206781 84.3712 0.530092 82.2955 1.45476C80.2263 2.36003 78.3382 3.75027 76.838 5.50908C75.3443 7.27435 74.2774 9.42114 73.7278 11.7166C73.5726 12.2857 73.5273 12.8806 73.4239 13.4625C73.3915 14.0574 73.3463 14.6458 73.3333 15.2472C73.3269 16.4499 73.3269 17.6591 73.3204 18.8747C73.2816 28.5999 73.2428 38.7196 73.204 49.1948C73.12 70.1454 73.0294 92.5378 72.9389 116.101C72.8419 139.664 72.7385 164.397 72.635 190.035C72.5833 202.858 72.5251 215.907 72.4733 229.143C72.4475 235.764 72.4151 242.431 72.3893 249.15C72.3828 250.831 72.3763 252.512 72.3699 254.193C72.3634 255.868 72.4539 257.543 72.9583 259.146C73.9024 262.347 75.9392 265.237 78.7068 267.158C81.4743 269.085 84.8561 269.977 88.225 269.822C91.6004 269.835 94.9693 269.854 98.3253 269.867C105.037 269.9 111.704 269.932 118.325 269.958C131.562 270.022 144.61 270.081 157.426 270.139C163.834 270.171 170.184 270.197 176.476 270.229C178.047 270.236 179.619 270.242 181.183 270.249L183.531 270.262C184.313 270.268 185.095 270.275 185.858 270.229C188.943 270.094 191.917 268.891 194.303 266.996C195.48 266.026 196.515 264.888 197.362 263.634C198.215 262.373 198.817 260.97 199.243 259.528C199.696 258.079 199.8 256.573 199.825 255.066C199.832 253.547 199.838 252.04 199.845 250.527C199.871 244.494 199.897 238.532 199.922 232.641C200.136 185.528 200.33 143.097 200.485 107.462C200.66 71.8266 200.795 42.9937 200.892 23.0584C200.905 20.5689 200.918 18.2152 200.931 16.0037C200.963 13.7988 200.582 11.7425 199.864 9.97076C199.153 8.19256 198.151 6.70533 197.071 5.51554C195.984 4.32576 194.834 3.38816 193.702 2.73507C191.458 1.3707 189.454 0.918064 188.135 0.749943C187.475 0.614152 186.958 0.646484 186.621 0.607686C186.266 0.588288 186.091 0.568889 186.091 0.568889Z" fill="#263238"/>
<path d="M168.523 76.1204L167.055 74.3745L171.432 72.0337L151.122 65.1602L157.996 84.8433L160.498 81.5649C160.498 81.5649 173.637 104.688 160.498 118.746C147.449 132.706 132.066 129.68 132.066 129.68L135.034 139.366C135.034 139.366 159.25 141.086 172.215 119.211C185.173 97.3425 168.523 76.1204 168.523 76.1204Z" fill="#1776E8"/>
<path d="M107.624 124.636L109.092 126.382L104.72 128.723L125.031 135.596L118.157 115.913L115.655 119.192C115.655 119.192 102.515 96.0685 115.655 82.0109C128.704 68.0504 144.087 71.0765 144.087 71.0765L141.119 61.3902C141.119 61.3902 116.903 59.6701 103.938 81.5453C90.9667 103.421 107.624 124.636 107.624 124.636Z" fill="#1776E8"/>
<path d="M168.523 76.1204L167.055 74.3745L171.432 72.0337L151.122 65.1602L157.996 84.8433L160.498 81.5649C160.498 81.5649 173.637 104.688 160.498 118.746C147.449 132.706 132.066 129.68 132.066 129.68L135.034 139.366C135.034 139.366 159.25 141.086 172.215 119.211C185.173 97.3425 168.523 76.1204 168.523 76.1204Z" fill="#1776E8"/>
<path d="M107.624 124.636L109.092 126.382L104.72 128.723L125.031 135.596L118.157 115.913L115.655 119.192C115.655 119.192 102.515 96.0685 115.655 82.0109C128.704 68.0504 144.087 71.0765 144.087 71.0765L141.119 61.3902C141.119 61.3902 116.903 59.6701 103.938 81.5453C90.9667 103.421 107.624 124.636 107.624 124.636Z" fill="#1776E8"/>
<g opacity="0.8">
<path d="M168.523 76.1204L167.055 74.3745L171.432 72.0337L151.122 65.1602L157.996 84.8433L160.498 81.5649C160.498 81.5649 173.637 104.688 160.498 118.746C147.449 132.706 132.066 129.68 132.066 129.68L135.034 139.366C135.034 139.366 159.25 141.086 172.215 119.211C185.173 97.3425 168.523 76.1204 168.523 76.1204Z" fill="#E4EDFF"/>
</g>
<g opacity="0.8">
<path d="M107.624 124.636L109.092 126.382L104.72 128.723L125.031 135.596L118.157 115.913L115.655 119.192C115.655 119.192 102.515 96.0685 115.655 82.0109C128.704 68.0504 144.087 71.0765 144.087 71.0765L141.119 61.3902C141.119 61.3902 116.903 59.6701 103.938 81.5453C90.9667 103.421 107.624 124.636 107.624 124.636Z" fill="#E4EDFF"/>
</g>
<path fill-rule="evenodd" clip-rule="evenodd" d="M149.654 88.8976C150.63 89.9386 151.445 91.0961 152.098 92.3247L156.004 92.3117L157.452 98.6034L153.935 100.298C153.889 101.688 153.663 103.084 153.243 104.449L156.01 107.197L152.583 112.674L148.897 111.387C147.856 112.363 146.699 113.178 145.47 113.831L145.483 117.737L139.192 119.185L137.498 115.668C136.107 115.622 134.711 115.396 133.346 114.969L130.598 117.737L125.121 114.316L126.408 110.631C125.432 109.589 124.617 108.432 123.964 107.203L120.058 107.216L118.61 100.925L122.127 99.2306C122.173 97.8404 122.399 96.4436 122.819 95.0793L120.052 92.3311L123.472 86.8543L127.158 88.141C128.199 87.1646 129.357 86.3499 130.585 85.6968L130.572 81.7912L136.864 80.3428L138.558 83.8604C139.948 83.9057 141.345 84.132 142.709 84.5523L145.457 81.7847L150.934 85.2054L149.654 88.8976ZM141.953 94.0511C138.707 92.0208 134.433 93.0101 132.409 96.2497C130.378 99.4957 131.368 103.77 134.607 105.794C137.853 107.824 142.127 106.835 144.151 103.595C146.182 100.349 145.199 96.0751 141.953 94.0511Z" fill="#1776E8"/>
<g opacity="0.6">
<path fill-rule="evenodd" clip-rule="evenodd" d="M141.953 94.0513C138.707 92.0209 134.433 93.0102 132.409 96.2498C130.378 99.4958 131.368 103.77 134.607 105.794C137.853 107.824 142.127 106.835 144.151 103.595C146.182 100.349 145.199 96.0752 141.953 94.0513Z" fill="#E4EDFF"/>
</g>
<path d="M116.987 164.242V160.097H117.75V164.209C117.75 165.923 118.558 166.712 119.961 166.712C121.377 166.712 122.186 165.929 122.186 164.209V160.097H122.929V164.242C122.929 166.317 121.81 167.397 119.961 167.397C118.112 167.397 116.987 166.317 116.987 164.242Z" fill="#263238"/>
<path d="M130.895 162.58C130.895 164.119 129.777 165.05 127.94 165.05H125.994V167.332H125.231V160.097H127.94C129.783 160.097 130.895 161.028 130.895 162.58ZM130.132 162.58C130.132 161.422 129.369 160.763 127.921 160.763H126.001V164.384H127.921C129.369 164.377 130.132 163.718 130.132 162.58Z" fill="#263238"/>
<path d="M132.551 160.097H135.499C137.814 160.097 139.379 161.584 139.379 163.718C139.379 165.845 137.821 167.339 135.499 167.339H132.551V160.097ZM135.454 166.673C137.375 166.673 138.616 165.451 138.616 163.718C138.616 161.978 137.375 160.763 135.454 160.763H133.314V166.679H135.454V166.673Z" fill="#263238"/>
<path d="M145.516 165.399H141.481L140.614 167.332H139.819L143.13 160.097H143.886L147.197 167.332H146.389L145.516 165.399ZM145.238 164.778L143.498 160.892L141.759 164.778H145.238Z" fill="#263238"/>
<path d="M149.434 160.756H146.893V160.097H152.745V160.756H150.204V167.332H149.441V160.756H149.434Z" fill="#263238"/>
<path d="M159.075 166.673V167.332H153.961V160.097H158.92V160.756H154.724V163.33H158.468V163.983H154.724V166.673H159.075Z" fill="#263238"/>
<path d="M191.762 23.854C191.762 23.9251 189.143 23.9963 185.91 24.0286C182.677 24.0545 180.058 24.0221 180.052 23.951C180.052 23.8799 182.671 23.8088 185.904 23.7764C189.143 23.7506 191.762 23.7829 191.762 23.854Z" fill="#263238"/>
<path d="M191.788 26.8482C191.788 26.9193 189.169 26.9904 185.936 27.0227C182.703 27.0486 180.084 27.0163 180.078 26.9452C180.078 26.874 182.696 26.8029 185.93 26.7706C189.169 26.7447 191.788 26.777 191.788 26.8482Z" fill="#263238"/>
<path d="M191.814 29.8416C191.814 29.9127 189.195 29.9838 185.962 30.0161C182.729 30.042 180.11 30.0097 180.104 29.9385C180.104 29.8674 182.722 29.7963 185.955 29.764C189.195 29.7381 191.814 29.7769 191.814 29.8416Z" fill="#263238"/>
<path d="M85.2764 33.2617C85.2829 33.2552 85.367 33.2488 85.5221 33.2488C85.7161 33.2423 85.936 33.2358 86.2011 33.2294C86.8413 33.2164 87.6754 33.197 88.7035 33.1712L88.6324 33.2423C88.6259 32.6862 88.613 32.0848 88.6001 31.4318C88.6065 31.0955 88.5742 30.7787 88.6065 30.3907C88.6712 30.0027 89.0204 29.66 89.4471 29.6212C89.848 29.6148 90.2037 29.5954 90.6434 29.6147C91.096 29.6665 91.4775 30.1062 91.4646 30.5782C91.4711 31.4253 91.484 32.3047 91.4969 33.2229L91.3805 33.1065C92.3957 33.0936 93.4497 33.0871 94.536 33.0742L94.4132 33.197C94.4003 31.9297 94.3873 30.6105 94.3809 29.2656C94.3809 28.9293 94.3744 28.5931 94.3744 28.2633C94.3744 27.9529 94.1869 27.746 93.9282 27.5197C93.4627 27.0606 93.0036 26.608 92.5509 26.1618C92.0983 25.7156 91.6586 25.2759 91.2189 24.8492C90.999 24.6358 90.7856 24.4224 90.5723 24.2155C90.3524 24.0021 90.1778 23.7822 89.9192 23.7305C89.6735 23.6658 89.3954 23.7176 89.195 23.8663C89.001 24.0279 88.8005 24.2543 88.6065 24.4418C88.2186 24.8362 87.8435 25.2113 87.4749 25.5863C86.7637 26.3234 86.02 27.0024 85.4833 27.6426C85.257 27.9982 85.3411 28.425 85.3217 28.8194C85.3217 29.2074 85.3217 29.5824 85.3217 29.9316C85.3152 30.6105 85.3152 31.2119 85.3088 31.7227C85.3023 32.1818 85.3023 32.5569 85.2958 32.8673C85.2894 33.113 85.2829 33.2552 85.2764 33.2617C85.27 33.2682 85.2635 33.1388 85.257 32.8802C85.2506 32.5763 85.2376 32.2012 85.2247 31.7551C85.2118 31.2378 85.1988 30.6364 85.1859 29.951C85.1794 29.5954 85.173 29.2138 85.1665 28.8194C85.1665 28.619 85.16 28.412 85.16 28.1986C85.16 27.9723 85.2182 27.746 85.3346 27.5391C85.9166 26.8213 86.6149 26.1941 87.3327 25.4311C87.6948 25.0561 88.0698 24.6746 88.4578 24.2801C88.6583 24.0797 88.8264 23.8857 89.0656 23.6788C89.3178 23.4848 89.667 23.4137 89.9774 23.4977C90.3136 23.5688 90.5335 23.8469 90.7339 24.0409C90.9473 24.2478 91.1607 24.4612 91.3805 24.6746C91.8138 25.1013 92.2599 25.541 92.7126 25.9807C93.1652 26.4269 93.6243 26.8795 94.0963 27.3386C94.2063 27.455 94.3421 27.5585 94.4455 27.7201C94.549 27.8753 94.6072 28.0629 94.6136 28.2504C94.6136 28.5866 94.6201 28.9164 94.6201 29.2591C94.633 30.6041 94.6395 31.9167 94.6524 33.1906V33.3134H94.5296C93.4433 33.3199 92.3893 33.3264 91.3741 33.3328H91.2577V33.2164C91.2512 32.2982 91.2512 31.4188 91.2447 30.5717C91.2577 30.1902 90.9602 29.854 90.6046 29.8087C90.2425 29.7893 89.8157 29.8023 89.4601 29.8023C89.1238 29.8281 88.8393 30.0997 88.7811 30.4166C88.7488 30.7334 88.7746 31.102 88.7682 31.4253C88.7682 32.0784 88.7682 32.6862 88.7682 33.2358V33.307H88.6971C87.656 33.3005 86.8025 33.294 86.1558 33.2876C85.8972 33.2811 85.6838 33.2811 85.4963 33.2746C85.3476 33.2682 85.27 33.2682 85.2764 33.2617Z" fill="#263238"/>
<path d="M162.774 30.7082C162.774 30.7987 152.92 30.8763 140.77 30.8763C128.613 30.8763 118.765 30.7987 118.765 30.7082C118.765 30.6176 128.613 30.54 140.77 30.54C152.92 30.54 162.774 30.6112 162.774 30.7082Z" fill="#263238"/>
<path d="M161.63 235.072H115.422C109.518 235.072 104.74 230.287 104.74 224.39C104.74 218.487 109.525 213.708 115.422 213.708H161.63C167.533 213.708 172.312 218.493 172.312 224.39C172.318 230.287 167.533 235.072 161.63 235.072Z" fill="#1776E8"/>
<path d="M129.712 225.949L130.1 225.095C130.514 225.399 131.128 225.606 131.723 225.606C132.396 225.606 132.667 225.38 132.667 225.082C132.667 224.164 129.816 224.792 129.816 222.968C129.816 222.134 130.488 221.436 131.885 221.436C132.499 221.436 133.133 221.584 133.592 221.869L133.243 222.729C132.784 222.47 132.318 222.341 131.885 222.341C131.212 222.341 130.954 222.593 130.954 222.903C130.954 223.809 133.812 223.181 133.812 224.985C133.812 225.807 133.133 226.505 131.73 226.505C130.934 226.518 130.146 226.285 129.712 225.949Z" fill="#E4EDFF"/>
<path d="M136.929 226.253C136.702 226.415 136.373 226.492 136.036 226.492C135.144 226.492 134.627 226.033 134.627 225.141V223.589H134.045V222.748H134.627V221.83H135.719V222.748H136.657V223.589H135.719V225.128C135.719 225.451 135.894 225.626 136.191 225.626C136.353 225.626 136.515 225.574 136.631 225.483L136.929 226.253Z" fill="#E4EDFF"/>
<path d="M140.886 224.281V226.434H139.864V225.962C139.664 226.305 139.269 226.486 138.713 226.486C137.827 226.486 137.304 225.994 137.304 225.341C137.304 224.675 137.776 224.21 138.927 224.21H139.8C139.8 223.738 139.522 223.466 138.927 223.466C138.526 223.466 138.112 223.602 137.84 223.815L137.446 223.052C137.86 222.761 138.468 222.6 139.075 222.6C140.22 222.606 140.886 223.136 140.886 224.281ZM139.787 225.244V224.856H139.037C138.526 224.856 138.364 225.044 138.364 225.296C138.364 225.568 138.597 225.755 138.978 225.755C139.347 225.755 139.664 225.587 139.787 225.244Z" fill="#E4EDFF"/>
<path d="M144.216 222.605V223.614C144.125 223.608 144.054 223.601 143.97 223.601C143.369 223.601 142.968 223.931 142.968 224.655V226.44H141.875V222.664H142.923V223.162C143.181 222.793 143.634 222.605 144.216 222.605Z" fill="#E4EDFF"/>
<path d="M147.43 226.253C147.203 226.415 146.874 226.492 146.537 226.492C145.645 226.492 145.128 226.033 145.128 225.141V223.589H144.546V222.748H145.128V221.83H146.221V222.748H147.158V223.589H146.221V225.128C146.221 225.451 146.395 225.626 146.693 225.626C146.854 225.626 147.016 225.574 147.132 225.483L147.43 226.253Z" fill="#E4EDFF"/>
<path d="M182.438 184.371C182.438 184.462 162.574 184.539 138.073 184.539C113.566 184.539 93.7019 184.462 93.7019 184.371C93.7019 184.281 113.566 184.203 138.073 184.203C162.574 184.203 182.438 184.281 182.438 184.371Z" fill="#263238"/>
<path d="M164.766 189.816C164.766 189.906 152.816 189.984 138.079 189.984C123.337 189.984 111.387 189.906 111.387 189.816C111.387 189.725 123.337 189.647 138.079 189.647C152.81 189.647 164.766 189.719 164.766 189.816Z" fill="#263238"/>
<path d="M41.9852 269.932L38.0537 284.455L50.8245 285.625L53.508 271.794L41.9852 269.932Z" fill="#1776E8"/>
<path d="M51.193 284.442C51.1865 284.487 50.4752 284.474 49.3243 284.377C48.1733 284.287 46.5891 284.112 44.8432 283.886C43.162 283.659 41.6424 283.459 40.3815 283.284C39.2434 283.123 38.5322 283.013 38.5386 282.968C38.5451 282.922 39.2564 282.942 40.4074 283.039C41.5583 283.136 43.1426 283.31 44.8884 283.537C46.5697 283.763 48.0892 283.963 49.3501 284.131C50.4946 284.28 51.1995 284.39 51.193 284.442Z" fill="#263238"/>
<g opacity="0.6">
<path d="M38.0537 284.454L50.8245 285.625L51.0314 284.558L38.4223 282.954L38.0666 284.312" fill="#E4EDFF"/>
</g>
<path d="M44.397 283.808C44.3194 283.789 44.8626 281.299 45.6127 278.241C46.3628 275.188 47.0352 272.725 47.1193 272.744C47.1969 272.764 46.6537 275.253 45.9037 278.312C45.1536 281.37 44.4811 283.827 44.397 283.808Z" fill="#263238"/>
<path d="M50.4882 284.345C50.4106 284.338 50.8956 283.304 50.5206 281.642C50.3266 280.834 49.8998 279.896 49.1239 279.114C48.3544 278.331 47.2099 277.782 45.9489 277.652C44.6816 277.53 43.453 277.833 42.5283 278.428C41.5907 279.017 40.9506 279.812 40.5432 280.543C39.7284 282.03 39.8125 283.149 39.7349 283.136C39.722 283.136 39.7155 283.071 39.7155 282.942C39.709 282.812 39.722 282.631 39.7478 282.386C39.7996 281.907 39.9612 281.215 40.3557 280.439C40.7566 279.676 41.4097 278.823 42.3796 278.196C43.3431 277.555 44.6492 277.226 45.9748 277.355C47.3004 277.491 48.516 278.079 49.3178 278.92C50.1326 279.754 50.5464 280.75 50.7275 281.597C50.8956 282.45 50.8374 283.168 50.7339 283.634C50.6822 283.866 50.6305 284.047 50.5788 284.164C50.527 284.287 50.4947 284.351 50.4882 284.345Z" fill="#263238"/>
<path d="M94.6978 266.033L93.8442 278.94C93.8442 278.94 106.686 283.201 106.764 285.6L81.6683 285.781L82.1727 265.619L94.6978 266.033Z" fill="#1776E8"/>
<g opacity="0.6">
<path d="M86.1235 277.621C85.6321 277.737 85.2829 278.274 85.3799 278.765C85.4769 279.257 86.02 279.619 86.5115 279.515C87.0029 279.405 87.4426 278.778 87.2939 278.293C87.1387 277.815 86.4791 277.42 86.033 277.647" fill="#E4EDFF"/>
</g>
<g opacity="0.6">
<path d="M81.6683 285.787L81.7201 283.757L105.955 284.423C105.955 284.423 106.764 284.772 106.887 285.787H81.6683Z" fill="#E4EDFF"/>
</g>
<path d="M94.258 278.823C94.2516 278.946 93.6373 278.984 93.023 279.359C92.3958 279.722 92.0725 280.239 91.9625 280.187C91.8526 280.161 92.0531 279.431 92.8096 278.991C93.5532 278.545 94.2839 278.713 94.258 278.823Z" fill="#263238"/>
<path d="M96.851 279.994C96.8769 280.11 96.3402 280.304 95.907 280.808C95.4608 281.3 95.3379 281.856 95.2151 281.849C95.0987 281.862 95.034 281.145 95.5837 280.53C96.1333 279.903 96.8575 279.877 96.851 279.994Z" fill="#263238"/>
<path d="M98.2542 283.188C98.1442 283.214 97.989 282.593 98.3253 281.934C98.6551 281.268 99.2435 281.022 99.2888 281.125C99.3534 281.229 98.9719 281.578 98.7068 282.121C98.4287 282.664 98.377 283.175 98.2542 283.188Z" fill="#263238"/>
<path d="M94.1223 275.862C94.0705 275.971 93.508 275.784 92.8161 275.81C92.1242 275.823 91.5746 276.036 91.5164 275.933C91.4452 275.842 91.9884 275.402 92.8032 275.383C93.6244 275.357 94.1869 275.765 94.1223 275.862Z" fill="#263238"/>
<path d="M94.2516 273.256C94.2516 273.307 93.7667 273.366 92.9972 273.21C92.6157 273.133 92.163 272.991 91.6975 272.764C91.4647 272.654 91.2255 272.519 90.9862 272.357C90.8698 272.279 90.7405 272.202 90.6176 272.053C90.4883 271.924 90.4172 271.594 90.5788 271.4C90.7146 271.212 90.9409 271.135 91.122 271.135C91.3095 271.135 91.4582 271.174 91.594 271.212C91.8721 271.29 92.1307 271.387 92.37 271.503C92.842 271.736 93.2235 272.021 93.508 272.299C94.0706 272.855 94.2581 273.32 94.2128 273.34C94.1546 273.379 93.8831 272.984 93.3076 272.525C93.0166 272.292 92.648 272.053 92.2083 271.859C91.9885 271.762 91.7492 271.678 91.497 271.613C91.2319 271.536 91.0056 271.529 90.9345 271.646C90.9086 271.691 90.9021 271.71 90.9603 271.788C91.0185 271.859 91.122 271.937 91.2319 272.014C91.4518 272.163 91.6716 272.299 91.885 272.415C92.3182 272.648 92.7321 272.803 93.0877 272.919C93.7796 273.139 94.2516 273.191 94.2516 273.256Z" fill="#263238"/>
<path d="M94.0835 273.424C94.0382 273.443 93.8119 272.997 93.7861 272.201C93.7796 271.807 93.8313 271.335 93.9994 270.831C94.0835 270.578 94.1999 270.326 94.3421 270.08C94.4973 269.835 94.6849 269.511 95.1634 269.473C95.4091 269.473 95.6095 269.673 95.6742 269.841C95.7518 270.016 95.7647 270.158 95.7906 270.307C95.8294 270.604 95.8165 270.889 95.7647 271.154C95.6677 271.684 95.4349 272.124 95.1892 272.434C94.6784 273.068 94.1611 273.197 94.1546 273.158C94.1158 273.094 94.5491 272.874 94.9435 272.26C95.1375 271.956 95.3121 271.555 95.3767 271.089C95.4091 270.856 95.4091 270.611 95.3767 270.365C95.3444 270.1 95.2539 269.88 95.1504 269.906C95.0276 269.899 94.8077 270.093 94.6978 270.307C94.562 270.527 94.4521 270.753 94.368 270.979C94.1999 271.425 94.1158 271.859 94.09 272.227C94.0318 272.945 94.1546 273.411 94.0835 273.424Z" fill="#263238"/>
<path d="M94.7042 153.922L56.463 153.631L37.989 274.989L53.8571 277.006L74.1933 177.22L80.2781 277.362L80.2975 277.659L97.4588 277.355L94.7042 153.922Z" fill="#263238"/>
<path d="M77.3101 163.757C77.2972 163.744 77.5752 163.731 78.099 163.705C78.6745 163.686 79.444 163.653 80.401 163.621C82.4507 163.563 85.2894 163.485 88.6648 163.388L88.82 163.382V163.543C88.8264 165.942 88.8329 168.626 88.8394 171.471V171.549L88.7812 171.6C88.3221 172.021 87.8371 172.473 87.3392 172.926C85.8649 174.277 84.4423 175.584 83.0974 176.812L82.9874 176.916L82.8711 176.812C80.7695 174.937 78.8491 173.23 77.2131 171.769L77.1678 171.73V171.672C77.2002 169.26 77.2196 167.281 77.239 165.858C77.2519 165.212 77.2648 164.688 77.2713 164.294C77.2907 163.931 77.2972 163.744 77.3101 163.757C77.323 163.763 77.3295 163.964 77.3424 164.339C77.3489 164.746 77.3618 165.276 77.3748 165.936C77.3942 167.339 77.4136 169.292 77.4459 171.672L77.4006 171.568C79.0495 173.01 80.9829 174.704 83.0974 176.56H82.8711C84.216 175.325 85.6386 174.012 87.1064 172.661C87.5979 172.208 88.0893 171.762 88.5484 171.342L88.4902 171.471C88.4967 168.626 88.5031 165.942 88.5096 163.543L88.6648 163.699C85.3347 163.731 82.5219 163.757 80.4979 163.776C79.528 163.776 78.7456 163.776 78.1636 163.783C77.9115 163.783 77.711 163.776 77.5364 163.776C77.3942 163.763 77.3166 163.763 77.3101 163.757Z" fill="#455A64"/>
<path d="M59.3146 163.233C59.3016 163.22 59.5474 163.233 60.0194 163.272C60.5367 163.317 61.2221 163.369 62.0757 163.44C63.9185 163.608 66.4727 163.841 69.5118 164.113L69.667 164.126L69.6476 164.281C69.3695 166.628 69.0462 169.299 68.71 172.15L68.7035 172.221L68.6453 172.267C68.1216 172.687 67.559 173.133 66.9964 173.586C65.5868 174.704 64.2289 175.791 62.9292 176.819L62.7934 176.922L62.6899 176.787C61.0475 174.711 59.5409 172.803 58.2412 171.167L58.2024 171.122L58.2089 171.064C58.5322 168.684 58.7973 166.725 58.9848 165.303C59.0753 164.662 59.1529 164.145 59.2111 163.751C59.2758 163.401 59.3081 163.22 59.3146 163.233C59.321 163.246 59.3081 163.447 59.2758 163.815C59.237 164.223 59.1853 164.753 59.1141 165.406C58.9589 166.809 58.7456 168.743 58.4934 171.096L58.461 170.993C59.7737 172.622 61.2932 174.51 62.9551 176.573L62.7158 176.547C64.009 175.513 65.3734 174.426 66.7766 173.301C67.3391 172.849 67.9017 172.409 68.4255 171.989L68.3608 172.105C68.7165 169.253 69.0527 166.583 69.3437 164.242L69.4795 164.41C66.4856 164.074 63.9703 163.796 62.1532 163.595C61.2868 163.492 60.5949 163.408 60.0711 163.343C59.5862 163.279 59.321 163.246 59.3146 163.233Z" fill="#455A64"/>
<path d="M82.7094 181.649C82.6835 181.694 82.0304 181.358 80.9764 180.808C79.9224 180.258 78.4675 179.495 76.851 178.687C75.228 177.879 73.7472 177.174 72.6738 176.663C71.6004 176.152 70.9409 175.829 70.9603 175.784C70.9797 175.738 71.678 175.984 72.7773 176.437C73.8765 176.889 75.3831 177.562 77.0062 178.37C78.6292 179.185 80.0712 179.98 81.0993 180.588C82.1209 181.196 82.7288 181.61 82.7094 181.649Z" fill="#455A64"/>
<path d="M82.218 184.597C82.205 184.636 81.6877 184.494 80.9118 184.106C80.1423 183.724 79.1271 183.058 78.183 182.133C77.239 181.202 76.5665 180.2 76.1656 179.437C75.7647 178.668 75.616 178.157 75.6548 178.144C75.7582 178.086 76.5665 180.084 78.4223 181.888C80.2652 183.711 82.2697 184.494 82.218 184.597Z" fill="#455A64"/>
<path d="M93.01 219.664C93.0294 219.67 92.9777 219.896 92.8354 220.297C92.6932 220.698 92.441 221.261 92.0401 221.901C91.2512 223.188 89.7446 224.791 87.5784 225.71C85.4122 226.621 83.2072 226.582 81.7329 226.253C80.9893 226.091 80.4138 225.878 80.0258 225.703C79.6379 225.528 79.4439 225.406 79.4504 225.386C79.4762 225.322 80.3168 225.755 81.7782 226.013C83.2266 226.279 85.354 226.272 87.4361 225.393C89.5182 224.513 91.0055 222.994 91.8267 221.772C92.6738 220.537 92.9453 219.638 93.01 219.664Z" fill="#455A64"/>
<path d="M90.4946 218.63C90.514 218.668 89.9773 218.972 89.0333 219.276C88.0957 219.587 86.7378 219.852 85.2311 219.904C83.7245 219.968 82.3601 219.826 81.3902 219.677C80.4203 219.522 79.8318 219.36 79.8383 219.315C79.8577 219.199 82.2502 219.658 85.2182 219.548C86.699 219.496 88.0245 219.276 88.9686 219.031C89.9062 218.798 90.4752 218.578 90.4946 218.63Z" fill="#455A64"/>
<path d="M62.0692 219.354C62.095 219.38 61.6295 219.89 60.7371 220.556C59.8513 221.229 58.5192 222.031 56.9285 222.626C55.3314 223.221 53.7989 223.479 52.6932 223.557C51.581 223.628 50.8956 223.557 50.902 223.518C50.902 223.46 51.5874 223.447 52.6738 223.311C53.7601 223.175 55.2473 222.878 56.8121 222.302C58.3705 221.72 59.6961 220.97 60.6013 220.363C61.5066 219.748 62.0304 219.309 62.0692 219.354Z" fill="#455A64"/>
<path d="M58.7133 219.205C58.7327 219.289 57.1679 219.657 55.2086 219.496C53.2493 219.347 51.7556 218.739 51.7944 218.655C51.8268 218.552 53.3269 218.998 55.2409 219.146C57.142 219.302 58.7004 219.101 58.7133 219.205Z" fill="#455A64"/>
<path d="M73.967 178.06C73.9864 178.099 73.3398 178.436 72.247 178.836C71.1542 179.244 69.5958 179.696 67.837 179.981C66.0717 180.259 64.4552 180.317 63.2848 180.272C62.1209 180.227 61.4031 180.11 61.4096 180.071C61.4161 180.02 62.1338 180.046 63.2913 180.026C64.4487 180.007 66.0459 179.916 67.7853 179.638C69.5247 179.36 71.0701 178.946 72.1758 178.604C73.2751 178.261 73.9476 178.009 73.967 178.06Z" fill="#455A64"/>
<path d="M72.9259 174.142C73.0229 174.142 73.107 174.439 73.107 174.814C73.1135 175.183 73.0359 175.487 72.9389 175.487C72.8419 175.487 72.7578 175.189 72.7578 174.814C72.7514 174.446 72.829 174.142 72.9259 174.142Z" fill="#455A64"/>
<path d="M72.9259 171.451C73.0229 171.451 73.1005 171.755 73.0941 172.124C73.0941 172.492 73.01 172.796 72.913 172.796C72.816 172.796 72.7384 172.492 72.7449 172.124C72.7513 171.749 72.8289 171.451 72.9259 171.451Z" fill="#455A64"/>
<path d="M72.9841 168.762C73.0811 168.762 73.1522 169.066 73.1393 169.441C73.1328 169.809 73.0423 170.113 72.9453 170.107C72.8483 170.107 72.7772 169.803 72.7901 169.428C72.7966 169.059 72.8871 168.762 72.9841 168.762Z" fill="#455A64"/>
<path d="M73.0876 166.078C73.1846 166.085 73.2492 166.389 73.2298 166.757C73.2104 167.126 73.1199 167.423 73.0229 167.423C72.9259 167.417 72.8612 167.113 72.8806 166.744C72.9 166.369 72.9906 166.072 73.0876 166.078Z" fill="#455A64"/>
<path d="M73.2492 163.395C73.3462 163.401 73.4044 163.705 73.3785 164.074C73.3526 164.442 73.2557 164.74 73.1587 164.733C73.0617 164.727 73.0035 164.423 73.0293 164.054C73.0552 163.679 73.1522 163.388 73.2492 163.395Z" fill="#455A64"/>
<path d="M73.4626 160.711C73.5596 160.718 73.6113 161.028 73.579 161.396C73.5467 161.765 73.4432 162.056 73.3462 162.05C73.2492 162.043 73.1975 161.733 73.2298 161.364C73.2622 160.996 73.3656 160.705 73.4626 160.711Z" fill="#455A64"/>
<path d="M73.6696 158.519C73.7666 158.532 73.8248 158.726 73.7989 158.965C73.7731 159.205 73.6761 159.386 73.5791 159.379C73.4821 159.373 73.4239 159.172 73.4497 158.933C73.4756 158.694 73.5726 158.506 73.6696 158.519Z" fill="#455A64"/>
<path d="M52.053 274.342C52.15 274.361 52.163 274.672 52.0918 275.034C52.0207 275.396 51.8849 275.68 51.7879 275.661C51.6909 275.641 51.678 275.331 51.7491 274.969C51.8267 274.607 51.9625 274.322 52.053 274.342Z" fill="#455A64"/>
<path d="M52.5833 271.71C52.6803 271.729 52.6932 272.04 52.6221 272.402C52.551 272.764 52.4152 273.048 52.3182 273.029C52.2212 273.01 52.2083 272.699 52.2794 272.337C52.3505 271.969 52.4863 271.691 52.5833 271.71Z" fill="#455A64"/>
<path d="M53.107 269.072C53.204 269.092 53.2169 269.402 53.1458 269.764C53.0747 270.126 52.9389 270.411 52.8419 270.391C52.7449 270.372 52.7319 270.062 52.8031 269.699C52.8807 269.331 53.0165 269.053 53.107 269.072Z" fill="#455A64"/>
<path d="M53.6373 266.434C53.7342 266.453 53.7472 266.763 53.6761 267.125C53.6049 267.488 53.4691 267.772 53.3721 267.753C53.2752 267.733 53.2622 267.423 53.3333 267.061C53.4045 266.699 53.5403 266.414 53.6373 266.434Z" fill="#455A64"/>
<path d="M54.1675 263.802C54.2645 263.821 54.2775 264.132 54.2063 264.494C54.1352 264.856 53.9994 265.14 53.9024 265.121C53.8054 265.101 53.7925 264.791 53.8636 264.429C53.9347 264.06 54.0705 263.782 54.1675 263.802Z" fill="#455A64"/>
<path d="M54.6912 261.164C54.7882 261.183 54.8011 261.494 54.73 261.856C54.6589 262.218 54.5231 262.503 54.4261 262.483C54.3291 262.464 54.3162 262.153 54.3873 261.791C54.4584 261.423 54.5942 261.145 54.6912 261.164Z" fill="#455A64"/>
<path d="M55.2215 258.525C55.3185 258.545 55.3314 258.855 55.2603 259.217C55.1892 259.579 55.0534 259.864 54.9564 259.844C54.8594 259.825 54.8464 259.515 54.9176 259.153C54.9887 258.79 55.1245 258.506 55.2215 258.525Z" fill="#455A64"/>
<path d="M55.7453 255.894C55.8423 255.913 55.8552 256.223 55.7841 256.585C55.713 256.948 55.5772 257.232 55.4802 257.213C55.3832 257.193 55.3702 256.883 55.4414 256.521C55.519 256.152 55.6548 255.874 55.7453 255.894Z" fill="#455A64"/>
<path d="M56.2754 253.256C56.3724 253.275 56.3854 253.586 56.3142 253.948C56.2431 254.31 56.1073 254.594 56.0103 254.575C55.9133 254.556 55.9004 254.245 55.9715 253.883C56.0427 253.514 56.1784 253.236 56.2754 253.256Z" fill="#455A64"/>
<path d="M56.7992 250.617C56.8962 250.637 56.9092 250.947 56.838 251.309C56.7669 251.671 56.6311 251.956 56.5341 251.936C56.4371 251.917 56.4242 251.606 56.4953 251.244C56.5729 250.882 56.7087 250.598 56.7992 250.617Z" fill="#455A64"/>
<path d="M57.3295 247.985C57.4265 248.005 57.4394 248.315 57.3683 248.677C57.2972 249.039 57.1614 249.324 57.0644 249.304C56.9674 249.285 56.9545 248.975 57.0256 248.613C57.0967 248.244 57.2325 247.966 57.3295 247.985Z" fill="#455A64"/>
<path d="M57.8532 245.348C57.9502 245.367 57.9631 245.677 57.892 246.04C57.8209 246.402 57.6851 246.686 57.5881 246.667C57.4911 246.647 57.4782 246.337 57.5493 245.975C57.6269 245.606 57.7627 245.328 57.8532 245.348Z" fill="#455A64"/>
<path d="M58.3835 242.709C58.4805 242.728 58.4934 243.039 58.4223 243.401C58.3511 243.763 58.2154 244.047 58.1184 244.028C58.0214 244.009 58.0084 243.698 58.0796 243.336C58.1507 242.974 58.2865 242.69 58.3835 242.709Z" fill="#455A64"/>
<path d="M58.9072 240.077C59.0041 240.097 59.0171 240.407 58.946 240.769C58.8748 241.131 58.739 241.416 58.642 241.396C58.5451 241.377 58.5321 241.066 58.6032 240.704C58.6808 240.336 58.8166 240.058 58.9072 240.077Z" fill="#455A64"/>
<path d="M59.4374 237.439C59.5344 237.459 59.5474 237.769 59.4762 238.131C59.4051 238.493 59.2693 238.778 59.1723 238.759C59.0753 238.739 59.0624 238.429 59.1335 238.067C59.2046 237.698 59.3404 237.42 59.4374 237.439Z" fill="#455A64"/>
<path d="M59.9677 234.801C60.0647 234.82 60.0776 235.131 60.0065 235.493C59.9354 235.855 59.7996 236.139 59.7026 236.12C59.6056 236.1 59.5927 235.79 59.6638 235.428C59.7349 235.066 59.8707 234.781 59.9677 234.801Z" fill="#455A64"/>
<path d="M60.4914 232.169C60.5884 232.188 60.6013 232.499 60.5302 232.861C60.4591 233.223 60.3233 233.507 60.2263 233.488C60.1293 233.469 60.1163 233.158 60.1875 232.796C60.2586 232.428 60.3944 232.15 60.4914 232.169Z" fill="#455A64"/>
<path d="M61.0217 229.531C61.1187 229.551 61.1316 229.861 61.0605 230.223C60.9893 230.585 60.8535 230.87 60.7565 230.85C60.6595 230.831 60.6466 230.521 60.7177 230.158C60.7889 229.79 60.9247 229.512 61.0217 229.531Z" fill="#455A64"/>
<path d="M61.5455 226.893C61.6425 226.912 61.6554 227.223 61.5843 227.585C61.5131 227.947 61.3773 228.232 61.2803 228.212C61.1834 228.193 61.1704 227.882 61.2416 227.52C61.3191 227.158 61.4549 226.88 61.5455 226.893Z" fill="#455A64"/>
<path d="M62.0756 224.261C62.1726 224.28 62.1855 224.591 62.1144 224.953C62.0433 225.315 61.9075 225.599 61.8105 225.58C61.7135 225.56 61.7006 225.25 61.7717 224.888C61.8428 224.519 61.9786 224.241 62.0756 224.261Z" fill="#455A64"/>
<path d="M62.5994 221.623C62.6964 221.642 62.7093 221.953 62.6382 222.315C62.5671 222.677 62.4313 222.962 62.3343 222.942C62.2373 222.923 62.2244 222.612 62.2955 222.25C62.3731 221.882 62.5089 221.604 62.5994 221.623Z" fill="#455A64"/>
<path d="M63.1297 218.991C63.2267 219.011 63.2396 219.321 63.1685 219.683C63.0974 220.045 62.9616 220.33 62.8646 220.31C62.7676 220.291 62.7547 219.981 62.8258 219.618C62.8969 219.25 63.0327 218.972 63.1297 218.991Z" fill="#455A64"/>
<path d="M63.6534 216.353C63.7504 216.372 63.7633 216.682 63.6922 217.044C63.621 217.407 63.4852 217.691 63.3883 217.672C63.2913 217.652 63.2783 217.342 63.3495 216.98C63.4271 216.611 63.5628 216.333 63.6534 216.353Z" fill="#455A64"/>
<path d="M64.1836 213.715C64.2806 213.734 64.2936 214.045 64.2224 214.407C64.1513 214.769 64.0155 215.053 63.9185 215.034C63.8215 215.014 63.8086 214.704 63.8797 214.342C63.9509 213.98 64.0867 213.695 64.1836 213.715Z" fill="#455A64"/>
<path d="M64.7139 211.083C64.8109 211.102 64.8238 211.413 64.7527 211.775C64.6816 212.137 64.5458 212.421 64.4488 212.402C64.3518 212.383 64.3389 212.072 64.41 211.71C64.4811 211.342 64.6169 211.064 64.7139 211.083Z" fill="#455A64"/>
<path d="M65.2376 208.444C65.3346 208.464 65.3475 208.774 65.2764 209.136C65.2053 209.498 65.0695 209.783 64.9725 209.763C64.8755 209.744 64.8626 209.434 64.9337 209.072C65.0048 208.703 65.1406 208.425 65.2376 208.444Z" fill="#455A64"/>
<path d="M65.7679 205.807C65.8649 205.826 65.8778 206.136 65.8067 206.498C65.7355 206.861 65.5998 207.145 65.5028 207.126C65.4058 207.106 65.3928 206.796 65.464 206.434C65.5351 206.072 65.6709 205.787 65.7679 205.807Z" fill="#455A64"/>
<path d="M66.2917 203.175C66.3887 203.194 66.4016 203.505 66.3305 203.867C66.2593 204.229 66.1236 204.513 66.0266 204.494C65.9296 204.474 65.9166 204.164 65.9878 203.802C66.0654 203.433 66.2011 203.155 66.2917 203.175Z" fill="#455A64"/>
<path d="M66.8218 200.536C66.9188 200.556 66.9318 200.866 66.8606 201.228C66.7895 201.59 66.6537 201.875 66.5567 201.855C66.4597 201.836 66.4468 201.525 66.5179 201.163C66.589 200.795 66.7248 200.517 66.8218 200.536Z" fill="#455A64"/>
<path d="M67.3456 197.898C67.4426 197.918 67.4556 198.228 67.3844 198.59C67.3133 198.952 67.1775 199.237 67.0805 199.218C66.9835 199.198 66.9706 198.888 67.0417 198.526C67.1193 198.164 67.2551 197.879 67.3456 197.898Z" fill="#455A64"/>
<path d="M67.8759 195.267C67.9729 195.286 67.9858 195.596 67.9147 195.958C67.8436 196.321 67.7078 196.605 67.6108 196.586C67.5138 196.566 67.5009 196.256 67.572 195.894C67.6431 195.525 67.7789 195.247 67.8759 195.267Z" fill="#455A64"/>
<path d="M68.3996 192.628C68.4966 192.647 68.5095 192.958 68.4384 193.32C68.3673 193.682 68.2315 193.966 68.1345 193.947C68.0375 193.928 68.0245 193.617 68.0957 193.255C68.1733 192.887 68.3091 192.609 68.3996 192.628Z" fill="#455A64"/>
<path d="M68.9299 189.99C69.0269 190.01 69.0398 190.32 68.9687 190.682C68.8975 191.044 68.7617 191.329 68.6647 191.309C68.5678 191.29 68.5548 190.98 68.6259 190.617C68.6971 190.255 68.8329 189.971 68.9299 189.99Z" fill="#455A64"/>
<path d="M69.4537 187.358C69.5507 187.378 69.5636 187.688 69.4925 188.05C69.4213 188.412 69.2855 188.697 69.1885 188.677C69.0916 188.658 69.0786 188.348 69.1498 187.986C69.2273 187.617 69.3631 187.339 69.4537 187.358Z" fill="#455A64"/>
<path d="M69.9838 184.72C70.0808 184.739 70.0937 185.049 70.0226 185.412C69.9515 185.774 69.8157 186.058 69.7187 186.039C69.6217 186.019 69.6088 185.709 69.6799 185.347C69.751 184.978 69.8868 184.7 69.9838 184.72Z" fill="#455A64"/>
<path d="M70.5141 182.082C70.6111 182.101 70.624 182.412 70.5529 182.774C70.4818 183.136 70.346 183.421 70.249 183.401C70.152 183.382 70.1391 183.071 70.2102 182.709C70.2813 182.347 70.4171 182.063 70.5141 182.082Z" fill="#455A64"/>
<path d="M71.0379 179.45C71.1349 179.47 71.1478 179.78 71.0767 180.142C71.0056 180.504 70.8698 180.789 70.7728 180.769C70.6758 180.75 70.6629 180.44 70.734 180.077C70.8051 179.709 70.9409 179.431 71.0379 179.45Z" fill="#455A64"/>
<path d="M123.75 98.1569C123.75 98.1569 128.225 91.4515 128.341 91.3933C128.341 91.3933 132.383 84.5908 133.721 84.5908C135.073 84.5908 134.581 85.9681 133.191 88.4059C131.975 90.5397 131.853 91.8782 131.853 91.8782L135.17 93.8828C135.17 93.8828 137.388 93.0228 137.478 95.0919C137.51 95.7838 137.329 96.6374 137.097 97.8983C136.961 98.6354 136.631 99.4179 135.933 99.1398C135.616 99.0105 135.357 98.7712 135.338 98.3121C135.293 97.09 135.525 96.6438 135.37 96.6438C135.17 96.6438 132.984 103.052 132.984 103.052L123.75 98.1569Z" fill="#FFBE9D"/>
<path d="M132.784 92.8937C133.126 92.6609 133.469 92.4217 133.851 92.26C134.232 92.0983 134.652 92.0014 135.06 92.0725C135.318 92.1178 135.571 92.2277 135.732 92.4281C135.959 92.7062 135.972 93.1071 135.862 93.4498C135.752 93.786 135.532 94.077 135.318 94.3615" fill="#FFBE9D"/>
<path d="M131.271 91.5424C131.594 91.3226 131.917 91.1027 132.279 90.9475C132.641 90.7923 133.036 90.7083 133.424 90.7729C133.663 90.8117 133.909 90.9217 134.064 91.1092C134.277 91.3678 134.29 91.7493 134.187 92.0662C134.083 92.383 133.359 93.1266 133.159 93.3917" fill="#FFBE9D"/>
<path d="M125.309 94.374L118.843 108.199L125.968 115.48L129.68 105.173C129.68 105.173 131.672 105.567 132.48 104.248C133.385 102.774 134.575 98.5124 134.575 98.5124L125.309 94.374Z" fill="#FFBE9D"/>
<path d="M129.926 93.9925C129.854 93.9731 130.016 93.042 130.689 92.0785C131.031 91.6 131.465 91.2767 131.794 91.0957C132.124 90.9146 132.35 90.8564 132.376 90.8952C132.441 90.9987 131.6 91.4125 130.973 92.2855C130.352 93.1649 130.036 94.0378 129.926 93.9925Z" fill="#EB996E"/>
<path d="M137.097 94.0507C137.064 94.096 136.845 93.9731 136.469 93.9084C136.101 93.8438 135.551 93.8502 135.06 94.1218C134.568 94.3934 134.245 94.846 134.012 95.1629C133.78 95.4862 133.631 95.6931 133.586 95.6672C133.547 95.6478 133.618 95.4021 133.805 95.0336C133.993 94.6779 134.303 94.1477 134.898 93.8114C135.493 93.4817 136.146 93.5205 136.541 93.6627C136.942 93.8114 137.123 94.0184 137.097 94.0507Z" fill="#EB996E"/>
<path d="M134.691 92.0978C134.711 92.2013 133.889 92.3435 133.172 92.9901C132.447 93.6303 132.092 94.3804 131.995 94.3287C131.917 94.3093 132.137 93.4428 132.939 92.725C133.34 92.3759 133.792 92.1754 134.129 92.1043C134.471 92.0267 134.685 92.0525 134.691 92.0978Z" fill="#EB996E"/>
<path d="M136.282 95.0854C136.372 95.0531 136.541 95.5833 136.204 96.12C135.868 96.6567 135.312 96.7407 135.306 96.6438C135.273 96.5468 135.655 96.3592 135.907 95.9325C136.172 95.5251 136.185 95.0983 136.282 95.0854Z" fill="#EB996E"/>
<path d="M123.763 97.8919C123.763 97.8919 123.537 93.7664 124.533 92.8288C125.529 91.8977 128.387 92.8676 128.387 92.8676" fill="#FFBE9D"/>
<path d="M128.794 90.8951C128.872 90.9533 128.206 92.0073 127.313 93.2488C126.421 94.4903 125.632 95.4473 125.548 95.3956C125.47 95.3438 126.13 94.2898 127.029 93.0419C127.928 91.8003 128.716 90.8369 128.794 90.8951Z" fill="#EB996E"/>
<path d="M71.5551 59.6126L71.4581 91.8144L85.27 92.4739L85.6709 84.6433C85.6709 84.6433 90.5787 85.6197 91.8461 81.061C92.6544 78.1512 92.4539 55.6553 92.4539 55.6553L71.5551 59.6126Z" fill="#FFBE9D"/>
<path d="M94.271 57.9182C92.0983 58.5389 91.6198 62.0953 91.6198 62.0953L88.2057 69.6349C86.4662 68.2706 84.1319 68.3546 83.6922 71.4067C83.3754 73.6117 86.1171 74.0578 86.1171 74.0578C84.5199 76.7801 83.4336 78.9786 81.1058 81.5651C78.5904 84.365 77.1743 84.6495 74.4456 84.6948H71.4323C71.4323 84.6948 69.958 79.9098 67.2293 67.9408C64.2031 54.6657 79.8966 56.3727 82.8128 52.9844C87.5526 47.4688 101.125 55.9589 94.271 57.9182Z" fill="#263238"/>
<path d="M67.5202 69.1948C64.9726 67.4878 64.7462 62.7028 66.2335 59.8318C67.7207 56.9608 70.8439 55.0209 74.0705 54.9562C74.5038 54.9498 74.9499 54.9692 75.3508 54.814C75.9457 54.5812 76.3337 54.0186 76.7281 53.5078C79.0042 50.5528 81.2351 47.643 85.4769 47.6494C86.1623 47.6494 86.9254 47.6494 88.141 48.309C88.7488 48.6388 89.5959 49.7509 89.7446 50.4299C90.54 50.0549 91.3547 49.6669 92.2212 49.5376C93.0941 49.4082 94.0511 49.557 94.7107 50.1454C95.3702 50.7338 95.6159 51.8072 95.0987 52.5314C96.5277 52.4409 97.8791 53.6242 98.1054 55.0403C98.3318 56.4564 96.3078 57.4457 96.0944 57.5557C96.0944 57.5557 97.2066 59.8835 94.5555 61.2802C93.4886 61.8428 92.0983 61.1638 91.9431 61.0862" fill="#263238"/>
<path d="M77.6076 72.292C77.6981 72.2856 77.8339 73.3977 77.53 74.7362C77.2325 76.0748 76.6312 77.0253 76.5536 76.98C76.463 76.9348 76.9027 75.9454 77.1873 74.6587C77.4782 73.3719 77.5041 72.292 77.6076 72.292Z" fill="#455A64"/>
<path d="M79.2759 70.7149C79.3664 70.7213 79.3923 71.7818 79.1465 73.0686C78.9073 74.3554 78.5064 75.3382 78.4159 75.3124C78.3189 75.28 78.571 74.2648 78.8038 73.0039C79.0431 71.743 79.1789 70.7084 79.2759 70.7149Z" fill="#455A64"/>
<path d="M84.0609 65.3989C84.0932 65.4441 83.7052 65.7286 83.2073 66.3106C82.7094 66.8861 82.1339 67.7849 81.7201 68.8777C81.2998 69.9705 81.0735 71.018 80.8924 71.7745C80.7178 72.5311 80.6014 73.0031 80.5497 72.9902C80.5044 72.9837 80.5368 72.4988 80.6467 71.7293C80.7631 70.9598 80.9571 69.8864 81.3903 68.7548C81.8236 67.6232 82.4572 66.6986 83.0263 66.1425C83.5888 65.5799 84.0415 65.3601 84.0609 65.3989Z" fill="#455A64"/>
<path d="M85.9942 61.7777C86.033 61.7648 86.1752 62.0881 86.2593 62.6507C86.3498 63.2067 86.3498 64.0086 86.1364 64.8492C85.9231 65.6898 85.548 66.3946 85.2053 66.8472C84.8626 67.2999 84.591 67.5197 84.5587 67.4874C84.4746 67.4227 85.4058 66.3817 85.8002 64.7651C86.2205 63.155 85.8907 61.7971 85.9942 61.7777Z" fill="#455A64"/>
<path d="M69.5118 69.8219C69.4665 69.906 69.0398 69.7573 68.5677 69.4922C68.0957 69.227 67.7465 68.9425 67.7918 68.8585C67.8371 68.7744 68.2638 68.9231 68.7359 69.1882C69.2079 69.4534 69.5571 69.7379 69.5118 69.8219Z" fill="#455A64"/>
<path d="M76.185 66.3823C76.2755 66.3952 76.2173 67.0806 75.7905 67.7855C75.3638 68.4967 74.7883 68.8589 74.7366 68.7877C74.6719 68.7101 75.1051 68.2575 75.4931 67.6044C75.8875 66.9578 76.088 66.3629 76.185 66.3823Z" fill="#455A64"/>
<path d="M78.2348 65.2833C78.3253 65.3027 78.1766 66.1174 77.6205 66.958C77.0644 67.7986 76.3725 68.2513 76.3144 68.1737C76.2497 68.0961 76.8058 67.5529 77.3231 66.764C77.8533 65.9752 78.1378 65.2509 78.2348 65.2833Z" fill="#455A64"/>
<path d="M88.4385 51.7941C88.4126 51.82 88.1799 51.6001 87.682 51.3156C87.1841 51.044 86.3887 50.7401 85.367 50.7142C84.3583 50.6819 83.1168 50.9211 81.9723 51.626C80.8278 52.3308 79.8126 53.4753 79.0819 54.8461C78.5452 55.8484 78.1766 56.8895 77.905 57.8659L77.8468 58.0663L77.6593 57.9693C76.6312 57.4326 75.5449 57.1934 74.5749 57.1804C73.5985 57.1546 72.745 57.3356 72.066 57.5619C70.7017 58.0275 70.055 58.6418 70.0162 58.5836C70.0033 58.5707 70.1585 58.4155 70.4754 58.1762C70.7987 57.937 71.303 57.6266 71.9884 57.3615C72.6739 57.1028 73.5597 56.8895 74.5685 56.8959C75.5772 56.8895 76.7152 57.1158 77.8016 57.6783L77.5623 57.7818C77.8274 56.7795 78.2025 55.7126 78.7521 54.6845C79.5087 53.2684 80.5691 52.0786 81.7848 51.3544C83.0004 50.6302 84.3066 50.4039 85.3606 50.4685C86.4275 50.5267 87.2422 50.8759 87.7337 51.1992C87.9794 51.3673 88.1604 51.5031 88.2639 51.6195C88.3932 51.7294 88.445 51.7876 88.4385 51.7941Z" fill="#455A64"/>
<path d="M95.7 53.5469C95.6742 53.5404 96.0815 53.4434 96.4954 53.909C96.6829 54.1288 96.851 54.4845 96.8122 54.9177C96.7734 55.3509 96.4695 55.7971 96.0104 56.0622C95.5578 56.3403 94.9306 56.4308 94.3292 56.295C93.7214 56.1657 93.1394 55.8424 92.5963 55.4544C92.0466 55.0729 91.5229 54.6267 90.9021 54.2969C90.2878 53.9607 89.5959 53.7214 88.8588 53.5792C87.391 53.3076 85.9296 53.4693 84.6945 53.8637C83.453 54.2646 82.4249 54.8595 81.6166 55.4285C80.0065 56.586 79.2112 57.5559 79.1595 57.5106C79.1465 57.4977 79.3276 57.2455 79.7026 56.8317C80.0841 56.4179 80.6596 55.8424 81.4679 55.2345C82.2697 54.6267 83.3172 53.993 84.5911 53.5663C85.8649 53.1395 87.3845 52.9584 88.9234 53.2429C89.6865 53.3917 90.4171 53.6503 91.0638 54.006C91.7169 54.3616 92.2535 54.8272 92.7773 55.2022C93.3011 55.5837 93.8378 55.8876 94.3874 56.0234C94.9306 56.1592 95.4673 56.0945 95.8746 55.8618C96.2885 55.6419 96.5536 55.2604 96.6053 54.9048C96.657 54.5427 96.5277 54.2129 96.3725 54.006C96.0557 53.5533 95.6806 53.5856 95.7 53.5469Z" fill="#455A64"/>
<path d="M56.851 95.1885L44.5135 115.906C43.1362 118.325 41.8559 120.898 40.6338 123.569C39.6509 126.129 40.2199 129.466 41.9335 131.593L41.5843 131.089C42.9551 132.783 45.0114 133.766 47.1905 133.766H47.5073C50.3783 133.766 52.9713 132.065 54.1158 129.434L58.0796 123.42L56.851 95.1885Z" fill="#1776E8"/>
<path d="M94.077 91.2251C90.7663 89.531 87.4943 89.1495 83.925 89.046C79.7672 88.9231 73.9153 88.3412 69.4342 88.8197C69.4342 88.8197 56.6764 89.7637 55.7905 98.5061L57.5299 139.567L54.6072 156.961L95.4866 158.196L95.1956 137.672C95.7 126.99 94.6201 111.872 94.6201 111.872C95.2473 106.13 98.3899 103.543 98.8361 99.8122C99.2435 96.5209 97.0385 92.7382 94.077 91.2251Z" fill="#1776E8"/>
<path d="M82.5543 140.161C82.5672 140.174 82.3603 140.388 81.9529 140.73C81.5455 141.073 80.9183 141.532 80.0906 142.011C78.4482 142.968 75.8876 143.931 72.9455 143.983C70.0033 144.034 67.4104 143.162 65.7356 142.263C64.8886 141.817 64.2484 141.377 63.8281 141.054C63.4078 140.724 63.1944 140.523 63.2073 140.504C63.2461 140.446 64.1514 141.215 65.8456 142.043C67.5268 142.871 70.068 143.685 72.939 143.634C75.81 143.582 78.3254 142.683 79.9742 141.797C81.6361 140.905 82.509 140.103 82.5543 140.161Z" fill="#263238"/>
<path d="M55.7324 98.9785C55.7453 98.9785 55.7583 99.1143 55.7777 99.3794C55.7971 99.6769 55.8165 100.058 55.8488 100.524C55.9005 101.565 55.9652 103 56.0428 104.746C56.1915 108.355 56.3984 113.256 56.6247 118.675C56.8705 124.093 57.0903 128.995 57.2584 132.603C57.349 134.349 57.4201 135.778 57.4718 136.825C57.4912 137.291 57.5106 137.672 57.5235 137.976C57.53 138.241 57.53 138.377 57.5171 138.377C57.5041 138.377 57.4848 138.241 57.4524 137.983C57.4201 137.685 57.3878 137.304 57.336 136.838C57.239 135.842 57.1356 134.407 57.0127 132.622C56.7735 129.059 56.5084 124.139 56.282 118.694C56.0493 113.256 55.8941 108.329 55.8035 104.759C55.7712 103.007 55.7389 101.578 55.7195 100.53C55.7195 100.065 55.7195 99.6833 55.713 99.3794C55.713 99.1208 55.7195 98.9785 55.7324 98.9785Z" fill="#263238"/>
<path d="M53.1717 101.151C53.1847 101.157 53.1329 101.267 53.0295 101.468C52.9066 101.707 52.7514 101.998 52.5639 102.353C52.1501 103.116 51.5358 104.209 50.7534 105.541C49.2015 108.225 46.8672 111.813 44.507 115.9C43.3302 117.937 42.3279 119.961 41.4614 121.804C40.6014 123.647 40.1617 125.457 40.2716 126.983C40.3557 128.516 40.8148 129.699 41.2157 130.449C41.6231 131.206 41.9529 131.561 41.927 131.581C41.9205 131.587 41.8365 131.503 41.6813 131.335C41.5325 131.16 41.3256 130.895 41.0993 130.514C40.6467 129.77 40.1488 128.567 40.0259 126.996C39.8772 125.425 40.3104 123.537 41.164 121.668C42.024 119.799 43.0133 117.775 44.1966 115.719C46.5633 111.619 48.9299 108.057 50.5335 105.405C51.3159 104.119 51.9626 103.058 52.4411 102.276C52.648 101.933 52.8226 101.655 52.9584 101.422C53.0941 101.248 53.1653 101.144 53.1717 101.151Z" fill="#263238"/>
<path d="M128.374 112.428L118.914 106.24L112.945 116.579C112.945 116.579 104.669 105.076 100.905 98.3315C97.446 92.1304 92.9649 90.4556 90.8051 90.0095C90.165 89.8737 89.5895 90.4104 89.6606 91.057L92.9261 113.43C93.3399 114.594 100.168 124.494 103.983 129.473C110.353 137.788 119.735 132.467 122.309 126.647C124.352 122.03 127.533 115.014 128.374 112.428Z" fill="#1776E8"/>
<path d="M115.661 125.917C115.61 125.917 115.551 125.354 115.48 124.442C115.403 123.531 115.306 122.27 115.021 120.918C114.737 119.567 114.265 118.397 113.812 117.614C113.366 116.825 112.991 116.398 113.029 116.36C113.055 116.334 113.508 116.702 114.019 117.485C114.536 118.254 115.066 119.457 115.357 120.841C115.648 122.231 115.7 123.505 115.719 124.423C115.739 125.348 115.707 125.917 115.661 125.917Z" fill="#263238"/>
<path d="M118.429 121.293C118.371 121.3 118.325 120.815 118.093 120.084C117.86 119.36 117.388 118.383 116.579 117.549C115.784 116.702 114.814 116.185 114.064 116.172C113.307 116.133 112.887 116.437 112.868 116.385C112.835 116.366 113.23 115.952 114.071 115.926C114.911 115.875 116.004 116.418 116.838 117.31C117.698 118.196 118.157 119.25 118.338 120.019C118.513 120.795 118.468 121.293 118.429 121.293Z" fill="#263238"/>
<path d="M90.1908 92.7709C90.1973 92.7774 90.1197 92.8679 89.9645 93.036C89.8805 93.1266 89.7835 93.2235 89.6735 93.3335C89.5636 93.4628 89.4408 93.6115 89.3114 93.7732C88.7877 94.4392 88.0958 95.4867 87.6755 96.9546C87.2228 98.403 87.0483 100.246 87.3134 102.237C87.4492 103.233 87.6949 104.261 88.1281 105.264C88.5484 106.272 89.098 107.275 89.6541 108.303C91.969 112.37 94.3551 115.888 96.0816 118.429C96.9351 119.657 97.6399 120.666 98.1572 121.416C98.6486 122.121 98.9332 122.503 98.9073 122.522C98.9008 122.528 98.8168 122.444 98.668 122.27C98.5193 122.095 98.3059 121.837 98.0473 121.5C97.5171 120.821 96.7734 119.826 95.8746 118.578C94.0964 116.069 91.6781 112.57 89.3502 108.484C88.7877 107.449 88.2316 106.44 87.8113 105.406C87.3716 104.371 87.1258 103.311 86.9965 102.289C86.7379 100.252 86.9448 98.3642 87.4362 96.8899C87.9018 95.4027 88.639 94.3422 89.208 93.6956C89.3502 93.5404 89.4796 93.4046 89.6024 93.2753C89.7188 93.1718 89.8223 93.0813 89.9193 92.9972C90.0874 92.8356 90.1779 92.7644 90.1908 92.7709Z" fill="#263238"/>
<path d="M90.2102 152.215C90.2167 152.228 90.1132 152.267 89.9192 152.338C89.6864 152.415 89.4084 152.512 89.0722 152.629C88.7036 152.758 88.2509 152.9 87.7142 153.043C87.1775 153.191 86.5762 153.372 85.8908 153.521C84.5329 153.857 82.8969 154.161 81.0605 154.407C79.2241 154.633 77.1937 154.788 75.0599 154.801C72.926 154.801 70.8892 154.653 69.0528 154.439C67.2164 154.2 65.5804 153.909 64.216 153.579C63.5306 153.437 62.9228 153.256 62.3861 153.114C61.8494 152.971 61.3903 152.829 61.0217 152.706C60.6855 152.59 60.401 152.499 60.1682 152.415C59.9742 152.344 59.8772 152.305 59.8772 152.293C59.8837 152.28 59.9871 152.299 60.1876 152.351C60.4268 152.415 60.7113 152.487 61.054 152.577C61.4291 152.681 61.8882 152.803 62.4249 152.926C62.9616 153.049 63.5694 153.217 64.2548 153.34C65.6127 153.637 67.2487 153.903 69.0722 154.122C70.9021 154.316 72.9196 154.452 75.0405 154.452C77.1614 154.439 79.1788 154.291 81.0023 154.084C82.8258 153.857 84.4617 153.579 85.8132 153.275C86.4986 153.146 87.1064 152.978 87.6431 152.849C88.1798 152.726 88.6389 152.596 89.014 152.493C89.3567 152.402 89.6412 152.325 89.8804 152.26C90.1003 152.221 90.2102 152.202 90.2102 152.215Z" fill="#263238"/>
<g opacity="0.3">
<path d="M54.9952 128.108L56.8381 125.244L55.8746 102.677L54.9952 128.108Z" fill="black"/>
</g>
<g opacity="0.3">
<path d="M86.8801 101.15C86.8801 101.15 86.9383 109.375 88.8394 112.628C90.7405 115.887 95.1892 122.922 95.1698 122.502C95.1569 122.082 94.9176 116.702 94.9176 116.702C94.9176 116.702 86.9189 105.754 86.8801 101.15Z" fill="black"/>
</g>
<path d="M53.3592 128.794C53.3657 128.807 53.1652 128.91 52.7708 128.962C52.3764 129.02 51.7815 128.994 51.109 128.749C50.4365 128.503 49.6993 128.044 49.0398 127.365C48.3802 126.686 47.8371 125.8 47.3133 124.869C46.796 123.938 46.324 123.045 45.7873 122.308C45.2571 121.578 44.6622 121.002 44.0996 120.614C42.9616 119.825 42.0369 119.877 42.0498 119.806C42.0498 119.793 42.2697 119.754 42.6641 119.812C43.0585 119.864 43.6211 120.039 44.2289 120.414C44.8368 120.789 45.4704 121.371 46.033 122.121C46.602 122.871 47.087 123.776 47.6043 124.701C48.1216 125.626 48.6454 126.486 49.2596 127.145C49.8739 127.805 50.5594 128.264 51.1866 128.522C52.4734 129.066 53.3657 128.716 53.3592 128.794Z" fill="#E4EDFF"/>
<path d="M55.8617 114.627C55.8035 114.639 55.6612 114.135 55.2668 113.411C54.8788 112.687 54.1804 111.756 53.1782 110.993C52.1695 110.236 51.0896 109.816 50.2813 109.641C49.473 109.46 48.9493 109.46 48.9493 109.402C48.9428 109.37 49.473 109.279 50.3266 109.408C51.1737 109.531 52.3246 109.932 53.3786 110.721C54.4262 111.516 55.131 112.519 55.4802 113.301C55.8358 114.083 55.894 114.62 55.8617 114.627Z" fill="#E4EDFF"/>
<path d="M87.0289 102.516C87.0224 102.548 86.5827 102.431 85.7809 102.367C84.9791 102.302 83.8022 102.328 82.3991 102.677C80.9959 103.013 79.3923 103.647 77.7111 104.552C76.0169 105.438 74.2258 106.563 72.1954 107.495C70.1714 108.445 68.0505 108.924 66.1236 109.04C64.1837 109.15 62.4379 108.924 61.0218 108.568C59.5992 108.219 58.5064 107.747 57.7822 107.378C57.4136 107.204 57.1485 107.035 56.961 106.925C56.7799 106.816 56.6829 106.751 56.6894 106.744C56.7023 106.719 57.0968 106.932 57.8404 107.262C58.5775 107.592 59.6703 108.025 61.08 108.342C62.4831 108.665 64.2031 108.859 66.1042 108.736C67.9988 108.6 70.0615 108.128 72.0596 107.191C74.0641 106.279 75.8553 105.16 77.5753 104.281C79.2823 103.382 80.9248 102.755 82.3538 102.451C83.7828 102.128 84.992 102.14 85.8003 102.244C86.2077 102.296 86.518 102.36 86.725 102.419C86.9254 102.47 87.0353 102.503 87.0289 102.516Z" fill="#E4EDFF"/>
<path d="M94.9758 124.888C94.9758 124.901 94.8529 124.94 94.6007 125.011C94.3486 125.07 93.9929 125.205 93.5079 125.283C92.5509 125.496 91.1284 125.652 89.376 125.613C87.6172 125.58 85.5416 125.27 83.2849 124.759C81.0282 124.242 78.5904 123.505 76.0362 122.748C73.4821 122.005 71.012 121.423 68.7359 121.125C66.4598 120.841 64.3712 120.821 62.6576 121.08C60.9441 121.332 59.5927 121.765 58.7068 122.166C57.8209 122.561 57.3489 122.832 57.3295 122.8C57.323 122.787 57.4394 122.716 57.6593 122.587C57.8856 122.464 58.1959 122.237 58.6486 122.05C59.5215 121.61 60.8794 121.132 62.6188 120.847C64.3582 120.556 66.4662 120.55 68.7747 120.821C71.0831 121.106 73.5726 121.681 76.1332 122.431C78.6938 123.181 81.1187 123.931 83.356 124.462C85.5933 124.992 87.6496 125.315 89.389 125.38C91.1219 125.451 92.5315 125.328 93.495 125.16C94.4455 124.992 94.9693 124.856 94.9758 124.888Z" fill="#E4EDFF"/>
<path d="M95.2022 137.679C95.1698 137.789 93.2882 136.566 89.8223 136.23C88.1023 136.043 86.0396 136.146 83.7699 136.437C81.5003 136.747 79.0302 137.265 76.4243 137.756C73.8184 138.241 71.3224 138.674 69.0205 138.875C66.725 139.082 64.6364 139.069 62.9034 138.836C61.1705 138.61 59.7997 138.228 58.8879 137.873C58.4224 137.717 58.0926 137.53 57.8533 137.433C57.6205 137.323 57.5042 137.265 57.5042 137.252C57.5171 137.219 58.0085 137.439 58.9267 137.75C59.8385 138.067 61.2093 138.409 62.9228 138.597C64.6428 138.797 66.7056 138.784 68.9881 138.564C71.2707 138.351 73.7537 137.911 76.3596 137.426C78.959 136.935 81.4421 136.424 83.7246 136.133C86.0137 135.855 88.1087 135.778 89.8417 135.997C91.5811 136.204 92.9519 136.612 93.8443 137.006C94.3034 137.174 94.6267 137.381 94.8595 137.485C95.0923 137.601 95.2086 137.666 95.2022 137.679Z" fill="#E4EDFF"/>
<path d="M74.1869 154.167C74.174 154.187 73.9412 154.038 73.5403 153.76C73.1394 153.475 72.5574 153.081 71.8267 152.596C70.3718 151.633 68.3026 150.378 65.9101 149.214C63.5112 148.05 61.2545 147.197 59.5991 146.647C58.7714 146.369 58.0925 146.156 57.6269 146.02C57.1614 145.878 56.9027 145.787 56.9092 145.761C56.9156 145.742 57.1808 145.787 57.6593 145.891C58.1378 145.994 58.8296 146.169 59.6702 146.421C61.3515 146.912 63.647 147.74 66.0589 148.91C68.4708 150.087 70.5335 151.38 71.9625 152.402C72.6803 152.913 73.2428 153.34 73.6179 153.656C73.9994 153.967 74.1998 154.148 74.1869 154.167Z" fill="#E4EDFF"/>
<path d="M94.0899 153.947C94.1093 153.98 93.6179 154.303 92.732 154.626C91.8462 154.956 90.5529 155.234 89.1045 155.189C87.6561 155.144 86.3757 154.782 85.5157 154.4C84.6493 154.019 84.1837 153.663 84.2031 153.637C84.229 153.585 84.7398 153.863 85.6063 154.18C86.4727 154.497 87.7143 154.807 89.1174 154.853C90.5206 154.892 91.7815 154.659 92.6609 154.4C93.5468 154.141 94.0641 153.896 94.0899 153.947Z" fill="#E4EDFF"/>
<path d="M108.244 111.257C108.257 111.257 108.27 111.471 108.167 111.833C108.07 112.195 107.837 112.699 107.41 113.223C106.984 113.74 106.363 114.264 105.593 114.704C104.824 115.144 103.925 115.486 103 115.868C102.082 116.243 101.216 116.644 100.543 117.155C99.8707 117.665 99.3728 118.267 99.0818 118.836C98.474 119.993 98.7391 120.853 98.668 120.847C98.6551 120.853 98.571 120.659 98.5451 120.278C98.5193 119.903 98.5839 119.34 98.8684 118.726C99.153 118.112 99.6509 117.458 100.356 116.909C101.06 116.353 101.946 115.939 102.878 115.557C103.809 115.176 104.701 114.846 105.445 114.439C106.195 114.031 106.802 113.553 107.236 113.074C108.109 112.104 108.18 111.232 108.244 111.257Z" fill="#E4EDFF"/>
<path d="M100.297 97.5365C100.317 97.5429 100.278 97.7499 100.188 98.1249C100.142 98.3124 100.084 98.5387 99.9871 98.7974C99.8966 99.056 99.806 99.3535 99.6573 99.6639C99.3922 100.298 98.9978 101.022 98.4934 101.785C97.9761 102.535 97.3359 103.311 96.5729 104.035C95.8034 104.753 94.9822 105.341 94.2063 105.82C93.4174 106.279 92.6738 106.628 92.0207 106.854C91.7039 106.984 91.3999 107.055 91.1348 107.132C90.8762 107.21 90.6434 107.262 90.4559 107.294C90.0808 107.365 89.8675 107.391 89.861 107.365C89.8481 107.3 90.6822 107.139 91.9366 106.634C92.5639 106.382 93.2816 106.02 94.0446 105.561C94.7947 105.083 95.5901 104.501 96.3401 103.796C97.0838 103.084 97.7174 102.334 98.2412 101.61C98.752 100.88 99.1594 100.181 99.4439 99.5669C100.026 98.3383 100.239 97.5171 100.297 97.5365Z" fill="#E4EDFF"/>
<path d="M87.85 89.0525C87.8565 89.0719 87.5267 89.2207 86.9124 89.4728C86.3046 89.7315 85.3993 90.0548 84.2678 90.4104C83.1362 90.7661 81.7718 91.1217 80.2328 91.4321C78.6939 91.7295 76.9868 91.9817 75.1827 92.1175C73.3787 92.2468 71.6457 92.2468 70.0809 92.1757C68.5161 92.0917 67.1064 91.9429 65.936 91.7554C64.7657 91.5679 63.8216 91.3804 63.1814 91.2187C62.5413 91.0571 62.1856 90.9601 62.1921 90.9407C62.1986 90.9148 62.5607 90.973 63.2073 91.0959C63.8539 91.2187 64.798 91.3739 65.9684 91.5291C67.1388 91.6908 68.5355 91.8071 70.0874 91.8783C71.6457 91.93 73.3593 91.9171 75.1504 91.7942C76.9415 91.6584 78.6357 91.4192 80.1682 91.1411C81.6942 90.8437 83.065 90.5204 84.1966 90.1971C85.3282 89.8737 86.24 89.5892 86.8607 89.3694C87.4944 89.1366 87.8436 89.0267 87.85 89.0525Z" fill="#E4EDFF"/>
<path d="M113.262 117.193C113.282 117.187 113.379 117.413 113.489 117.847C113.605 118.28 113.728 118.92 113.767 119.715C113.877 121.319 113.573 123.524 113.133 125.897C112.92 127.093 112.654 128.231 112.254 129.221C111.859 130.21 111.316 131.031 110.753 131.607C110.197 132.195 109.622 132.538 109.214 132.725C108.801 132.906 108.555 132.952 108.548 132.932C108.51 132.868 109.525 132.622 110.572 131.445C111.09 130.863 111.594 130.068 111.963 129.104C112.338 128.141 112.583 127.022 112.797 125.832C113.236 123.453 113.573 121.293 113.527 119.722C113.502 118.157 113.198 117.213 113.262 117.193Z" fill="#E4EDFF"/>
<path d="M126.221 118.855C126.162 118.881 125.858 118.196 125.18 117.213C124.507 116.23 123.401 114.976 121.908 113.928C120.414 112.887 118.856 112.279 117.698 111.988C116.541 111.691 115.791 111.639 115.797 111.581C115.797 111.555 115.985 111.555 116.327 111.568C116.67 111.575 117.155 111.639 117.756 111.756C118.358 111.872 119.05 112.085 119.8 112.389C120.543 112.706 121.332 113.12 122.102 113.65C122.865 114.187 123.524 114.788 124.08 115.377C124.623 115.978 125.063 116.56 125.38 117.077C125.697 117.595 125.93 118.034 126.052 118.351C126.182 118.668 126.246 118.843 126.221 118.855Z" fill="#E4EDFF"/>
<g opacity="0.3">
<path d="M88.2251 152.725C88.8976 152.421 89.0981 151.496 88.6778 150.966C88.251 150.436 87.4944 150.313 86.8155 150.326C83.4725 150.391 80.5627 152.628 77.2714 153.229C74.7689 153.688 72.1954 153.171 69.7641 152.434C67.3328 151.697 64.9597 150.733 62.4637 150.261C61.94 150.164 61.3968 150.087 60.886 150.222C60.3751 150.358 59.8966 150.766 59.832 151.296C59.7673 151.826 59.8902 152.214 60.6791 152.479C60.6791 152.479 68.9493 154.775 74.9371 154.691C81.2869 154.594 88.2251 152.725 88.2251 152.725Z" fill="black"/>
</g>
<path d="M260.537 247.643H215.428V253.844H260.537V247.643Z" fill="#263238"/>
<path d="M260.614 253.915H215.351V247.565H260.614V253.915ZM215.506 253.76H260.459V247.714H215.506V253.76Z" fill="#263238"/>
<path d="M219.612 251.775L226.104 283.809H250.133L256.405 253.838L219.612 251.775Z" fill="#263238"/>
<path d="M219.612 280.782L223.078 285.541H252.279L256.405 280.782H219.612Z" fill="#455A64"/>
<path d="M236.295 252.713C236.204 252.713 236.094 237.873 236.043 219.574C235.991 201.268 236.023 186.428 236.107 186.428C236.198 186.428 236.308 201.261 236.36 219.574C236.411 237.873 236.379 252.713 236.295 252.713Z" fill="#263238"/>
<path d="M246.337 215.577C246.35 215.584 246.305 215.7 246.214 215.92C246.111 216.172 245.975 216.489 245.813 216.884C245.723 217.097 245.626 217.323 245.522 217.575C245.432 217.834 245.328 218.119 245.225 218.416C245.115 218.72 244.998 219.043 244.876 219.38C244.753 219.722 244.662 220.097 244.539 220.479C244.048 222.018 243.653 223.906 243.278 226.001C242.949 228.109 242.703 230.443 242.58 232.907C242.36 237.834 242.638 242.302 242.936 245.522C243.078 247.133 243.227 248.432 243.337 249.331C243.382 249.751 243.421 250.094 243.453 250.366C243.472 250.605 243.479 250.728 243.472 250.728C243.46 250.728 243.434 250.605 243.388 250.372C243.343 250.101 243.285 249.764 243.214 249.344C243.072 248.452 242.89 247.152 242.716 245.542C242.36 242.322 242.043 237.841 242.263 232.887C242.386 230.417 242.645 228.064 242.994 225.949C243.388 223.841 243.809 221.947 244.332 220.408C244.455 220.02 244.559 219.651 244.688 219.308C244.817 218.972 244.947 218.649 245.063 218.345C245.18 218.048 245.289 217.769 245.393 217.511C245.503 217.259 245.619 217.032 245.716 216.825C245.904 216.444 246.052 216.134 246.175 215.888C246.266 215.681 246.33 215.571 246.337 215.577Z" fill="#263238"/>
<path d="M245.186 203.576C245.199 203.583 245.147 203.751 245.044 204.068C244.927 204.411 244.772 204.87 244.572 205.445C244.468 205.749 244.352 206.079 244.229 206.441C244.119 206.809 243.996 207.21 243.867 207.637C243.602 208.497 243.298 209.474 243.026 210.573C242.884 211.122 242.729 211.691 242.574 212.286C242.438 212.888 242.296 213.515 242.153 214.162C241.837 215.455 241.61 216.858 241.319 218.319C240.821 221.268 240.382 224.527 240.084 227.96C239.8 231.4 239.677 234.685 239.632 237.679C239.625 240.667 239.657 243.363 239.78 245.62C239.819 246.751 239.89 247.773 239.948 248.665C240 249.564 240.058 250.334 240.117 250.967C240.162 251.575 240.201 252.06 240.226 252.422C240.246 252.752 240.252 252.933 240.246 252.933C240.233 252.933 240.207 252.758 240.162 252.429C240.117 252.067 240.065 251.588 239.994 250.98C239.916 250.353 239.845 249.577 239.774 248.685C239.696 247.786 239.612 246.764 239.554 245.633C239.399 243.369 239.341 240.673 239.334 237.673C239.36 234.679 239.476 231.381 239.761 227.928C240.065 224.482 240.511 221.216 241.028 218.261C241.326 216.793 241.565 215.39 241.895 214.097C242.05 213.45 242.192 212.823 242.334 212.222C242.496 211.627 242.658 211.051 242.806 210.508C243.091 209.409 243.414 208.439 243.699 207.579C243.835 207.152 243.97 206.758 244.087 206.389C244.223 206.034 244.345 205.704 244.462 205.4C244.682 204.831 244.856 204.378 244.986 204.042C245.108 203.732 245.18 203.57 245.186 203.576Z" fill="#263238"/>
<path d="M233.437 255.339C233.43 255.339 233.424 255.28 233.411 255.164C233.398 255.028 233.385 254.86 233.366 254.653C233.333 254.181 233.288 253.522 233.23 252.687C233.12 250.954 232.965 248.491 232.777 245.458C232.383 239.354 231.82 230.929 230.792 221.656C230.268 217.02 229.661 212.616 229.027 208.627C228.691 206.635 228.387 204.74 228.038 202.975C227.721 201.203 227.378 199.567 227.061 198.074C226.764 196.574 226.434 195.235 226.169 194.045C225.91 192.862 225.652 191.847 225.445 191.019C225.244 190.204 225.089 189.564 224.979 189.105C224.934 188.898 224.895 188.737 224.863 188.607C224.837 188.497 224.83 188.433 224.837 188.433C224.843 188.433 224.863 188.484 224.895 188.594C224.934 188.724 224.979 188.885 225.037 189.086C225.167 189.545 225.341 190.178 225.567 190.987C225.8 191.808 226.065 192.823 226.343 194.006C226.628 195.19 226.971 196.528 227.281 198.028C227.611 199.522 227.966 201.158 228.296 202.93C228.652 204.695 228.969 206.59 229.311 208.581C229.958 212.577 230.579 216.981 231.103 221.624C232.131 230.903 232.661 239.341 232.997 245.452C233.165 248.504 233.275 250.98 233.346 252.687C233.379 253.522 233.405 254.181 233.417 254.653C233.424 254.86 233.424 255.035 233.43 255.164C233.443 255.28 233.443 255.339 233.437 255.339Z" fill="#263238"/>
<path d="M235.926 193.559C235.732 191.458 233.605 189.874 231.497 189.848C229.383 189.828 227.417 191.089 226.124 192.764C224.83 194.432 224.119 196.476 223.537 198.506C222.115 203.459 221.339 208.665 221.946 213.779C222.554 218.894 224.63 223.931 228.303 227.552C228.898 228.141 229.674 228.729 230.495 228.555C230.941 228.458 231.309 228.147 231.652 227.843C238.868 221.325 243.033 211.568 242.748 201.849C242.69 199.903 242.438 197.879 241.358 196.256C240.272 194.633 237.756 192.906 235.926 193.559Z" fill="#1776E8"/>
<path d="M220.155 176.722C219.166 178.52 218.17 180.311 217.181 182.109C217.11 182.231 217.019 182.374 216.877 182.387C216.722 182.399 216.605 182.251 216.521 182.121C213.902 178.099 211.277 174.077 208.658 170.055L210.469 169.027L220.155 176.722Z" fill="#1776E8"/>
<g opacity="0.2">
<path d="M220.155 176.722C219.166 178.52 218.17 180.311 217.181 182.109C217.11 182.231 217.019 182.374 216.877 182.387C216.722 182.399 216.605 182.251 216.521 182.121C213.902 178.099 211.277 174.077 208.658 170.055L210.469 169.027L220.155 176.722Z" fill="black"/>
</g>
<path d="M236.107 186.428C227.165 181.151 218.228 175.875 209.286 170.605C209.014 170.443 208.716 170.256 208.632 169.945C208.522 169.551 208.826 169.163 209.111 168.872C212.797 165.07 218.157 162.858 223.44 163.24C228.723 163.621 233.812 166.673 236.398 171.297C238.985 175.92 239.075 182.037 236.107 186.428Z" fill="#1776E8"/>
<path d="M213.152 165.549C213.152 165.536 213.275 165.523 213.502 165.503C213.734 165.49 214.077 165.452 214.517 165.452C215.396 165.432 216.676 165.49 218.235 165.749C219.793 166.008 221.623 166.506 223.537 167.359C225.445 168.206 227.423 169.435 229.227 171.051C231.012 172.681 232.435 174.53 233.469 176.347C234.51 178.164 235.189 179.936 235.597 181.462C236.01 182.988 236.198 184.255 236.263 185.135C236.314 185.575 236.301 185.917 236.314 186.15C236.321 186.383 236.314 186.506 236.308 186.506C236.282 186.506 236.243 186.021 236.14 185.154C236.036 184.288 235.816 183.033 235.383 181.533C234.536 178.546 232.564 174.517 229.014 171.304C225.458 168.09 221.261 166.532 218.202 165.988C216.663 165.704 215.396 165.613 214.523 165.594C213.637 165.562 213.152 165.581 213.152 165.549Z" fill="#263238"/>
<path d="M232.473 175.5C232.486 175.539 231.975 175.778 231.115 176.114C230.262 176.45 229.066 176.884 227.734 177.304C226.395 177.731 225.173 178.067 224.281 178.28C223.388 178.5 222.826 178.604 222.819 178.558C222.806 178.513 223.35 178.332 224.222 178.06C225.212 177.75 226.363 177.394 227.637 176.994C228.904 176.586 230.055 176.211 231.044 175.894C231.917 175.623 232.46 175.461 232.473 175.5Z" fill="#263238"/>
<path d="M228.251 164.158C228.335 164.152 228.529 165.49 228.568 167.152C228.613 168.814 228.49 170.159 228.4 170.159C228.309 170.152 228.29 168.814 228.244 167.165C228.206 165.51 228.16 164.165 228.251 164.158Z" fill="#263238"/>
<path d="M209.053 170.301C209.04 170.262 209.783 169.991 210.999 169.616C212.215 169.241 213.915 168.762 215.803 168.31C217.698 167.857 219.424 167.508 220.679 167.282C221.933 167.062 222.716 166.965 222.729 167.003C222.735 167.049 221.966 167.223 220.724 167.501C219.483 167.779 217.769 168.161 215.881 168.614C213.993 169.066 212.292 169.506 211.064 169.829C209.829 170.153 209.066 170.347 209.053 170.301Z" fill="#263238"/>
<path d="M223.738 188.581C221.429 186.829 218.991 186.486 216.101 186.603C213.211 186.719 210.391 187.598 207.74 188.762C203.22 190.741 198.965 193.664 196.263 197.796C193.56 201.927 192.622 207.398 194.646 211.898C194.846 212.345 195.112 212.817 195.564 213.011C196.043 213.217 196.586 213.056 197.077 212.894C202.218 211.219 207.397 209.525 212.131 206.894C216.857 204.268 221.164 200.615 223.705 195.836C224.313 194.692 224.824 193.463 224.921 192.17C225.018 190.877 224.662 189.499 223.738 188.581Z" fill="#1776E8"/>
<path d="M223.783 188.045C223.783 188.058 223.66 188.109 223.414 188.194C223.136 188.291 222.781 188.413 222.334 188.562C222.095 188.64 221.836 188.73 221.552 188.821C221.267 188.924 220.97 189.047 220.64 189.176C219.987 189.442 219.237 189.7 218.442 190.088C218.041 190.269 217.62 190.463 217.181 190.664C216.741 190.864 216.308 191.116 215.842 191.349C214.911 191.808 213.967 192.39 212.965 192.985C210.993 194.233 208.904 195.733 206.874 197.498C204.863 199.29 203.104 201.165 201.617 202.962C200.899 203.881 200.2 204.747 199.625 205.614C199.334 206.04 199.03 206.441 198.771 206.849C198.519 207.256 198.274 207.65 198.041 208.025C197.556 208.763 197.2 209.48 196.857 210.095C196.689 210.405 196.528 210.683 196.392 210.955C196.263 211.22 196.146 211.472 196.036 211.698C195.829 212.119 195.661 212.455 195.532 212.72C195.416 212.953 195.344 213.069 195.338 213.069C195.325 213.063 195.377 212.933 195.474 212.694C195.59 212.422 195.739 212.073 195.926 211.646C196.03 211.414 196.14 211.162 196.263 210.89C196.392 210.618 196.547 210.327 196.709 210.017C197.039 209.396 197.381 208.666 197.86 207.915C198.086 207.534 198.325 207.133 198.577 206.719C198.83 206.305 199.127 205.898 199.418 205.465C199.987 204.585 200.679 203.712 201.397 202.781C202.884 200.964 204.643 199.063 206.673 197.259C208.716 195.474 210.824 193.974 212.823 192.733C213.838 192.144 214.795 191.562 215.732 191.11C216.198 190.877 216.644 190.631 217.084 190.437C217.53 190.243 217.95 190.056 218.358 189.881C219.166 189.506 219.929 189.254 220.588 189.008C220.918 188.892 221.229 188.769 221.513 188.678C221.798 188.594 222.063 188.517 222.302 188.446C222.755 188.316 223.117 188.213 223.401 188.129C223.647 188.064 223.783 188.032 223.783 188.045Z" fill="#263238"/>
<path d="M205.768 197.802C205.794 197.886 203.278 198.694 200.155 199.613C197.032 200.524 194.478 201.197 194.452 201.113C194.426 201.029 196.942 200.22 200.065 199.302C203.188 198.384 205.742 197.712 205.768 197.802Z" fill="#263238"/>
<path d="M205.535 210.179C205.49 210.179 205.438 209.513 205.412 208.433C205.38 207.353 205.38 205.859 205.425 204.21C205.47 202.561 205.561 201.068 205.651 199.994C205.742 198.914 205.826 198.255 205.871 198.255C205.917 198.255 205.91 198.927 205.878 200.007C205.839 201.191 205.794 202.632 205.748 204.223C205.71 205.814 205.671 207.256 205.645 208.439C205.613 209.513 205.58 210.179 205.535 210.179Z" fill="#263238"/>
<path d="M216.14 204.779C216.049 204.785 215.771 201.746 215.513 197.996C215.254 194.245 215.112 191.2 215.202 191.193C215.293 191.187 215.571 194.22 215.829 197.976C216.088 201.727 216.23 204.772 216.14 204.779Z" fill="#263238"/>
<path d="M202.936 190.902C202.936 190.857 203.628 190.838 204.733 190.851C205.845 190.857 207.371 190.889 209.066 190.948C210.753 191.006 212.286 191.07 213.392 191.135C214.497 191.2 215.183 191.264 215.183 191.31C215.183 191.355 214.497 191.374 213.385 191.361C212.279 191.355 210.747 191.323 209.053 191.264C207.359 191.206 205.833 191.142 204.727 191.077C203.621 191.006 202.936 190.941 202.936 190.902Z" fill="#263238"/>
<path d="M229.447 228.994C229.434 228.994 229.421 228.871 229.408 228.626C229.395 228.348 229.383 227.998 229.363 227.572C229.324 226.653 229.311 225.328 229.35 223.692C229.383 222.056 229.486 220.103 229.68 217.943C229.887 215.784 230.191 213.424 230.624 210.96C231.07 208.496 231.6 206.175 232.15 204.08C232.713 201.985 233.288 200.123 233.825 198.571C234.355 197.019 234.827 195.777 235.176 194.937C235.344 194.542 235.48 194.219 235.584 193.967C235.681 193.747 235.739 193.631 235.745 193.637C235.758 193.643 235.719 193.766 235.642 193.993C235.551 194.251 235.435 194.581 235.293 194.988C234.976 195.848 234.543 197.096 234.038 198.648C233.527 200.2 232.984 202.069 232.435 204.158C231.904 206.253 231.381 208.567 230.941 211.025C230.508 213.482 230.197 215.835 229.977 217.982C229.771 220.129 229.635 222.075 229.577 223.705C229.512 225.334 229.486 226.66 229.492 227.578C229.486 228.005 229.486 228.354 229.48 228.632C229.473 228.865 229.46 228.994 229.447 228.994Z" fill="#263238"/>
<path d="M230.863 210.695C230.896 210.728 230.488 211.18 229.796 211.872C229.105 212.564 228.115 213.495 226.997 214.478C225.871 215.461 224.824 216.321 224.048 216.916C223.272 217.511 222.768 217.853 222.742 217.821C222.716 217.789 223.162 217.381 223.899 216.741C224.72 216.023 225.703 215.176 226.783 214.239C227.857 213.288 228.827 212.435 229.641 211.71C230.372 211.057 230.831 210.663 230.863 210.695Z" fill="#263238"/>
<path d="M239.353 217.531C239.315 217.556 238.888 216.942 238.215 215.953C237.485 214.886 236.573 213.554 235.564 212.086C234.536 210.631 233.605 209.318 232.861 208.258C232.163 207.282 231.743 206.667 231.775 206.641C231.807 206.616 232.299 207.178 233.042 208.122C233.786 209.066 234.782 210.398 235.829 211.905C236.877 213.412 237.782 214.808 238.409 215.83C239.03 216.858 239.392 217.511 239.353 217.531Z" fill="#263238"/>
<path d="M234.905 196.03C234.95 196.107 232.131 198.002 228.607 200.272C225.083 202.541 222.186 204.313 222.134 204.242C222.089 204.164 224.908 202.27 228.432 200C231.963 197.73 234.859 195.952 234.905 196.03Z" fill="#263238"/>
<path d="M242.858 204.61C242.793 204.675 240.886 202.91 238.59 200.672C236.295 198.429 234.484 196.566 234.549 196.502C234.614 196.437 236.521 198.202 238.817 200.446C241.112 202.677 242.923 204.546 242.858 204.61Z" fill="#263238"/>
<path d="M244.856 204.435L247.275 204.235C248.995 204.092 250.663 203.582 252.163 202.741C252.907 202.321 253.65 201.913 254.439 201.596C257.433 200.394 260.77 200.607 263.99 200.445C269.247 200.18 274.446 198.855 279.185 196.559C279.457 196.43 279.703 196.223 279.845 195.958C280.343 195.053 279.418 194.244 278.623 193.753C274.543 191.238 270.391 188.696 265.768 187.448C261.145 186.2 255.894 186.414 251.95 189.13C247.326 192.317 245.639 198.868 244.856 204.435Z" fill="#1776E8"/>
<path d="M279.91 195.661C279.903 195.674 279.761 195.603 279.502 195.467C279.211 195.312 278.83 195.118 278.358 194.866C277.362 194.342 275.933 193.572 274.122 192.699C272.312 191.839 270.113 190.869 267.566 190.171C265.024 189.466 262.089 189.098 259.063 189.479C256.049 189.874 253.275 191.05 251.31 192.809C249.331 194.562 248.128 196.676 247.275 198.48C246.421 200.297 245.897 201.836 245.516 202.897C245.335 203.401 245.192 203.808 245.083 204.119C244.979 204.397 244.921 204.539 244.914 204.539C244.901 204.533 244.94 204.384 245.024 204.099C245.121 203.782 245.244 203.375 245.399 202.858C245.742 201.791 246.24 200.232 247.068 198.39C247.902 196.566 249.105 194.4 251.116 192.596C253.114 190.779 255.952 189.576 259.024 189.169C262.102 188.774 265.083 189.162 267.65 189.893C270.223 190.617 272.422 191.613 274.232 192.505C276.036 193.404 277.452 194.206 278.429 194.762C278.894 195.034 279.263 195.253 279.547 195.415C279.787 195.57 279.916 195.654 279.91 195.661Z" fill="#263238"/>
<path d="M274.096 198.784C274.045 198.855 270.883 196.812 267.029 194.212C263.175 191.613 260.091 189.447 260.136 189.369C260.188 189.298 263.35 191.341 267.21 193.941C271.064 196.546 274.148 198.713 274.096 198.784Z" fill="#263238"/>
<path d="M271.057 189.072C271.077 189.156 269.977 189.44 268.587 189.57C267.197 189.699 266.065 189.621 266.065 189.531C266.065 189.44 267.184 189.376 268.555 189.246C269.926 189.123 271.038 188.981 271.057 189.072Z" fill="#263238"/>
<path d="M256.864 186.524C256.941 186.569 256.476 187.501 255.823 188.6C255.17 189.699 254.581 190.559 254.51 190.514C254.439 190.469 254.898 189.537 255.551 188.438C256.198 187.339 256.786 186.479 256.864 186.524Z" fill="#263238"/>
<path d="M259.696 200.653C259.677 200.692 259.088 200.381 258.17 199.825C257.258 199.269 256.017 198.454 254.698 197.497C253.379 196.54 252.215 195.628 251.374 194.969C250.54 194.303 250.036 193.876 250.061 193.844C250.087 193.811 250.643 194.174 251.51 194.788C252.46 195.48 253.611 196.314 254.885 197.239C256.204 198.196 257.414 199.03 258.293 199.638C259.179 200.239 259.722 200.614 259.696 200.653Z" fill="#263238"/>
<path d="M248.419 214.724C246.111 214.116 243.356 216.36 242.884 218.701C242.406 221.042 243.285 223.434 244.313 225.587C246.589 230.359 249.725 234.782 253.864 238.08C257.996 241.378 263.175 243.479 268.464 243.453C267.488 238.921 268.723 234.181 268.18 229.577C267.708 225.555 265.833 221.714 262.955 218.869C260.078 216.024 256.217 214.187 252.195 213.748C250.715 213.592 249.008 213.36 248.419 214.724Z" fill="#1776E8"/>
<path d="M268.458 243.453C268.451 243.466 268.342 243.408 268.128 243.298C267.921 243.182 267.617 243.001 267.262 242.716C266.537 242.167 265.703 241.106 264.979 239.664C264.611 238.946 264.197 238.17 263.796 237.317C263.408 236.457 262.988 235.539 262.554 234.569C262.115 233.605 261.63 232.609 261.028 231.633C260.427 230.657 259.716 229.706 258.927 228.775C257.349 226.919 255.648 225.309 254.181 223.777C252.7 222.251 251.458 220.776 250.559 219.431C249.654 218.093 249.105 216.897 248.788 216.056C248.639 215.629 248.529 215.299 248.477 215.067C248.419 214.834 248.393 214.717 248.406 214.711C248.439 214.705 248.568 215.183 248.904 216.011C249.247 216.832 249.822 218.002 250.741 219.308C251.652 220.621 252.9 222.063 254.387 223.576C255.862 225.096 257.569 226.699 259.166 228.575C259.961 229.512 260.686 230.482 261.287 231.478C261.895 232.474 262.38 233.482 262.813 234.452C263.24 235.422 263.647 236.34 264.029 237.207C264.417 238.061 264.817 238.849 265.173 239.567C265.871 241.009 266.647 242.057 267.333 242.626C268.025 243.208 268.477 243.421 268.458 243.453Z" fill="#263238"/>
<path d="M256.521 239.69C256.482 239.683 256.554 239.088 256.735 238.138C256.916 237.187 257.213 235.881 257.614 234.459C258.015 233.036 258.442 231.769 258.784 230.863C259.127 229.958 259.373 229.415 259.418 229.428C259.463 229.441 259.289 230.016 259.004 230.941C258.72 231.859 258.325 233.133 257.924 234.549C257.524 235.965 257.194 237.252 256.961 238.19C256.715 239.114 256.567 239.696 256.521 239.69Z" fill="#263238"/>
<path d="M268.025 228.555C268.012 228.6 267.391 228.439 266.395 228.18C265.399 227.921 264.029 227.566 262.496 227.223C260.97 226.88 259.573 226.609 258.565 226.421C257.556 226.227 256.929 226.111 256.935 226.059C256.942 226.014 257.575 226.059 258.603 226.195C259.625 226.331 261.035 226.563 262.574 226.906C264.113 227.255 265.483 227.643 266.466 227.96C267.443 228.283 268.038 228.516 268.025 228.555Z" fill="#263238"/>
<path d="M247.954 231.795C247.908 231.788 247.999 231.096 248.206 229.997C248.406 228.898 248.729 227.378 249.163 225.723C249.596 224.068 250.055 222.587 250.417 221.526C250.779 220.466 251.038 219.819 251.077 219.832C251.122 219.845 250.941 220.518 250.631 221.591C250.327 222.664 249.9 224.152 249.473 225.801C249.04 227.449 248.684 228.95 248.426 230.042C248.167 231.129 247.999 231.801 247.954 231.795Z" fill="#263238"/>
<path d="M262.729 218.862C262.722 218.953 259.838 218.72 256.288 218.339C252.745 217.964 249.874 217.589 249.887 217.498C249.893 217.408 252.777 217.64 256.327 218.022C259.871 218.397 262.735 218.772 262.729 218.862Z" fill="#263238"/>
<path d="M260.614 253.812C260.614 253.903 250.482 253.974 237.989 253.974C225.49 253.974 215.357 253.903 215.357 253.812C215.357 253.722 225.49 253.65 237.989 253.65C250.482 253.65 260.614 253.728 260.614 253.812Z" fill="#455A64"/>
<path d="M253.566 266.854C253.566 266.945 246.738 267.016 238.319 267.016C229.9 267.016 223.072 266.945 223.072 266.854C223.072 266.764 229.9 266.692 238.319 266.692C246.738 266.692 253.566 266.764 253.566 266.854Z" fill="#455A64"/>
<path d="M253.831 268.716C253.831 268.807 247.003 268.878 238.584 268.878C230.165 268.878 223.337 268.807 223.337 268.716C223.337 268.626 230.165 268.555 238.584 268.555C247.003 268.555 253.831 268.626 253.831 268.716Z" fill="#455A64"/>
<path d="M253.831 265.315C253.831 265.406 246.77 265.477 238.06 265.477C229.35 265.477 222.289 265.406 222.289 265.315C222.289 265.224 229.35 265.153 238.06 265.153C246.77 265.153 253.831 265.224 253.831 265.315Z" fill="#455A64"/>
<path d="M273.172 285.541C273.172 285.632 212.014 285.709 136.592 285.709C61.1445 285.709 0 285.632 0 285.541C0 285.451 61.1445 285.373 136.592 285.373C212.014 285.373 273.172 285.451 273.172 285.541Z" fill="#263238"/>
</g>
<defs>
<clipPath id="clip0_561_1912">
<rect width="280" height="285.787" fill="white"/>
</clipPath>
</defs>
</svg>
